<svg width="211" height="35" viewBox="0 0 211 35" fill="none" xmlns="http://www.w3.org/2000/svg">
<path d="M76.3 26V12H87.2V14.4H78.96V17.06H84.38C86.94 17.06 88.76 19.08 88.76 21.5C88.76 23.92 86.94 26 84.38 26H76.3ZM83.98 23.66C85.36 23.66 86.18 22.58 86.18 21.5C86.18 20.42 85.36 19.34 83.98 19.34H78.96V23.66H83.98ZM90.7686 26V23.74H91.3486C92.3486 23.74 92.7086 22.96 92.9686 21.94L95.4286 12H104.309V26H101.649V14.4H97.4886L95.3486 23.1C94.9286 24.8 94.0286 26 91.9686 26H90.7686ZM115.258 26.4C111.178 26.4 107.858 23.08 107.858 19C107.858 14.92 111.178 11.6 115.258 11.6C119.338 11.6 122.658 14.92 122.658 19C122.658 23.08 119.338 26.4 115.258 26.4ZM110.518 19C110.518 21.72 112.538 23.88 115.258 23.88C117.978 23.88 119.978 21.72 119.978 19C119.978 16.28 117.978 14.12 115.258 14.12C112.538 14.12 110.518 16.28 110.518 19ZM126.187 26V12H136.587V14.4H128.847V26H126.187Z" fill="black"/>
<rect x="1" y="1" width="209" height="33" rx="16.5" stroke="black" stroke-width="2"/>
</svg>
