<svg width="369" height="339" viewBox="0 0 369 339" fill="none" xmlns="http://www.w3.org/2000/svg">
<path d="M64.2072 200.429C65.6865 197.705 68.0226 194.399 69.9644 192.003C70.5713 191.252 70.5237 191.814 70.9546 191.306C71.8004 190.313 72.4054 189.254 73.2906 188.305C73.585 187.992 73.6228 188.688 73.9229 188.355C75.566 186.534 76.9372 184.656 78.673 182.836C79.8697 181.584 81.1046 180.358 82.4006 179.176C85.5938 176.263 89.0388 173.205 92.8714 170.708C97.3538 167.8 101.822 164.643 106.952 162.092C107.372 161.881 107.78 161.679 108.201 161.474C111.845 159.69 116.57 158.067 120.683 156.77C121.159 156.618 120.769 156.314 120.853 156.257C122.192 155.39 121.905 156.294 122.872 156.173C123.157 156.14 123.45 156.104 123.733 156.07C127.646 155.611 131.283 155.674 134.207 154.94C135.397 154.638 134.293 154.205 135.104 154.233C135.207 154.23 135.336 154.231 135.494 154.238C135.609 154.242 135.312 154.742 135.745 154.689C136.727 154.561 138.529 154.154 139.272 154.074C140.703 153.916 140.935 153.883 142.258 153.707C143.479 153.55 144.846 153.475 146.16 153.307C146.711 153.239 147.268 153.115 147.799 152.938C148.147 152.817 147.567 152.536 148.099 152.303C148.629 152.083 150.116 151.563 150.661 151.43C151.205 151.308 151.127 151.709 151.248 151.742C152.266 152.024 153.639 150.335 153.848 150.198C156.044 148.861 158.136 147.69 160.692 146.768C162.274 146.239 163.853 145.441 165.447 144.388C166.704 143.559 167.987 142.59 169.37 141.643C171.059 140.486 172.91 139.559 174.706 138.953C178.714 137.63 182.178 137.526 185.989 137.286C186.394 137.264 185.897 136.778 186.391 136.751C186.767 136.732 187.134 136.716 187.51 136.703C194.137 137.071 197.785 140.695 201.43 143.99C201.809 144.366 201.001 144.252 201.358 144.646C202.681 146.099 204.244 148.175 205.76 149.804C206.734 150.847 207.742 151.638 208.812 151.787C210.055 153.579 211.441 155.773 212.171 157.549C212.249 157.74 212.285 157.879 212.296 157.984C212.372 158.575 211.767 158.14 212.612 159.247C212.831 159.556 212.974 158.918 213.274 159.41C214.526 161.529 214.985 163.925 215.789 165.857C215.951 166.249 216.285 166.034 216.384 166.129C217.174 166.916 216.822 168.668 216.854 169.099C216.856 169.115 216.858 169.129 216.86 169.141C217.384 172.772 216.831 174.914 216.802 177.315C216.788 177.857 217.31 177.235 217.32 177.739C217.331 178.158 217.359 178.556 217.409 178.933C217.735 181.478 217.978 184.078 218.079 186.573C218.105 187.235 217.602 186.682 217.592 187.002C217.571 187.773 217.817 188.185 218.041 188.621C218.226 188.981 218.395 189.357 218.386 189.959C218.384 190.24 217.995 190.129 217.96 190.185C217.418 191.055 218.414 191.62 218.462 191.814C219.088 194.288 218.452 196.044 219.18 198.423C219.269 198.703 219.562 197.947 219.786 198.74C219.809 198.82 219.832 198.901 219.855 198.983C220.899 202.692 221.048 206.424 221.543 209.841C221.811 211.698 222.347 213.625 222.933 215.485C223.193 216.291 222.64 215.864 222.619 215.929C222.315 217.002 223.39 217.171 223.531 217.407C224.017 218.242 224.337 219.121 224.689 219.92C225.125 220.912 225.658 221.77 226.606 222.136C227.822 224.303 229.396 226.322 230.917 228.584C232.699 231.283 235.042 234.051 236.354 237.541C237.7 241.186 237.86 244.885 237.414 248.467C237.399 248.589 236.956 248.354 236.927 248.598C236.526 251.346 237.122 251.022 237.594 252.829C237.626 252.926 237.658 253.032 237.69 253.149C237.81 253.599 236.577 254.83 236.488 254.951C236.148 255.376 235.549 254.804 235.475 254.952C234.885 256.192 237.109 256.249 236.927 257.96C236.918 258.014 236.535 257.746 236.48 257.886C236.307 258.324 236.424 258.787 236.242 259.22C235.824 260.201 234.717 260.476 235.206 262.09C235.27 262.294 236.549 262.1 236.354 263.659C236.277 264.28 236.05 267.054 235.887 267.828C235.727 268.601 235.378 268.023 235.355 268.078C234.603 270.114 234.463 269.301 233.556 270.244C232.643 271.18 234.547 271.13 234.699 271.591C234.854 272.047 234.176 273.526 233.948 273.876C233.727 274.22 233.561 273.711 233.413 274.021C232.396 276.084 234.123 275.175 234.226 276.019C234.298 276.769 234.057 277.421 233.584 278.026C232.91 278.798 231.963 279.305 231.38 280.111C231.125 280.462 231.58 280.326 231.405 280.67C230.696 282.034 229.831 282.553 229.178 284.201C229.074 284.468 228.946 286.105 227.91 286.472C227.763 286.523 227.696 286.025 227.252 286.499C226.588 287.206 225.483 288.541 224.945 289.428C224.547 290.085 225.536 289.744 224.807 290.395C224.482 290.684 224.702 289.853 224.114 290.411C223.531 290.965 222.286 292.573 221.816 293.188C221.351 293.799 221.952 293.739 221.937 293.805C221.858 294.115 221.4 294.948 221.159 295.362C221.076 295.5 221.013 295.595 220.992 295.621C216.096 301.272 209.347 302.113 203.143 303.638C202.65 303.75 203.065 304.139 202.991 304.161C201.302 304.668 202.448 303.216 201.178 303.032C201.526 303.847 200.77 303.875 200.042 304.139C199.941 304.183 199.836 304.227 199.722 304.269C199.035 304.498 199.479 304.75 199.427 304.804C198.239 305.571 197.488 304.638 197.384 304.487C196.861 303.853 196.081 304.265 195.794 303.796C195.533 303.333 196.552 303.134 195.451 302.755C195.026 302.954 195.563 304.08 194.654 303.895C192.77 303.499 190.324 302.312 188.089 301.135C186.233 300.155 184.556 299.156 183.476 298.589C181.093 297.332 180.298 296.995 178.954 296.18C176.531 294.704 177.163 295.751 175.464 295.213C173.762 294.672 175.252 293.648 175.183 293.228C175.12 292.811 174.717 292.999 174.53 292.691C174.343 292.383 175.041 292.482 174.431 292.087C173.821 291.694 171.783 291.321 171.392 291.521C170.56 291.942 170.985 293.06 169.413 291.926C169.323 291.861 169.834 291.655 169.479 291.422C166.918 289.756 164.144 288.248 161.543 286.628C161.275 286.462 161.014 286.296 160.759 286.129C160.374 285.874 160.958 285.662 160.735 285.508C158.446 283.897 158.942 285.066 157.161 285.033C158.052 284.207 157.681 283.192 155.924 282.053C154.874 281.361 154.778 281.901 153.895 281.731C153.629 281.68 153.095 280.877 152.823 280.972C151.933 281.282 152.096 282.511 150.524 280.883C150.456 280.81 150.965 280.664 150.712 280.436C149.116 278.957 148.389 279.418 146.556 277.888C145.709 277.176 144.661 275.911 143.703 274.75C142.997 273.917 142.348 273.073 141.804 272.4C142.8 271.571 141.337 270.298 140.138 270.172C139.34 269.052 138.478 267.848 137.879 266.686C137.673 266.287 138.149 266.33 138.153 266.261C138.226 265.189 137.177 265.173 136.992 264.952C136.973 264.929 136.954 264.905 136.935 264.882C135.064 262.631 133.625 260.566 131.199 258.605C131.121 258.539 130.392 258.903 130.296 258.065C130.307 258.027 130.322 257.983 130.339 257.932C130.345 257.916 130.415 257.917 130.496 257.918C130.646 257.965 130.806 257.983 130.726 257.749C130.711 257.666 130.653 257.541 130.494 257.392C129.955 256.611 127.225 256.119 125.297 256.683C124.846 256.802 123.562 257.61 122.497 256.884C122.363 256.786 122.554 256.552 122.377 256.379C122.352 256.354 122.328 256.332 122.304 256.313C121.825 255.896 121.41 256.652 120.837 255.842C120.221 254.985 118.791 254.33 116.824 254.64C116.763 254.648 116.21 255.314 115.593 255.206C114.612 255.039 113.267 254.597 112.275 254.321C111.801 254.19 111.98 254.709 111.895 254.693C111.851 254.684 111.807 254.675 111.763 254.665C108.542 253.956 106.452 252.734 103.287 251.211C102.699 250.929 100.736 250.741 99.7648 249.812C99.0578 249.144 99.7407 248.265 99.3691 247.532C99.1895 247.154 98.7234 246.824 97.6522 246.598C96.4036 246.333 93.8203 248.321 92.2654 246.065C88.0078 244.612 84.5888 242.165 80.3323 240.656C80.1477 240.591 79.2179 241.007 78.8014 240.79C78.1804 240.464 77.9883 239.959 77.5532 239.716C77.3631 239.609 77.171 239.506 76.977 239.405C75.3268 238.549 73.6907 237.84 72.2541 236.68C71.6502 236.182 72.0968 236.062 71.4139 235.454C70.7485 234.842 69.9416 234.776 69.2569 233.693C68.7424 232.866 68.9348 231.513 68.2758 230.477C67.4622 231.058 66.9639 230.377 65.8306 229.362C65.8186 229.351 65.8066 229.341 65.7945 229.33C65.5725 229.132 65.4931 229.597 65.3722 229.511C64.8635 229.151 64.8051 228.536 64.3554 228.169C64.2463 228.078 63.9472 228.247 63.8399 228.177C62.8971 227.587 62.9409 225.813 62.9765 225.532C63.0614 224.414 62.4926 224.144 62.4346 223.35C62.3894 222.568 62.9769 223.56 62.8239 222.69C62.5131 220.907 61.9787 218.682 61.8242 216.871L61.8262 216.94C61.8267 216.929 61.8272 216.918 61.8278 216.908C61.8646 216.17 61.3846 216.652 61.3792 216.546C61.331 215.012 61.9256 213.509 61.0899 212.588C63.5409 211.741 60.9209 211.647 61.6707 209.505C61.7331 209.337 62.8652 209.285 62.9414 209.946C63.0184 210.607 62.5627 211.547 62.7381 212.473C62.7758 212.697 63.7242 213.99 63.7781 214.159C64.1857 215.481 62.5173 215.575 62.4206 215.64C61.9614 215.972 61.9168 216.462 62.016 216.948L62.0133 216.852C62.2183 217.417 62.6585 217.904 62.7333 218.106C63.3518 219.769 63.4964 221.26 64.1888 222.569C64.6481 223.42 65.7072 223.119 65.9323 223.784C66.6152 225.676 66.0403 227.139 67.5057 228.011C67.7344 228.163 67.9955 228.309 68.294 228.446C68.8429 228.691 69.488 227.583 69.8686 229.597C69.8883 229.722 70.0572 231.307 70.9653 231.496C71.078 231.519 71.3344 231.284 71.4368 231.353C72.1152 231.813 72.2853 232.382 73.0105 232.866C73.7338 233.345 74.6437 233.823 75.3757 234.471C75.8104 234.862 76.1262 235.822 76.3005 236.108C76.7382 236.846 77.7133 236.735 78.0694 237.215C78.1176 237.276 78.1566 237.345 78.1847 237.424C78.448 238.177 77.0767 238.439 78.2491 239.423C78.6994 238.638 79.2248 237.862 79.7097 237.088C82.6147 238.562 85.3692 240.222 88.3406 241.554C88.7079 241.717 88.5406 241.104 88.9357 241.266C90.6267 241.959 91.9225 242.922 93.7049 243.539C95.0793 244.012 96.7431 244.144 98.1903 244.575C98.4307 245.23 99.1167 245.68 99.9383 246.052C100.841 246.455 101.796 246.796 102.548 247.17C103.075 247.432 102.929 247.67 103.275 247.917C104.573 248.837 104.264 247.709 104.707 247.742C106.603 247.872 105.944 249.85 107.948 250.564C108.059 250.607 109.707 250.035 109.899 250.025C111.15 249.982 109.957 250.453 110.627 250.765C111.358 251.101 111.945 251.419 112.64 251.644C113.094 251.791 113.597 251.89 114.216 251.898C114.674 251.907 115.789 251.431 116.545 252.07C116.646 252.154 116.535 252.507 116.623 252.541C118.239 253.103 118.406 251.943 119.429 251.644C120.446 251.328 122.173 252.301 122.513 252.6C123.389 253.336 121.737 252.735 121.689 252.801C121.135 253.321 121.923 253.404 122.783 253.576C122.875 253.597 122.978 253.616 123.078 253.637C123.019 254.778 124.178 254.748 123.79 253.736C123.745 253.629 123.192 253.707 123.078 253.637C123.719 252.612 124.69 252.439 126.349 253.384C127.133 253.861 126.342 254.342 128.764 254.239C129.948 254.301 129.575 253.412 130.933 253.593C131.859 253.755 133.056 254.42 133.801 255.486C134.536 256.547 135.402 257.96 136.436 258.966C136.969 259.486 136.791 258.664 137.168 259.013C138.176 259.954 138.782 261.108 139.812 262.29C139.907 262.4 140.069 261.853 140.358 262.265C140.42 262.355 140.482 262.445 140.542 262.536C142.26 265.146 143.285 267.316 145.195 269.504C145.646 270.024 146.328 270.678 147.058 271.317C147.964 272.127 148.791 272.881 149.362 273.458C151.219 275.378 153.379 277.925 155.393 279.117C156.695 279.89 156.669 279.327 157.368 279.428C158.701 279.612 160.051 281.636 160.233 281.923C160.238 281.934 159.057 281.358 159.546 281.912C159.654 282.526 160.22 281.917 160.233 281.923C160.347 282.122 162.585 283.481 163.1 283.645C163.105 283.646 163.109 283.648 163.114 283.649C163.377 283.723 163.432 283.292 163.57 283.347C166.958 284.709 170.219 286.303 173.389 288.171C173.442 288.209 173.139 288.581 173.267 288.663C175.059 289.829 176.533 289.943 178.246 290.439C179.959 290.934 181.141 291.662 181.701 292.848C182.925 293.353 184.453 294.514 185.332 295.187C186.216 295.862 186.748 295.102 186.843 295.128C188.236 295.498 189.258 295.956 190.234 296.469C191.343 297.048 192.401 297.713 193.832 298.385C195.067 298.993 198.019 299.995 198.418 299.831C198.583 299.788 198.332 299.852 198.419 299.865C198.621 299.792 198.774 299.749 198.915 299.712C199.033 299.683 199.121 299.663 199.218 299.641C199.425 299.596 199.537 299.575 199.701 299.541C199.982 299.482 200.249 299.42 200.535 299.334C200.693 299.287 200.46 298.915 200.505 298.891C201.699 298.179 201.257 299.271 201.556 299.397C202.609 299.858 203.252 300.097 204.751 299.451C205.095 299.304 205.783 297.664 206.362 297.417C207.124 297.094 206.974 297.673 207.763 297.305C207.83 297.273 207.725 296.977 208.225 296.829C210.548 296.14 212.99 295.238 214.713 293.896C214.944 293.716 214.347 293.541 214.661 293.28C215.292 292.749 215.857 292.179 216.325 291.6C217.319 290.356 218.334 289.177 219.329 288.122C219.762 287.665 219.797 288.191 219.963 288.149C220.977 287.88 220.97 286.385 221.072 286.223C223.493 282.317 226.297 279.953 228.042 275.99C228.072 275.916 228.091 275.61 228.135 275.249C227.946 275.153 227.972 274.386 228.598 274.075C228.662 274.057 229.674 273.51 229.213 272.7C229.183 272.654 228.664 273.055 228.851 272.223C229.039 271.379 228.936 269.895 229.559 268.684C229.757 268.303 230.717 267.427 230.148 266.135C230.109 266.051 228.734 264.016 229.86 263.424C230.046 263.327 231.166 263.546 230.715 262.005C230.628 261.71 230.33 262.207 230.238 261.441C230.097 260.266 230.534 258.755 230.182 257.247C230.118 256.992 229.467 255.806 230.161 254.978C230.27 254.849 230.612 255.161 230.714 254.696C230.938 253.695 231.088 252.65 231.328 251.491C231.493 250.689 231.592 249.662 231.784 248.667C231.902 248.018 232.505 248.376 232.682 247.674C232.862 246.974 232.966 245.511 232.612 244.803C232.262 244.105 231.377 244.975 231.178 243.949C230.881 242.509 230.548 241.135 230.143 240.031C229.326 237.693 227.674 235.241 225.648 232.112C225.531 231.927 225.409 231.739 225.282 231.549C224.865 230.933 224.945 231.648 224.284 230.736C222.958 228.905 220.654 226.071 219.035 222.726C217.794 220.183 216.862 217.601 216.56 215.666C216.083 212.267 217.799 216.163 217.268 213.657C217.027 212.473 215.629 211.342 215.536 210.999C215.529 210.975 215.522 210.951 215.515 210.927C214.68 208.158 215.018 206.269 214.539 204.088C214.44 203.64 214.052 204.15 213.972 203.773C213.738 202.69 213.67 201.595 213.449 200.681C213.392 200.454 213.335 200.234 213.274 200.015C213.096 199.382 212.784 199.583 212.67 198.984C212.396 197.553 212.288 196.247 212.381 194.81C212.39 194.681 212.961 195.451 212.804 194.407C212.574 192.863 212.615 190.973 212.214 189.305C212.175 189.144 212.131 188.984 212.083 188.826C211.919 188.293 211.119 188.365 211.532 187.128C211.619 186.869 212.613 187.07 211.625 185.802C211.461 185.589 210.076 183.427 210.664 182.217C210.818 181.898 211.513 181.049 211.313 180.408C211.282 180.321 210.896 180.727 210.791 180.189C210.761 180.033 210.732 179.877 210.704 179.719C210.315 177.207 210.702 175.048 210.642 173.542C210.625 173.116 210.153 173.71 210.136 173.107C210.105 172.297 210.037 171.726 209.944 171.352C209.571 170.107 209.27 168.867 209.036 167.813C208.867 167.042 209.374 167.462 209.396 167.395C209.769 166.33 208.775 166.083 208.644 165.825C207.841 164.222 207.849 163.012 207.211 162.1C207.036 161.858 206.78 162.255 206.718 162.224C206.201 161.985 206.755 161.915 206.844 161.675C206.848 161.619 206.834 161.553 206.794 161.472C206.002 159.88 204.9 158.308 203.872 156.973C203.494 156.483 203.504 157.331 203.17 156.892C202.391 155.876 201.604 154.874 200.802 153.877C199.739 152.56 198.377 151.098 197.111 149.758C196.713 149.34 197.232 149.296 197.198 149.151C196.958 148.14 195.479 148.001 195.219 147.901C194.012 147.42 193.821 146.877 192.895 146.335C190.995 145.193 188.452 144.169 187.711 144.257C184.184 144.322 180.82 144.581 178.268 145.226C176.269 145.722 174.604 146.399 173.062 147.312C170.254 148.977 167.291 151.288 163.097 152.947C162.488 153.182 161.763 153.529 161 153.925C160.626 154.12 161.233 154.373 160.911 154.549C157.133 156.545 153.008 159.062 147.209 160.142C146.632 160.239 146.063 160.332 145.502 160.425C145.083 160.493 145.752 160.881 145.083 161.005C143.711 161.263 142.053 161.45 140.767 161.501C140.139 161.527 140.903 160.993 140.27 161.029C139.123 161.095 137.956 161.271 136.85 161.556C136.427 161.664 136.01 161.764 135.603 161.859C134.821 162.038 136.102 162.297 135.072 162.488C131.269 163.159 127.792 163.22 125.404 163.672C122.899 164.146 120.622 164.688 118.117 165.364C117.737 165.467 117.053 164.675 116.341 165.179C116.389 165.455 116.517 165.75 116.606 166.03C114.58 166.933 112.564 167.915 110.547 168.955C106.136 171.186 101.811 174.14 97.3002 177.133C96.4701 177.689 95.663 178.267 94.873 178.877C94.6018 179.087 95.3879 179.132 94.8694 179.54C92.6738 181.276 90.6633 183.292 88.3551 185.304C87.5884 185.966 86.8012 186.648 85.9777 187.338C85.6726 187.596 85.1269 186.822 84.4356 187.805C84.3096 187.977 83.2245 189.422 83.081 189.914C83.0639 189.982 83.6024 190.004 83.2423 190.457C81.1431 193.094 78.9368 195.908 76.7812 198.588C76.4324 199.022 76.3891 198.276 76.1373 198.583C74.3508 200.769 72.9965 203.534 71.2656 205.623C70.1098 207.024 69.7675 206.056 68.613 206.498C68.4465 206.564 67.8764 207.535 67.4567 207.362C66.3906 206.94 65.5746 205.85 64.407 205.455C64.1573 205.361 63.6427 206.878 63.537 205.762C63.5299 205.685 63.9108 204.576 63.8626 204.233C63.8316 203.989 63.2559 204.069 63.292 203.625C63.332 203.176 63.8851 202.988 64.0284 202.307C64.1763 201.616 63.5706 201.605 64.2072 200.429ZM189.311 298.165C189.344 298.202 189.377 298.235 189.409 298.263C190.103 298.846 190.767 297.637 189.767 297.487C189.745 297.484 189.722 297.481 189.698 297.479C189.643 297.477 189.274 298.124 189.311 298.165ZM84.835 241.291C85.7247 242.5 86.9887 241.939 86.379 241.047C85.778 240.159 84.5667 240.925 84.835 241.291ZM72.8005 235.314C73.6528 236.678 75.1398 234.931 73.681 234.404C73.5982 234.372 72.7544 235.236 72.8005 235.314ZM70.7319 202.53C70.7067 202.529 70.2592 203.214 70.2692 203.239C70.4778 203.874 71.3649 202.515 70.7319 202.53ZM64.1944 225.391C64.0955 225.961 65.0354 227.012 65.1111 226.317C65.1703 225.779 64.313 224.708 64.1944 225.391ZM230.685 279.743C230.715 279.742 231.032 279.25 230.909 279.191C230.512 279.007 230.205 279.76 230.685 279.743ZM64.5842 203.599C63.8542 204.542 63.1764 205.372 62.6219 205.881C61.9655 206.617 61.4003 206.731 61.571 205.566C61.5762 205.548 61.5959 205.494 61.6026 205.476C61.6861 205.151 61.8505 204.729 62.1416 204.227C62.4892 203.599 62.0185 205.89 62.559 205.133C63.4961 203.861 63.1736 202.193 64.9028 201.396C65.1464 201.281 64.627 203.465 64.5829 203.605C64.5834 203.603 64.5838 203.601 64.5842 203.599ZM189.034 300.164C189.04 300.19 189.778 300.549 189.801 300.537C190.413 300.254 188.942 299.538 189.034 300.164ZM236.973 246.222C237.031 246.176 236.948 244.237 236.886 244.178C235.99 243.277 236.159 247.087 236.973 246.222ZM141.809 272.352C140.816 271.999 140.059 271.147 140.14 270.176C140.659 270.923 141.23 271.639 141.809 272.352Z" fill="#C2A8FF"/>
<path d="M104.66 114.052C104.349 112.917 104.255 111.377 104.259 110.197C104.261 109.831 104.573 109.961 104.586 109.709C104.608 109.192 104.393 108.789 104.432 108.278C104.447 108.111 104.928 108.225 104.933 108.052C104.96 107.119 104.673 106.27 104.573 105.356C104.1 101.368 103.321 97.5776 101.335 94.9843C101.016 94.5579 100.686 94.1379 100.345 93.7222C99.4213 92.586 98.4006 91.0157 97.094 90.0762C96.9419 89.9669 96.7578 90.3351 96.7097 90.3355C95.9641 90.3356 96.6364 89.8649 96.4352 89.5418C95.6318 88.2608 94.3998 87.146 93.2143 86.2793C92.7091 85.9106 92.6424 86.914 92.4736 86.1622C92.4617 86.1108 92.8621 85.9067 92.7668 85.7586C92.5484 85.4228 91.9588 84.9757 91.7614 84.7413C91.416 84.3285 91.3279 84.241 91.0098 83.9256C90.9893 83.9051 90.9671 83.8831 90.9428 83.8592C90.5325 83.4488 90.0463 82.7861 89.4079 82.4384C89.272 82.3659 89.1806 82.8328 88.9419 82.7505C88.7025 82.6658 88.1952 82.2718 88.0642 82.0645C87.934 81.8561 88.2002 81.6259 88.21 81.5391C88.2973 80.8084 87.1432 81.1566 87.0509 81.1282C85.3119 80.5132 84.1774 79.3196 82.6158 78.5627C81.4326 77.9924 80.0824 77.5875 78.9435 77.1188C77.5919 76.5625 76.482 75.939 75.1347 75.6328C74.9926 75.6008 75.0322 76.1338 74.8622 76.0971C74.7766 76.0788 74.6919 76.061 74.6082 76.0437C74.5655 76.0524 74.6527 76.0508 74.5923 76.0578C74.5384 76.0674 74.3537 76.1392 74.113 76.2943C73.6229 76.6039 72.9775 77.1656 72.3037 77.7551C72.1602 77.8805 71.9602 77.4149 71.7957 77.5246C70.785 78.2061 68.9309 79.3684 70.1357 81.0566C69.6064 81.7089 68.9748 82.5252 68.2297 82.9457C67.7484 83.2188 67.6043 82.5557 67.4474 83.1701C67.411 83.3092 67.8634 83.3949 67.7816 83.5863C67.6497 83.8918 67.487 84.1696 67.3067 84.4604C66.996 84.9612 66.6586 85.4454 66.4461 85.979C66.3779 86.1525 66.715 86.3355 66.7404 86.4176C66.9347 87.1001 65.7594 87.1363 65.6126 87.2168C64.4952 87.8567 64.1025 88.6412 63.3695 89.4667C63.1981 89.6581 63.784 89.7653 63.6308 89.9634C62.8371 90.9799 61.8746 91.9207 60.8641 92.6213C60.6403 92.7752 60.5023 92.2942 60.3784 92.3531C59.8447 92.6095 60.3374 93.2777 59.9001 93.489C59.8149 93.529 59.5699 93.2439 59.5285 93.2287C59.1907 93.1098 59.1682 93.2635 59.2694 93.3943C59.3641 93.5187 59.5371 93.6585 59.5391 93.6739C59.618 94.0508 58.5467 94.4606 58.6088 95.3992C58.6182 95.5084 59.1053 95.3014 59.1042 95.6023C59.1209 97.627 59.2164 100.097 58.8688 102.433C58.816 102.797 58.4578 102.542 58.4145 102.566C57.7367 102.941 58.6512 103.173 58.6855 103.294C58.9325 104.245 58.1285 105.076 59.1601 105.817C59.1322 105.978 59.1043 106.139 59.0759 106.299C58.5186 109.367 60.1712 112.701 60.628 116.308C60.6357 116.357 60.1865 116.449 60.2038 116.545C60.4138 117.703 60.9793 117.234 62.0617 117.569C62.3332 117.652 61.629 118.603 61.5826 118.683C61.4069 118.97 60.7164 119.072 60.6935 119.152C60.5291 119.809 62.5028 118.799 62.7995 119.424C62.8055 119.446 62.3975 119.538 62.3861 119.608C62.3495 119.828 62.5743 119.922 62.5248 120.143C62.4091 120.65 61.5081 121.262 62.3494 121.548C62.4579 121.583 63.5294 120.917 63.7561 121.502C63.844 121.735 64.3654 122.709 64.4371 123.022C64.5079 123.335 64.0501 123.332 64.0447 123.36C63.9562 124.35 63.6131 124.171 63.1076 124.915C62.6064 125.659 64.2183 124.675 64.4843 124.728C64.7496 124.781 64.6494 125.533 64.5858 125.739C64.5219 125.945 64.2056 125.9 64.1927 126.06C64.1166 127.119 65.2028 125.963 65.6056 126.08C66.5573 126.351 65.5876 127.493 65.7738 128.118C65.8242 128.287 66.0358 128.01 66.1356 128.131C66.5272 128.608 66.3219 129.139 67.006 129.551C67.1176 129.618 68.124 129.701 67.7592 130.316C67.7063 130.404 67.3307 130.445 67.3883 130.71C67.438 130.94 67.5509 131.256 67.6958 131.54C67.8018 131.747 67.9241 131.934 68.0512 132.06C68.2756 132.281 68.6042 131.698 68.6358 132.114C68.6497 132.298 68.204 132.196 68.255 132.529C68.3116 132.874 68.7315 133.559 68.9069 133.824C69.0791 134.085 69.3623 133.712 69.4005 133.719C69.6241 133.765 70.1035 134.14 70.1341 134.189C71.5524 136.346 72.3908 138.75 74.3075 140.442C74.4557 140.573 74.6994 140.162 74.7255 140.179C75.3238 140.525 74.0774 140.991 74.1243 141.624C74.7403 140.921 74.8112 141.238 75.2298 141.5C75.4299 141.622 75.5885 141.274 75.6292 141.262C76.2438 141.091 75.9363 141.768 75.8847 141.916C75.6925 142.462 76.2991 142.158 76.1797 142.525C76.0666 142.894 75.4492 143.055 75.8109 143.356C76.1252 143.185 76.4314 142.302 76.7861 142.417C78.0833 142.847 79.6669 144.758 80.5675 145.378C81.4402 145.998 81.7751 146.119 82.2552 146.543C83.1266 147.309 83.0963 146.54 83.859 146.647C84.6294 146.76 83.5131 147.948 83.4266 148.295C83.3371 148.639 83.6115 148.393 83.6221 148.619C83.6318 148.844 83.2819 148.905 83.4952 149.116C83.5956 149.215 83.8738 149.242 84.1702 149.219C84.4978 149.196 84.8389 149.104 84.9816 148.972C85.56 148.435 85.6611 147.57 86.1736 148.201C86.203 148.238 85.8667 148.525 85.9902 148.647C86.9787 149.607 88.1892 150.304 89.2516 151.176C89.397 151.297 89.0365 151.634 89.1191 151.709C89.9931 152.49 89.9895 151.606 90.9216 151.096C90.286 152.075 90.2778 152.868 91.0595 153.244C91.5332 153.47 91.6575 152.969 92.1128 152.784C92.2494 152.728 92.4333 153.192 92.5935 153.001C93.1067 152.375 93.1478 151.446 93.7966 152.102C93.8251 152.132 93.547 152.477 93.6582 152.552C94.3759 153.035 94.7783 152.32 95.6448 152.542C96.3175 152.714 97.3375 153.577 98.0737 153.834C97.7313 155.097 98.6116 154.992 99.0141 154.133C99.3679 154.225 99.8341 154.195 99.865 154.224C99.9503 154.21 100.034 154.199 100.118 154.192C100.269 154.177 100.324 154.562 100.356 154.593C100.914 155.055 100.729 154.154 100.778 154.085C101.453 153.299 102.554 152.968 102.697 151.647C102.7 151.6 101.995 151.03 102.706 151.158C102.756 151.164 102.887 151.713 103.215 151.275C103.54 150.843 104.506 150.18 104.525 149.292C104.537 149.068 104.118 148.312 104.811 148.244C104.903 148.238 105.104 148.412 105.266 148.418C105.783 148.432 105.042 147.88 105.864 147.996C106.677 148.127 107.476 147.874 107.376 146.913C107.376 146.88 106.82 146.379 106.945 146.165C107.149 145.817 107.542 145.392 107.733 145.014C107.825 144.832 107.365 144.74 107.374 144.704C107.767 143.4 108.559 142.739 109.375 141.534C109.519 141.324 109.331 140.346 109.989 140.129C110.717 139.877 112.427 141.391 112.544 140.012C112.594 139.454 110.399 137.584 112.122 137.417C112.305 136.791 112.583 136.271 112.91 135.733C113.517 134.738 114.133 133.668 114.069 132.399C114.066 132.306 113.35 131.902 113.392 131.725C113.455 131.461 113.839 131.361 113.889 131.163C114.106 130.326 113.816 129.536 113.839 128.73C113.844 128.421 114.228 128.513 114.228 128.136C114.225 127.758 113.709 127.554 113.898 127.032C114.041 126.639 115.007 126.13 115.061 125.608C114.061 125.715 114.037 125.368 113.698 124.788C113.633 124.677 113.301 124.845 113.252 124.794C113.045 124.587 113.309 124.342 113.091 124.143C113.039 124.094 112.697 124.126 112.635 124.087C112.09 123.753 112.821 123.045 112.955 122.941C112.962 122.934 112.97 122.928 112.977 122.921L112.993 123.03C113.36 122.542 112.899 122.467 113.018 122.129C113.139 121.784 113.494 122.165 113.525 121.79C113.589 121.01 113.292 120.101 113.092 119.369C113.009 119.077 112.629 119.407 112.607 119.368C112.323 118.816 112.577 118.048 111.602 118.051C113.649 116.811 111.273 117.772 111.344 116.843C111.35 116.772 112.287 116.151 112.572 116.35C112.858 116.555 112.715 117.1 113.091 117.375C113.181 117.435 114.351 117.603 114.435 117.658C115.095 118.071 113.522 118.646 113.444 118.701C112.599 119.306 113.85 119.58 113.971 119.724C114.519 120.36 114.452 121.041 114.852 121.586C115.112 121.944 116.182 121.723 116.227 122.043C116.236 122.108 116.239 122.173 116.238 122.236C116.26 122.35 116.318 122.683 116.316 122.799C116.098 123.53 114.887 124.066 116.229 124.813C116.535 124.989 117.692 124.617 116.858 125.507C116.806 125.565 116.025 126.245 116.603 126.534C116.676 126.571 117.021 126.532 117.057 126.587C117.287 126.964 117.036 127.257 117.201 127.694C117.366 128.132 117.591 128.687 117.474 129.234C117.406 129.567 116.746 129.969 116.58 130.11C116.106 130.51 116.811 131.033 116.229 131.245C115.645 131.436 114.867 130.863 114.429 131.441C115.321 131.591 116.23 131.783 117.123 131.964C116.844 133.604 116.065 135.082 115.4 136.533C115.318 136.715 115.845 136.744 115.764 136.949C115.735 137.022 115.703 137.093 115.668 137.162C115.36 137.781 114.849 138.159 114.629 138.861C114.449 139.445 114.61 140.257 114.437 140.876C113.349 140.73 113.227 141.735 112.84 142.279C112.701 142.479 112.463 142.338 112.305 142.447C111.719 142.859 112.668 143.012 112.717 143.231C112.922 144.174 111.051 143.288 110.694 144.092C110.673 144.137 111.392 145.151 111.418 145.249C111.589 145.893 111.04 145.143 110.822 145.388C110.424 145.833 110.01 146.06 109.985 146.806C109.985 147.013 110.365 147.771 109.72 147.853C109.636 147.865 109.326 147.671 109.289 147.696C108.627 148.187 109.636 148.727 109.776 149.29C109.915 149.853 108.905 150.056 108.64 150.064C107.957 150.085 108.547 149.709 108.507 149.662C108.009 149.135 107.882 149.62 107.659 149.902C106.648 149.411 106.461 149.885 107.424 150.212C107.529 150.247 107.577 149.945 107.659 149.902C108.466 150.722 108.305 151.301 107.099 151.329C106.528 151.348 106.192 150.818 105.909 151.692C105.776 152.088 106.523 152.351 106.5 152.787C106.446 153.777 105.198 154.339 104.613 155.171C104.392 155.479 104.957 155.485 104.806 155.714C104.39 156.33 103.666 156.573 103.05 157.175C102.991 157.231 103.402 157.495 103.168 157.652C102.56 158.056 101.882 158.337 101.248 158.503C99.641 158.886 99.2135 158.62 98.5763 158.543C97.9964 158.426 97.4983 158.286 96.9837 158.157C96.2385 157.976 94.9389 157.819 94.2717 157.523C93.0987 157.018 91.973 155.845 90.9752 155.564C90.3167 155.375 90.2729 155.841 89.8789 155.991C89.1149 156.282 88.6835 154.901 88.6399 154.696C88.6398 154.691 89.203 154.853 89.0283 154.513C89.0794 154.009 88.647 154.698 88.6399 154.696C88.6094 154.566 87.6354 153.956 87.3946 153.922C87.2627 153.905 87.1286 154.309 87.0631 154.293C85.5295 153.908 84.1161 153.228 82.8872 152.254C82.8681 152.233 83.1467 151.852 83.0991 151.807C82.9854 151.696 82.8675 151.609 82.7459 151.541C82.2097 151.243 81.5881 151.387 80.9468 151.336C80.174 151.275 79.7389 150.888 79.7798 149.975C79.2584 149.785 78.7524 149.065 78.4713 148.635C78.1914 148.206 77.6462 148.941 77.6009 148.934C76.1808 148.711 75.805 147.827 74.7348 146.906C74.2234 146.469 73.1071 145.704 72.5018 145.271C72.018 144.932 71.9117 144.529 71.444 144.252C71.3801 144.213 71.1416 144.551 71.1149 144.546C70.3403 144.451 71.2598 143.967 71.3016 143.755C71.4679 142.992 71.5374 142.567 70.8261 142.223C70.6611 142.142 69.251 142.702 68.9751 142.501C68.6217 142.241 69.1241 142.044 68.7559 141.787C68.7248 141.764 68.4827 141.97 68.3252 141.749C67.5988 140.736 66.9728 139.551 66.2544 138.53C66.1569 138.389 65.8605 138.851 65.7118 138.65C65.0201 137.715 64.3607 136.607 64.0125 135.541C63.9253 135.273 64.3166 135.246 64.3769 135.142C64.7374 134.504 63.6987 134.534 63.6389 134.463C63.5025 134.31 63.3789 134.153 63.2657 133.992C62.3029 132.651 62.2012 131.151 61.0414 129.768C60.9702 129.687 59.7095 129.429 60.2778 128.703C60.315 128.653 60.9034 127.923 60.2304 127.918C60.1883 127.917 59.9035 128.329 59.7559 127.956C59.6079 127.583 59.0439 127.154 59.2213 126.438C59.2767 126.212 59.8522 125.452 59.0036 125.304C58.9467 125.299 57.1923 125.281 58.0192 124.538C58.1556 124.416 59.1916 123.954 58.3921 123.654C58.2379 123.597 58.1079 123.905 57.8261 123.692C57.3932 123.367 57.3841 122.656 56.6693 122.328C56.5433 122.272 55.6549 122.194 56.0314 121.616C56.0906 121.526 56.4795 121.464 56.438 121.273C56.2458 120.371 55.6255 119.594 55.5087 118.63C55.4669 118.288 56.0971 118.21 56.1205 117.833C56.1431 117.455 56.0403 116.761 55.6514 116.519C55.262 116.277 54.4865 116.994 54.2216 116.499C53.0752 114.314 52.8846 111.737 52.6893 108.94C52.6652 108.519 52.3426 108.903 52.293 108.269C52.243 107.548 52.1925 106.64 52.2725 105.604C52.3443 104.4 52.3267 102.808 52.8121 101.787C53.3688 100.604 53.8694 102.062 54.0808 101.154C54.1805 100.71 53.0265 100.274 52.9864 100.168C52.5804 99.1224 53.0459 98.3346 52.8766 97.2843C52.8421 97.062 52.3846 97.286 52.3606 97.0948C52.2758 96.4402 52.4911 95.7183 52.5061 94.9911C52.5133 94.6662 52.1584 94.6905 52.2176 94.3734C52.3647 93.6033 52.6268 92.8501 53.2615 91.9655C53.3183 91.892 53.5379 92.6068 53.7974 91.8961C53.9981 91.3826 54.3392 90.782 54.8715 90.1362C55.4942 89.4252 55.7874 89.1995 55.9825 88.7187C56.0718 88.4828 55.5115 87.9077 56.24 87.9575C56.3912 87.9685 56.9951 88.7301 56.7764 87.7628C56.7492 87.5937 56.5406 86.1946 57.3509 86.3856C57.567 86.4337 58.3403 86.7603 58.4151 86.4941C58.4229 86.4561 58.0144 86.2645 58.1204 86.0854C58.4965 85.4621 59.0172 84.9311 59.372 84.2858C59.4649 84.1142 58.9395 84.052 59.0876 83.806C59.4958 83.1278 60.1707 82.4301 60.7295 81.8863C60.9349 81.6883 61.1238 82.0601 61.1682 82.0671C61.8969 82.1709 61.2863 81.5003 61.3052 81.3823C61.3591 81.0917 61.4817 80.8911 61.6335 80.708C61.8925 80.3894 62.2065 80.1464 62.3872 79.7504C62.4688 79.5736 62.0421 79.4559 62.0318 79.4033C61.9446 78.869 62.4128 79.5327 62.6225 79.3658C63.2092 78.9043 63.6222 78.216 63.9858 77.5735C64.118 77.3388 63.5444 77.3188 63.6676 77.1114C64.4036 75.8621 65.3095 74.6053 66.5091 73.4996C66.7352 73.2944 66.9138 73.6761 67.0198 73.6802C67.7539 73.7153 67.5397 72.6986 67.5974 72.5167C67.8186 71.7297 68.2753 71.727 68.7759 71.1707C69.3582 70.5467 70.1282 69.8268 71.4122 69.2076C72.6642 68.5706 74.7063 68.2541 76.3329 68.6917C78.0482 69.1225 79.5699 69.7408 80.8413 70.2937C83.8911 71.6438 85.9643 73.0381 88.7193 74.4594C88.8933 74.5511 88.9651 74.0175 89.1205 74.0925C91.1224 75.1002 92.855 76.3911 94.9179 77.9093C95.0877 78.0386 95.1568 77.475 95.4443 77.6762C95.7371 77.8824 96.0523 78.1491 96.3562 78.4654C96.5605 78.6858 96.7459 78.9266 96.8857 79.1686C97.0172 79.3942 96.4919 79.4564 96.6322 79.6793C96.9586 80.1987 97.4105 80.6614 97.9253 81.0242C98.1456 81.1782 98.1724 80.5493 98.4326 80.7764C100.202 82.3089 102.174 83.8501 103.689 86.1916C103.793 86.3524 103.219 87.1684 103.628 87.3082C103.842 87.1352 104.068 86.9063 104.283 86.7086C105.382 87.719 106.404 88.8497 107.334 90.0455C109.126 92.2632 110.268 95.0571 111.022 97.4161C111.075 97.5771 111.475 97.1295 111.579 97.4446C112.188 99.2944 112.771 100.993 112.675 102.914C112.665 103.1 111.748 103.207 111.998 103.697C112.046 103.792 112.328 104.53 112.565 104.7C112.6 104.722 112.99 104.489 113.055 104.745C113.419 106.2 113.601 107.748 113.585 109.235C113.582 109.478 113.091 109.305 113.084 109.474C113.04 110.679 113.583 111.91 113.339 113.085C113.174 113.883 112.351 113.709 111.64 114.216C111.539 114.286 111.588 114.75 111.144 114.839C110.028 115.06 108.764 115.014 107.577 115.276C107.322 115.331 107.688 115.909 107.011 115.632C106.966 115.612 106.696 115.198 106.468 115.122C106.311 115.068 105.876 115.269 105.666 115.144C105.457 115.019 105.814 114.797 105.558 114.582C105.298 114.363 104.797 114.546 104.66 114.052ZM77.2331 146.676C77.1295 146.07 76.1488 147.347 76.7648 147.306C76.7956 147.302 77.2393 146.706 77.2331 146.676ZM114.865 134.602C113.997 134.899 114.783 135.684 115.462 135.491C116.147 135.27 115.132 134.494 114.865 134.602ZM115.243 128.503C114.706 129.171 116.988 129.267 116.505 128.512C116.477 128.467 115.274 128.463 115.243 128.503ZM111.149 112.426C111.129 112.435 111.158 112.763 111.18 112.768C111.712 112.865 111.653 112.207 111.149 112.426ZM114.133 123.033C113.832 123.24 114.232 123.76 114.596 123.495C114.886 123.287 114.506 122.79 114.133 123.033ZM65.0935 128.51C65.1114 128.493 65.0161 128.274 64.8995 128.343C64.5244 128.567 64.7918 128.798 65.0935 128.51ZM110.276 114.223C110.685 114.694 110.758 115.341 110.633 115.8C110.524 116.137 110.275 116.336 110.065 116.359C109.902 116.343 109.718 116.225 109.527 115.967C109.362 115.745 110.368 115.965 110.245 115.598C110.019 114.927 108.879 115.456 108.875 114.549C108.875 114.384 110.227 114.16 110.279 114.223C110.278 114.223 110.277 114.223 110.276 114.223ZM78.1329 144.949C78.1378 144.927 77.8809 144.721 77.8627 144.733C77.4184 145.045 77.9446 145.466 78.1329 144.949ZM59.8971 115.67C59.9312 115.637 59.7023 114.922 59.6556 114.912C58.7308 114.832 59.2013 116.308 59.8971 115.67ZM98.0769 153.871C98.53 153.454 98.8695 153.46 99.0127 154.132C98.714 154.053 98.3962 153.982 98.0769 153.871Z" fill="#C2A8FF"/>
<path d="M154.041 115.765C153.205 115.371 152.303 114.769 151.496 114.123C150.552 113.432 149.749 112.528 149.223 111.679C148.796 110.964 149.27 111.148 149.031 110.661C148.595 109.715 148.143 108.935 148.025 108.077C147.991 107.799 148.518 108 148.478 107.72C148.276 106.209 148.066 105.034 148.086 103.852C148.13 102.135 148.256 100.655 148.215 99.4263C148.054 95.912 147.673 92.3526 147.401 88.6389C147.292 87.0697 147.418 85.2105 147.342 83.3596C147.334 83.1529 147.32 82.9566 147.299 82.7567C147.277 82.5486 146.881 82.6748 146.848 82.6353C146.345 82.0146 147.146 82.2204 147.251 81.8122C147.665 80.199 147.708 78.4051 147.583 76.8406C147.529 76.1742 146.729 76.827 147.184 76.1642C147.215 76.1185 147.632 76.2957 147.681 76.1147C147.79 75.7038 147.736 74.917 147.78 74.5974C147.866 73.9818 147.865 73.8796 147.893 73.2959C147.918 72.82 148.018 72.2938 148.085 71.7649C148.13 71.3941 148.163 71.03 148.149 70.672C148.141 70.4837 147.692 70.7017 147.641 70.3968C147.588 70.0863 147.694 69.2902 147.824 69.0312C147.953 68.7709 148.278 68.9215 148.36 68.8819C149.05 68.5689 148.261 67.5507 148.257 67.4263C148.171 65.2063 149.068 63.4506 149.586 61.5058C149.979 60.0225 150.307 58.4204 150.783 57.0755C151.121 56.1222 151.503 55.295 151.86 54.4539C152.114 53.8506 152.364 53.2526 152.602 52.6043C152.665 52.4356 152.115 52.4457 152.191 52.238C153.006 50.0338 154.097 47.9108 155.63 46.0682C155.783 45.8863 156.003 46.3773 156.178 46.211C157.249 45.1453 159.229 43.978 158.376 42.0438C159.103 41.3209 160.085 40.4691 161.083 40.182C161.723 40.005 161.539 40.7478 162.012 40.1465C162.123 40.0134 161.696 39.7917 161.893 39.6113C162.388 39.1651 163.03 38.8062 163.755 38.5086C164.141 38.3471 164.504 38.1831 164.843 37.9705C165.016 37.862 164.841 37.5201 164.872 37.4367C165.144 36.7537 166.189 37.3858 166.367 37.4031C167.76 37.5044 168.624 37.0874 169.852 36.8775C170.138 36.8309 169.711 36.3853 169.988 36.3226C171.423 36.0052 173.014 35.9388 174.465 36.2365C174.786 36.3043 174.467 36.7243 174.617 36.7792C175.26 37.0215 175.487 36.217 176.116 36.4727C176.247 36.5265 176.121 36.8862 176.141 36.9301C176.427 37.6166 176.884 36.7708 176.992 36.7689C178.292 36.7233 178.831 37.8466 179.964 38.0494C180.102 38.0742 179.941 37.5297 180.322 37.6288C182.877 38.303 185.284 39.5318 187.359 40.9144C187.68 41.1285 187.283 41.3341 187.286 41.3839C187.348 42.1671 187.976 41.4518 188.101 41.4729C189.09 41.6666 189.588 42.7577 190.66 42.0648C191.742 42.712 192.828 43.2652 193.955 43.8124C196.906 45.1507 199.454 47.7694 200.366 50.685C200.385 50.7372 199.95 50.8893 199.988 50.9915C200.425 52.2232 200.898 51.6586 202.067 52.0074C202.364 52.1041 201.752 53.1628 201.709 53.2468C201.555 53.5582 200.862 53.6758 200.845 53.7617C200.726 54.4596 202.66 53.3703 203.013 54.076C203.02 54.0992 202.61 54.1903 202.602 54.266C202.577 54.5015 202.811 54.6096 202.773 54.8511C202.678 55.3974 201.781 56.0154 202.641 56.3561C202.751 56.3976 203.831 55.7403 204.071 56.3801C204.171 56.6451 204.706 57.7168 204.78 58.0598C204.853 58.4024 204.387 58.3665 204.382 58.3958C204.287 59.4399 203.943 59.2346 203.423 59.9852C202.908 60.7372 204.552 59.8066 204.823 59.8827C205.095 59.964 204.982 60.7454 204.919 60.9657C204.907 61.0065 204.885 61.0371 204.858 61.0609C204.812 61.1024 204.749 61.1234 204.69 61.1428C204.633 61.1617 204.579 61.1792 204.547 61.2125C204.531 61.2299 204.52 61.2517 204.518 61.2802C204.425 62.401 205.546 61.2611 205.958 61.4338C206.931 61.8464 205.897 62.978 206.027 63.6665C206.062 63.855 206.301 63.5943 206.391 63.7394C206.744 64.3304 206.474 64.8519 207.096 65.4495C207.198 65.5437 208.194 65.895 207.717 66.4681C207.648 66.5475 207.269 66.4914 207.273 66.7865C207.281 67.2323 207.396 67.9901 207.609 68.4127C207.766 68.725 208.243 68.2179 208.161 68.6808C208.122 68.8846 207.721 68.6093 207.675 68.9817C207.631 69.3531 207.802 70.2319 207.864 70.5694C207.927 70.9043 208.329 70.6553 208.363 70.6778C208.555 70.8187 208.855 71.4468 208.861 71.5051C209.027 72.6024 209.042 73.654 209.087 74.6545C209.189 76.5203 208.936 78.2601 208.951 80.0523C208.952 80.2786 209.422 80.1657 209.426 80.2006C209.552 80.9927 208.389 80.2802 207.933 80.7674C208.868 80.7804 208.672 81.0787 208.713 81.6249C208.733 81.8888 209.108 81.7898 209.142 81.8175C209.641 82.2673 208.904 82.4505 208.752 82.4994C208.192 82.6836 208.779 83.0396 208.403 83.1624C208.029 83.2843 207.564 82.8235 207.501 83.3283C207.812 83.5163 208.728 83.2604 208.813 83.666C209.022 84.6583 208.634 86.0934 208.267 87.2847C208.062 87.96 207.849 88.5562 207.743 88.9681C207.442 90.1244 207.409 90.5118 207.132 91.1579C206.621 92.3172 207.358 92.0301 207.445 92.8627C207.525 93.6975 206.09 92.9068 205.731 92.924C205.373 92.9376 205.681 93.1443 205.463 93.2231C205.246 93.3008 205.101 92.9597 204.948 93.2427C204.796 93.5226 205.14 94.5163 205.449 94.7275C206.108 95.1714 206.983 95.0214 206.473 95.7495C206.443 95.7909 206.088 95.5203 205.994 95.6849C205.26 96.9988 204.786 98.4375 204.08 99.746C203.982 99.9245 203.591 99.6154 203.529 99.718C202.883 100.791 203.762 100.609 204.396 101.505C203.962 101.306 203.574 101.211 203.247 101.231C202.771 101.265 202.438 101.5 202.249 101.994C202.057 102.483 202.557 102.59 202.747 103.058C202.803 103.204 202.323 103.419 202.508 103.582C203.103 104.132 204.075 104.171 203.28 104.939C203.244 104.971 202.938 104.642 202.841 104.765C202.205 105.539 202.841 106.072 202.239 107.057C201.765 107.836 200.313 108.636 199.532 109.172C198.694 108.177 198.249 108.932 198.497 109.866C197.989 110.205 197.487 110.619 196.947 110.839C196.762 110.915 196.654 110.531 196.611 110.512C195.938 110.197 196.224 111.062 196.141 111.161C195.448 111.94 194.575 112.183 193.982 112.836C193.778 113.059 193.605 113.325 193.486 113.659C193.469 113.708 194.041 114.412 193.344 114.165C193.296 114.148 193.312 113.559 192.861 113.952C192.411 114.341 191.268 114.83 190.993 115.74C190.926 115.959 191.104 116.847 190.39 116.761C190.294 116.748 190.15 116.523 189.989 116.482C189.476 116.35 190.028 117.097 189.256 116.768C188.742 116.543 188.198 116.474 187.832 116.691C187.663 116.787 187.53 116.952 187.403 117.232C187.396 117.254 187.582 117.988 187.314 118.1C186.901 118.275 186.266 118.317 185.831 118.417C185.623 118.466 185.852 118.877 185.817 118.893C184.367 119.443 183.267 119.07 181.716 118.959C181.431 118.937 180.633 119.577 180.067 119.112C179.441 118.607 179.985 116.361 178.568 116.964C177.981 117.21 177.527 119.997 176.399 118.768C176.387 118.755 176.376 118.743 176.364 118.73C174.466 119.328 172.562 118.875 170.707 119.697C170.625 119.733 170.473 120.552 170.267 120.574C169.96 120.606 169.733 120.271 169.515 120.281C168.588 120.315 167.8 120.755 166.9 120.798C166.555 120.811 166.642 120.426 166.247 120.43C165.867 120.418 165.561 120.961 165.033 120.586C165.033 120.585 165.033 120.585 165.033 120.585C164.667 120.273 164.776 119.199 164.473 118.875C163.94 119.724 163.638 119.531 162.953 119.334C162.819 119.294 162.713 119.655 162.637 119.65C162.324 119.633 162.328 119.258 162.02 119.25C161.945 119.247 161.716 119.503 161.641 119.514C160.985 119.613 161.02 118.58 161.037 118.408C161.079 117.74 160.626 117.919 160.532 117.543C160.44 117.169 160.966 117.336 160.78 116.979C160.394 116.241 159.623 115.552 159.019 114.991C158.776 114.769 158.64 115.261 158.598 115.237C158.032 114.887 157.783 114.072 156.95 114.597C156.972 114.549 156.994 114.502 157.014 114.458C156.995 114.445 156.95 114.398 156.935 114.38C157.643 113.57 157.591 113.645 157.251 113.629C156.931 113.642 156.335 113.532 156.477 112.981C156.501 112.882 157.596 112.681 157.793 112.858C157.984 113.012 157.757 113.419 158.097 113.459C158.109 113.459 158.149 113.449 158.204 113.428L157.944 113.172C158.267 113.057 159.056 112.743 159.146 112.748C159.98 112.781 158.963 114.117 158.927 114.205C158.557 115.185 159.801 114.797 159.992 114.871C160.842 115.181 161.167 115.841 161.817 116.126C162.241 116.314 163.037 115.565 163.245 115.815C163.908 116.606 163.225 118.051 164.722 117.526C165.027 117.394 165.576 116.34 165.475 117.381C165.449 117.44 165.41 118.392 165.77 117.94C165.812 117.882 165.929 117.554 165.956 117.533C165.974 117.519 165.99 117.509 166.003 117.502C165.76 117.383 165.738 117.429 165.744 117.452C165.756 117.48 165.828 117.506 165.935 117.444C166.184 117.306 166.581 117.071 167.026 117.135C167.289 117.174 167.733 117.767 167.888 117.905C168.331 118.303 168.636 117.497 168.957 118.008C169.287 118.519 168.941 119.429 169.638 119.683C169.52 118.786 169.429 117.861 169.323 116.957C170.722 116.765 172.183 116.82 173.626 116.569C173.805 116.536 173.55 116.082 173.741 116.036C174.513 115.849 175.246 116.065 176.041 115.874C176.082 115.864 176.123 115.854 176.164 115.843C176.864 115.649 177.602 115.07 178.329 114.896C178.841 115.898 179.869 115.501 180.609 115.572C180.866 115.596 180.859 115.873 181.043 115.957C181.733 116.267 181.383 115.364 181.562 115.214C182.312 114.571 182.462 116.641 183.352 116.532C183.406 116.527 183.854 115.382 183.905 115.306C184.287 114.812 184.021 115.68 184.306 115.728C184.807 115.811 185.222 116.005 185.583 115.563C185.707 115.426 185.677 114.707 186.04 115.115C186.092 115.167 186.249 115.496 186.278 115.505C186.677 115.596 186.389 115.037 186.123 114.645C186.061 114.507 186.01 114.376 185.997 114.265C185.93 113.811 186.902 113.953 187.161 114.012C187.82 114.179 187.161 114.374 187.193 114.421C187.534 115.055 187.768 114.654 188.065 114.424C188.914 115.163 189.231 114.729 188.372 114.183C188.277 114.124 188.153 114.407 188.065 114.424C187.489 113.433 187.776 112.918 188.987 113.135C189.554 113.238 189.753 113.841 190.265 113.012C190.502 112.635 189.83 112.215 189.959 111.786C190.184 111.044 191.033 110.675 191.716 110.251C191.956 110.098 192.176 109.945 192.352 109.769C192.613 109.509 192.07 109.398 192.243 109.208C192.705 108.704 193.348 108.639 193.75 108.162C193.787 108.118 193.424 107.83 193.576 107.718C194.713 106.873 195.756 106.522 196.654 105.767C197.097 105.404 197.584 104.568 197.944 104.188C198.581 103.559 199.744 102.843 199.952 101.957C200.082 101.4 199.621 101.34 199.423 101.019C199.201 100.662 199.506 100.394 199.848 100.177C200.119 99.967 200.405 99.8295 200.488 99.7951C200.495 99.7911 200.418 100.392 200.73 100.155C201.237 100.119 200.488 99.8022 200.488 99.7951C200.616 99.7371 201.064 98.6391 201.054 98.3857C201.048 98.2501 200.626 98.1929 200.63 98.1248C200.743 96.5017 201.114 94.9659 201.744 93.5291C201.76 93.5051 202.199 93.6779 202.231 93.6198C202.686 92.8117 202.29 92.0977 202.147 91.3139C202.003 90.5285 202.244 90.0227 203.126 89.7924C203.15 89.2445 203.658 88.5663 203.954 88.1649C204.251 87.7635 203.36 87.5386 203.349 87.498C203.244 87.1134 203.221 86.7951 203.249 86.4979C203.326 85.7346 203.701 85.1312 203.899 84.2114C204.035 83.5896 204.08 82.3429 204.059 81.6807C204.042 81.1556 204.289 80.8706 204.199 80.3913C204.186 80.3268 203.775 80.3511 203.761 80.3305C203.324 79.7764 204.292 80.1106 204.479 80.0194C205.155 79.6895 205.521 79.4582 205.25 78.7814C205.188 78.6199 203.77 78.1462 203.687 77.9038C203.583 77.5781 204.097 77.699 203.968 77.3596C203.957 77.3312 203.641 77.3417 203.649 77.1389C203.667 76.5882 203.699 76.0285 203.669 75.4954C203.613 74.8913 203.566 74.3231 203.488 73.7995C203.464 73.6273 202.992 73.9079 202.949 73.6627C202.751 72.5076 202.631 71.4238 202.682 70.4414C202.697 70.2006 203.07 70.2777 203.163 70.2077C203.722 69.7656 202.726 69.5148 202.693 69.4524C201.874 67.8854 202.238 66.3669 201.141 64.7946C201.08 64.7066 199.874 64.4169 200.488 63.7447C200.521 63.7091 200.938 63.2599 200.746 63.0668C200.696 63.0138 200.612 62.9766 200.478 62.9655C200.435 62.9623 200.143 63.3788 199.996 62.9717C199.851 62.5699 199.284 62.0787 199.471 61.3387C199.53 61.1053 200.119 60.3401 199.264 60.1438C199.207 60.1355 197.441 60.0426 198.279 59.3107C198.418 59.1914 199.462 58.7444 198.66 58.4172C198.505 58.3547 198.373 58.6656 198.091 58.4421C197.661 58.1102 197.645 57.3825 196.933 57.0847C196.806 57.0284 195.927 56.9923 196.292 56.4221C196.349 56.3328 196.733 56.2512 196.688 56.0706C196.475 55.2086 195.842 54.5697 195.658 53.7551C195.59 53.4659 196.189 53.2708 196.171 52.9307C196.152 52.5874 195.952 52.0028 195.549 51.9261C195.153 51.8582 194.545 52.6764 194.245 52.4059C193.068 51.3853 192.533 50.362 191.201 49.5423C191.01 49.4346 190.82 49.3304 190.631 49.2306C190.32 49.0673 190.428 49.507 189.965 49.2909C188.23 48.4824 185.172 47.3651 184.043 46.0351C183.142 44.9698 184.78 45.2196 183.993 44.5956C183.602 44.2911 182.692 45.1299 182.571 45.1164C181.44 45.0182 180.944 44.2693 180.017 44.083C179.827 44.0457 179.841 44.5418 179.682 44.5065C179.147 44.3922 178.68 44.0149 178.193 43.9036C177.977 43.856 177.914 44.2037 177.729 44.1211C177.289 43.9299 176.935 43.6861 176.563 43.2679C176.527 43.2295 176.899 42.8631 176.558 42.7729C176.014 42.6309 175.36 42.1989 174.7 42.4816C174.502 42.5677 174.451 43.3652 174.095 42.7938C174.021 42.6762 174.149 41.7111 173.667 42.5365C173.569 42.6703 172.881 43.8045 172.47 43.1174C172.363 42.9345 172.019 42.1734 171.8 42.3248C171.772 42.3482 171.945 42.7614 171.764 42.8259C171.126 43.047 170.417 43.1337 169.75 43.4342C169.572 43.5155 169.954 43.8811 169.689 43.9886C168.971 44.282 167.979 44.4685 167.156 44.6098C166.853 44.6607 166.927 44.2429 166.893 44.2123C166.341 43.7135 166.435 44.6206 166.342 44.7098C166.28 44.7673 166.216 44.817 166.152 44.8604C166.138 45.0263 165.743 44.8641 165.493 45.1646C165.416 45.2564 165.731 45.5484 165.734 45.5921C165.769 46.0236 165.455 45.3133 165.277 45.3455C164.762 45.4466 164.321 45.9049 163.962 46.3728C163.829 46.5468 164.353 46.6981 164.233 46.8484C163.54 47.7348 162.75 48.736 161.862 49.6522C161.693 49.8267 161.452 49.5019 161.353 49.4989C160.658 49.479 161.101 50.346 161.113 50.4825C161.162 51.1176 160.774 51.137 160.608 51.5858C160.02 53.1944 159.173 55.0227 158.471 56.7472C158.196 57.4315 157.927 58.079 157.688 58.6726C156.509 61.6022 155.505 63.6959 155.085 66.4709C155.058 66.6464 155.582 66.5598 155.566 66.711C155.36 68.4966 155.016 70.2494 155.014 72.1047C155.013 72.2707 155.014 72.4355 155.018 72.6017C155.021 72.7765 155.506 72.5471 155.527 72.8278C155.573 73.4039 155.519 74.1257 155.35 74.6998C155.268 74.9799 154.873 74.5878 154.799 74.8709C154.627 75.5305 154.576 76.2437 154.64 76.9312C154.668 77.2229 155.161 76.7919 155.16 77.1704C155.165 79.2048 155.228 81.2303 154.956 83.3099C154.882 83.7108 154.805 84.2019 154.707 84.7142C154.675 84.8838 153.702 85.0999 153.921 85.4506C154.195 85.4555 154.516 85.4273 154.808 85.4149C155.279 88.993 155.5 92.8545 155.91 96.7588C155.928 96.9239 156.412 96.5767 156.449 96.8967C156.51 97.4314 156.582 97.9634 156.645 98.4969C156.829 100.14 156.794 101.51 156.48 102.749C156.437 102.919 155.513 102.881 155.679 103.365C155.707 103.456 155.881 104.149 156.099 104.282C156.131 104.3 156.546 104.144 156.58 104.339C156.675 104.898 156.766 105.361 156.817 105.648C156.873 105.944 156.844 106.033 156.782 106.161C156.767 106.207 156.427 106.513 156.424 106.558C156.425 106.625 156.451 106.679 156.498 106.725C157.267 107.306 158.182 107.696 158.773 108.424C159.269 109.032 158.644 109.582 158.622 110.458C158.619 110.583 159.028 110.822 158.842 111.233C158.376 112.272 157.576 113.258 157.102 114.378C157.002 114.622 157.773 114.7 157.108 115.069C157.061 115.093 156.485 115.028 156.267 115.151C156.113 115.236 156.043 115.721 155.784 115.796C155.524 115.869 155.526 115.431 155.145 115.47C154.761 115.509 154.618 116.033 154.041 115.765ZM205.253 86.292C205.756 85.9232 204.176 85.6104 204.483 86.1415C204.499 86.1676 205.228 86.3113 205.253 86.292ZM172.365 118.027C173.049 118.638 173.29 117.548 172.797 117.068C172.306 116.59 172.155 117.842 172.365 118.027ZM166.59 119.408C167.292 119.902 167.107 117.626 166.53 118.148C166.498 118.177 166.552 119.379 166.59 119.408ZM156.863 109.689C156.856 109.71 157.143 109.909 157.161 109.895C157.581 109.553 157.016 109.16 156.863 109.689ZM161.96 117.668C161.898 118.038 162.579 118.179 162.649 117.723C162.712 117.363 162.041 117.214 161.96 117.668ZM205.305 63.9765C205.325 63.9615 205.249 63.7158 205.125 63.7718C204.729 63.9542 204.974 64.2321 205.305 63.9765ZM157.539 110.178C157.119 111.402 155.217 112.471 155.648 110.564C155.74 110.25 156.126 111.363 156.359 110.977C156.773 110.343 155.768 109.574 156.589 109.058C156.734 108.977 157.56 110.114 157.541 110.181C157.54 110.18 157.54 110.179 157.539 110.178ZM207.201 86.3398C207.224 86.3349 207.298 85.9864 207.279 85.9749C206.804 85.7062 206.653 86.4064 207.201 86.3398ZM199.466 50.0883C199.496 50.0445 199.041 49.3149 198.987 49.3195C198.067 49.4591 198.945 50.8717 199.466 50.0883ZM199.498 109.155C199.516 109.816 199.145 110.185 198.499 109.865C198.841 109.649 199.163 109.399 199.498 109.155Z" fill="#C2A8FF"/>
<path d="M223.904 148.144C224.154 147.063 224.789 145.587 225.36 144.469C225.541 144.11 225.75 144.391 225.886 144.152C226.153 143.675 226.165 143.171 226.45 142.708C226.546 142.552 226.91 142.899 227.002 142.732C227.493 141.835 227.667 140.898 228.064 139.957C229.648 136.207 231.046 132.468 232.471 128.658C232.824 127.711 233.194 126.769 233.582 125.832C234.243 124.229 235.406 122.45 235.95 120.761C236.013 120.563 235.6 120.517 235.586 120.468C235.378 119.698 236.027 120.21 236.288 119.886C237.322 118.597 238.107 117.028 238.653 115.588C238.885 114.977 237.889 115.208 238.578 114.82C238.625 114.793 238.926 115.13 239.047 114.99C239.319 114.674 239.602 113.958 239.776 113.697C240.114 113.192 240.155 113.105 240.427 112.602C240.8 111.921 241.427 111.205 241.749 110.43C241.817 110.264 241.325 110.26 241.399 109.976C241.473 109.692 241.875 109.054 242.092 108.881C242.307 108.71 242.547 108.973 242.637 108.972C243.387 108.981 243.037 107.775 243.076 107.664C243.538 106.377 244.294 105.394 245.043 104.426C245.456 103.885 245.877 103.366 246.269 102.81C247.139 101.575 247.99 100.223 248.908 99.1566C250.004 97.8892 251.11 96.9926 252.163 95.7821C252.275 95.6545 251.767 95.4582 251.903 95.3014C251.935 95.2643 251.968 95.2272 252 95.1902C253.73 93.227 256.007 91.9537 258.278 91.3754C258.511 91.3166 258.399 91.8444 258.639 91.8122C260.12 91.5858 262.371 91.8575 262.682 89.7839C263.609 89.6224 264.713 89.4519 265.579 89.6587C265.983 89.7542 265.895 90.0844 266.03 90.1332C266.084 90.1517 266.172 90.1277 266.339 90.0327C266.475 89.9565 266.196 89.5813 266.409 89.4984C267.308 89.15 268.349 89.1121 269.245 88.7673C269.427 88.6962 269.325 88.326 269.37 88.2508C269.756 87.637 270.626 88.4631 270.792 88.5143C272.085 88.8835 272.968 88.6308 274.137 88.6073C274.409 88.6033 274.073 88.1001 274.337 88.0783C275.702 87.9742 277.148 88.0541 278.503 88.4252C278.805 88.5099 278.475 88.9121 278.615 88.9749C279.221 89.2505 279.48 88.4553 280.091 88.7445C280.218 88.8053 280.073 89.1576 280.089 89.2024C280.17 89.4227 280.269 89.4929 280.375 89.4866C280.597 89.4708 280.857 89.0847 280.924 89.0857C282.154 89.0915 282.623 90.2166 283.716 90.4328C283.849 90.4592 283.709 89.9146 284.076 90.0175C286.529 90.7065 288.885 91.9388 290.869 93.3478C291.178 93.5668 290.781 93.7646 290.782 93.8143C290.822 94.5969 291.448 93.8886 291.574 93.9138C292.545 94.1268 292.983 95.2183 294.061 94.5502C295.901 95.7371 297.85 96.6688 299.748 97.6697C301.925 98.7747 303.238 101.003 303.481 103.038C303.49 103.093 303.033 103.157 303.051 103.265C303.22 104.565 303.794 104.107 304.843 104.794C305.108 104.981 304.218 105.843 304.149 105.903C303.908 106.156 303.211 106.054 303.17 106.131C302.836 106.741 305.021 106.325 305.119 107.136C305.118 107.161 304.7 107.102 304.668 107.173C304.564 107.391 304.746 107.578 304.624 107.79C304.339 108.279 303.278 108.498 303.938 109.137C304.022 109.218 305.277 109.027 305.241 109.73C305.229 110.011 305.261 111.236 305.171 111.574C305.086 111.911 304.684 111.673 304.666 111.698C304.115 112.593 303.898 112.243 303.094 112.667C302.291 113.083 304.178 113.023 304.383 113.211C304.587 113.401 304.12 114.042 303.96 114.19C303.953 114.197 303.945 114.203 303.938 114.208C303.777 114.33 303.547 114.14 303.457 114.272C302.811 115.16 304.349 114.794 304.603 115.184C305.171 116.151 303.651 116.45 303.341 117.053C303.254 117.221 303.602 117.162 303.584 117.333C303.505 117.999 302.969 118.236 303.102 119.065C303.125 119.199 303.708 120.058 302.99 120.21C302.887 120.23 302.617 119.961 302.445 120.192C302.191 120.53 301.848 121.185 301.784 121.643C301.741 121.972 302.413 121.85 302.092 122.159C301.948 122.297 301.768 121.856 301.524 122.124C301.279 122.396 300.95 123.198 300.829 123.498C300.708 123.803 301.178 123.815 301.194 123.851C301.283 124.068 301.215 124.733 301.192 124.783C300.072 127.39 298.273 129.396 297.264 131.951C297.185 132.149 297.659 132.229 297.651 132.261C297.494 133.002 296.663 131.937 296.068 132.21C296.934 132.562 296.643 132.764 296.503 133.266C296.435 133.51 296.818 133.553 296.84 133.59C297.161 134.168 296.412 134.078 296.253 134.072C295.668 134.046 296.108 134.568 295.715 134.555C295.324 134.542 295.033 133.962 294.813 134.406C295.045 134.683 295.99 134.752 295.943 135.153C295.769 136.664 293.936 138.7 293.341 139.678C292.751 140.649 292.631 141.007 292.216 141.535C292.062 141.732 291.971 141.885 291.924 142.011C291.736 142.509 292.215 142.585 292.135 143.222C292.017 144.047 290.812 142.937 290.46 142.867C290.111 142.791 290.362 143.063 290.135 143.081C289.908 143.099 289.844 142.742 289.632 142.971C289.42 143.204 289.524 144.22 289.768 144.503C290.292 145.097 291.181 145.177 290.495 145.748C290.455 145.78 290.184 145.425 290.051 145.558C289.007 146.606 288.114 147.83 286.953 148.742C286.796 148.863 286.558 148.427 286.463 148.493C285.46 149.168 286.329 149.371 286.472 150.475C285.753 149.548 285.008 149.317 284.37 149.877C283.978 150.213 284.375 150.537 284.327 151.037C284.311 151.19 283.796 151.149 283.884 151.38C284.162 152.14 284.994 152.628 283.973 152.921C283.928 152.932 283.8 152.503 283.663 152.565C282.784 152.948 283.113 153.699 282.26 154.303C281.587 154.775 280.136 154.963 279.349 155.301C279.328 155.262 279.307 155.224 279.287 155.189C278.697 154.195 278.16 154.837 278.285 155.756C277.759 155.996 277.236 156.33 276.694 156.473C276.508 156.522 276.443 156.13 276.403 156.105C275.777 155.71 275.962 156.598 275.868 156.685C274.827 157.592 273.561 157.478 272.663 158.604C272.632 158.644 272.936 159.502 272.352 159.039C272.312 159.007 272.533 158.457 271.964 158.677C271.397 158.895 270.166 158.889 269.521 159.573C269.368 159.738 269.108 160.614 268.522 160.2C268.443 160.143 268.422 159.877 268.3 159.765C267.917 159.404 268.049 160.322 267.536 159.662C267.02 159 266.339 158.593 265.66 159.269C265.638 159.289 265.581 160.04 265.31 160.07C264.889 160.119 264.278 160.032 263.843 160.055C263.635 160.067 263.786 160.511 263.75 160.521C262.682 160.744 261.821 160.503 260.892 160.186C260.551 160.069 260.207 159.952 259.812 159.844C259.549 159.771 258.662 160.258 258.21 159.7C257.702 159.087 258.629 156.986 257.206 157.312C256.635 157.442 255.551 160.123 254.788 158.544C252.851 158.626 251.249 157.644 249.307 157.748C249.22 157.752 248.784 158.458 248.586 158.401C248.294 158.315 248.221 157.919 248.019 157.844C247.321 157.573 246.605 157.577 245.91 157.407C245.903 157.405 245.883 157.396 245.876 157.393C245.741 157.337 245.609 157.275 245.481 157.203C245.196 157.044 245.463 156.753 245.121 156.563C244.78 156.374 244.328 156.709 243.955 156.261C243.677 155.923 243.758 154.831 243.327 154.493C242.876 155.391 242.555 155.214 241.855 155.176C241.721 155.169 241.691 155.542 241.62 155.555C241.329 155.617 241.249 155.258 240.962 155.34C240.892 155.359 240.743 155.669 240.678 155.702C240.114 155.995 239.872 155.03 239.83 154.863C239.665 154.224 239.3 154.547 239.096 154.233C238.887 153.916 239.43 153.888 239.138 153.62C238.537 153.069 237.601 152.712 236.879 152.389C236.589 152.261 236.61 152.768 236.564 152.759C235.93 152.617 235.482 151.915 234.83 152.648C235.218 150.284 234.38 152.701 233.694 152.027C233.649 151.979 233.749 150.853 234.129 150.777C234.5 150.703 234.826 151.179 235.294 151.079C235.396 151.051 236.301 150.278 236.393 150.248C237.137 150.011 236.577 151.588 236.568 151.683C236.508 152.727 237.539 151.943 237.732 151.942C238.597 151.93 239.113 152.42 239.815 152.46C240.27 152.488 240.771 151.516 241.062 151.687C242.04 152.262 241.739 153.806 243.256 153.064C243.579 152.906 243.894 151.732 244.219 152.929C244.241 153.005 244.409 154.038 244.958 153.7C245.026 153.657 245.176 153.343 245.241 153.341C245.671 153.339 245.779 153.699 246.217 153.765C246.616 153.822 247.106 153.864 247.478 154.118L246.992 153.925C247.023 153.941 247.055 153.958 247.085 153.977C247.314 154.122 247.458 154.84 247.539 155.028C247.766 155.569 248.337 154.945 248.414 155.537C248.501 156.133 247.842 156.839 248.361 157.34C248.6 156.467 248.87 155.578 249.118 154.703C250.342 155.034 251.546 155.55 252.892 155.722C253.058 155.742 252.964 155.236 253.145 155.245C253.906 155.285 254.518 155.725 255.338 155.703C255.971 155.685 256.726 155.273 257.4 155.239C257.653 156.321 258.677 156.115 259.369 156.315C259.611 156.385 259.552 156.655 259.715 156.771C260.334 157.203 260.155 156.251 260.36 156.136C260.983 155.794 261.032 156.714 261.344 157.321C261.447 157.57 261.594 157.764 261.83 157.777C261.883 157.784 262.474 156.733 262.528 156.665C262.946 156.241 262.569 157.053 262.82 157.147C263.275 157.312 263.629 157.571 264.156 157.201C264.319 157.091 264.586 156.368 264.978 156.839C265.031 156.901 265.07 157.264 265.108 157.279C265.804 157.512 265.585 156.378 265.823 155.922C266.05 155.468 266.804 156.067 266.99 156.246C267.465 156.714 266.839 156.558 266.838 156.617C266.842 157.334 267.224 157.099 267.57 157.044C267.967 158.098 268.422 157.87 267.923 156.984C267.868 156.888 267.651 157.072 267.57 157.044C267.507 155.905 267.91 155.616 268.83 156.363C269.267 156.709 269.222 157.338 269.953 156.816C270.277 156.579 269.836 155.926 270.071 155.596C270.589 154.849 271.819 155.073 272.514 154.608C272.768 154.438 272.317 154.187 272.485 154.058C272.912 153.721 273.484 153.789 273.903 153.393C273.941 153.356 273.63 153.017 273.781 152.934C274.893 152.307 276.021 152.024 277.216 151.386C277.224 151.382 277.231 151.378 277.239 151.374C277.871 151.033 278.821 150.264 279.395 150.003C280.404 149.553 281.79 149.43 282.372 148.757C282.744 148.328 282.359 148.064 282.334 147.688C282.265 146.98 283.541 147.184 283.745 147.2C283.755 147.201 283.485 147.624 283.832 147.596C284.282 147.814 283.743 147.205 283.745 147.2C283.874 147.227 284.612 146.556 284.673 146.338C284.708 146.224 284.346 146.003 284.368 145.95C284.911 144.698 285.581 143.522 286.488 142.404C286.508 142.387 286.89 142.663 286.934 142.619C287.548 142.003 287.316 141.243 287.353 140.466C287.364 140.16 287.43 139.904 287.564 139.704C287.771 139.39 288.127 139.219 288.677 139.213C288.848 138.672 289.54 138.122 289.946 137.815C290.353 137.504 289.573 137.023 289.576 136.978C289.65 135.589 290.455 135.178 291.13 134.051C291.454 133.512 291.901 132.352 292.118 131.706C292.29 131.191 292.622 131.011 292.723 130.505C292.737 130.438 292.343 130.314 292.338 130.289C292.15 129.581 292.92 130.264 293.13 130.243C293.889 130.173 294.316 130.091 294.354 129.332C294.362 129.159 293.291 128.094 293.344 127.797C293.416 127.411 293.813 127.768 293.878 127.352C293.884 127.317 293.597 127.183 293.717 126.969C294.272 125.971 294.973 124.936 295.439 123.858C295.504 123.711 294.961 123.687 295.048 123.47C295.447 122.466 295.946 121.399 296.568 120.542C296.721 120.334 296.983 120.617 297.101 120.607C297.82 120.532 297.153 119.741 297.167 119.661C297.452 117.789 298.756 116.685 298.751 115.064C298.759 114.943 297.9 114.238 298.748 114.205C298.795 114.21 299.429 114.123 299.275 114.024C299.247 113.971 299.192 113.916 299.101 113.861C299.065 113.838 298.611 114.052 298.672 113.651C298.733 113.252 298.458 112.617 298.958 112.106C299.115 111.947 299.986 111.558 299.299 111.068C299.253 111.025 297.694 110.317 298.757 110.044C298.932 110 300.071 110.006 299.467 109.462C299.35 109.361 299.106 109.563 298.935 109.294C298.671 108.888 298.934 108.311 298.377 107.884C298.278 107.805 297.474 107.566 298.012 107.22C298.096 107.164 298.483 107.187 298.502 107.036C298.591 106.31 298.19 105.711 298.249 105.089C298.267 104.866 298.879 104.755 298.949 104.481C299.022 104.209 298.963 103.717 298.613 103.68C298.273 103.654 297.53 104.31 297.351 104.172C296.966 103.905 296.899 103.799 296.739 103.587C295.731 102.949 294.76 102.255 293.736 101.674C293.439 101.505 293.53 101.946 293.08 101.719C291.413 100.877 288.495 99.7232 287.46 98.4024C286.617 97.3345 288.203 97.5974 287.461 96.972C287.096 96.669 286.177 97.4941 286.068 97.4832C284.973 97.381 284.521 96.6402 283.619 96.4491C283.434 96.4111 283.436 96.9054 283.282 96.8694C282.757 96.7508 282.308 96.3703 281.823 96.2488C281.605 96.1957 281.536 96.5425 281.352 96.4553C280.911 96.2514 280.55 95.9931 280.178 95.5556C280.143 95.5155 280.539 95.167 280.191 95.0598C279.902 94.9728 279.596 94.806 279.262 94.6926C279.004 94.597 278.697 94.551 278.374 94.6721C278.173 94.7474 278.081 95.5418 277.743 94.9486C277.671 94.826 277.868 93.8728 277.309 94.6619C277.207 94.7898 276.347 95.862 275.959 95.1324C275.857 94.939 275.584 94.145 275.33 94.2684C275.297 94.2881 275.429 94.7195 275.225 94.7613C274.505 94.902 273.74 94.8817 272.997 95.0646C272.801 95.1145 273.125 95.5401 272.833 95.6006C272.032 95.7674 271.014 95.7593 270.205 95.732C269.907 95.721 270.056 95.3269 270.029 95.2899C269.59 94.6916 269.515 95.5977 269.414 95.666C268.766 96.0825 268.167 95.7738 267.559 96.017C267.393 96.0832 267.606 96.4677 267.579 96.5118C267.541 96.5727 267.511 96.6096 267.486 96.6278C267.301 96.7466 267.371 96.1475 267.132 96.1274C266.355 96.0596 265.587 96.2683 264.924 96.4876C264.682 96.5688 265.076 96.9737 264.859 97.0408C263.58 97.4471 262.349 97.7678 261.212 97.9384C260.997 97.9701 260.977 97.5725 260.903 97.5099C260.377 97.0751 260.297 98.0133 260.251 98.1231C260.009 98.636 259.717 98.4159 259.422 98.6552C258.748 99.2139 258.098 99.7444 257.549 100.302C256.564 101.328 255.565 102.314 254.74 103.179C253.098 104.908 251.7 106.292 250.627 107.906C250.334 108.354 250.039 108.835 249.76 109.333C249.667 109.495 250.193 109.593 250.119 109.736C249.163 111.555 247.985 113.219 247.132 115.099C247.061 115.253 247.594 115.264 247.495 115.518C247.295 116.04 246.946 116.644 246.552 117.073C246.362 117.28 246.169 116.769 245.985 116.982C245.554 117.482 245.21 118.084 244.985 118.706C244.89 118.972 245.512 118.809 245.355 119.138C244.299 121.378 243.377 123.595 241.855 125.651C241.75 125.791 240.78 125.56 240.819 125.969C241.063 126.097 241.362 126.215 241.629 126.335C241.065 127.945 240.447 129.513 239.861 131.084C239.185 132.909 238.479 134.732 237.851 136.592C237.8 136.742 238.381 136.642 238.286 136.933C237.735 138.618 237.354 140.288 236.31 141.868C236.207 142.026 235.362 141.651 235.333 142.206C235.327 142.307 235.206 143.099 235.333 143.361C235.353 143.396 235.806 143.387 235.741 143.635C235.354 145.079 234.79 146.557 234.076 147.927C233.96 148.148 233.605 147.76 233.519 147.915C232.908 149.022 232.805 150.447 231.969 151.493C231.405 152.189 230.78 151.609 229.897 151.726C229.774 151.742 229.563 152.204 229.137 152.049C228.067 151.661 227.009 150.966 225.857 150.579C225.611 150.496 225.634 151.147 225.194 150.577C225.166 150.537 225.138 150.069 224.978 149.893C224.868 149.771 224.395 149.713 224.273 149.51C224.151 149.308 224.567 149.307 224.447 149.001C224.322 148.699 223.797 148.611 223.904 148.144ZM291.769 136.415C292.356 136.239 290.958 135.441 291.087 136.028C291.095 136.057 291.74 136.425 291.769 136.415ZM251.345 156.735C251.764 157.529 252.308 156.56 252.019 155.956C251.737 155.354 251.221 156.494 251.345 156.735ZM245.94 155.856C246.285 156.647 247.382 154.644 246.544 154.748C246.495 154.754 245.92 155.81 245.94 155.856ZM230.391 149.783C230.369 149.782 230.231 150.109 230.247 150.126C230.664 150.479 230.944 149.815 230.391 149.783ZM240.46 153.862C240.516 154.227 241.203 154.156 241.135 153.7C241.079 153.333 240.39 153.406 240.46 153.862ZM302.58 116.856C302.606 116.855 302.692 116.626 302.559 116.596C302.135 116.495 302.163 116.85 302.58 116.856ZM231.497 150.207C232.412 150.998 232.865 153.168 231.17 152.102C230.911 151.908 232.082 151.928 231.802 151.577C231.367 150.978 230.294 151.643 230.124 150.693C230.107 150.534 231.449 150.17 231.5 150.207C231.499 150.207 231.498 150.207 231.497 150.207ZM293.597 137.089C293.619 137.092 293.797 136.794 293.782 136.777C293.415 136.375 293.058 136.974 293.597 137.089ZM302.688 102.275C302.73 102.236 302.36 101.44 302.3 101.439C301.386 101.495 302.063 102.959 302.688 102.275ZM279.32 155.277C279.224 155.914 278.859 156.18 278.286 155.755C278.635 155.607 278.964 155.435 279.32 155.277Z" fill="#C2A8FF"/>
<path d="M250.456 225.215C250.879 224.079 251.723 222.759 252.45 221.791C252.678 221.486 252.849 221.778 253.014 221.581C253.341 221.186 253.43 220.706 253.778 220.317C253.895 220.188 254.202 220.578 254.314 220.442C254.923 219.691 255.228 218.846 255.757 218.028C258.336 214.046 260.628 209.976 263.007 205.828C263.343 205.243 263.751 204.65 264.167 204.021C264.741 203.153 265.318 202.265 265.686 201.372C265.76 201.192 265.357 201.104 265.346 201.055C265.184 200.31 265.795 200.859 266.071 200.579C267.162 199.47 268.023 198.049 268.642 196.727C268.902 196.17 267.91 196.287 268.612 195.984C268.66 195.963 268.938 196.315 269.064 196.195C269.347 195.923 269.668 195.264 269.854 195.032C270.215 194.583 270.262 194.503 270.557 194.051C270.965 193.435 271.62 192.82 271.978 192.113C272.054 191.961 271.571 191.906 271.661 191.642C271.748 191.379 272.177 190.81 272.395 190.671C272.612 190.533 272.836 190.806 272.924 190.815C273.661 190.898 273.368 189.717 273.408 189.618C273.826 188.633 274.415 187.882 275.012 187.159C275.561 186.475 276.164 185.843 276.765 185.158C277.777 183.993 278.977 182.746 280.281 181.971C281.834 181.048 283.312 180.706 284.844 180.185C285.007 180.131 284.664 179.705 284.866 179.638C286.774 179.01 288.617 178.706 290.392 178.578C290.645 178.557 290.892 178.543 291.142 178.535C291.366 178.528 291.17 179.018 291.396 179.038C292.792 179.131 294.821 179.827 295.633 177.903C296.589 177.965 297.773 178.13 298.546 178.641C299.041 178.971 298.453 179.367 299.123 179.27C299.274 179.251 299.162 178.798 299.387 178.802C300.344 178.822 301.291 179.213 302.209 179.265C302.396 179.274 302.462 178.896 302.532 178.846C303.124 178.447 303.521 179.55 303.64 179.662C304.581 180.513 305.42 180.62 306.405 180.997C306.634 181.085 306.539 180.505 306.767 180.573C307.147 180.688 307.527 180.817 307.906 180.96C308.735 181.272 309.517 181.661 310.231 182.136C310.464 182.294 310.057 182.592 310.158 182.687C310.604 183.104 311.071 182.413 311.504 182.813C311.595 182.897 311.375 183.205 311.376 183.251C311.393 183.971 312.061 183.285 312.149 183.306C313.261 183.557 313.427 184.729 314.401 185.145C314.519 185.195 314.513 184.642 314.83 184.809C316.948 185.919 318.962 187.574 320.431 189.46C320.657 189.75 320.224 189.832 320.212 189.88C320.013 190.629 320.816 190.135 320.927 190.195C321.779 190.682 321.805 191.842 323.041 191.6C325.402 194.845 327.991 198.134 328.503 202.157C328.51 202.206 328.059 202.289 328.075 202.386C328.256 203.572 328.826 203.109 329.899 203.58C329.95 203.602 329.963 203.653 329.95 203.72C329.926 204.088 329.374 204.726 329.321 204.779C329.096 205.052 328.393 204.981 328.355 205.061C328.035 205.645 330.229 205.197 330.301 206.114C330.299 206.141 329.885 206.051 329.849 206.125C329.734 206.349 329.9 206.56 329.757 206.771C329.419 207.255 328.344 207.295 328.885 208.014C328.951 208.108 330.228 208.148 330.046 208.852C329.98 209.134 329.718 210.331 329.544 210.62C329.376 210.916 329.048 210.587 329.024 210.605C328.267 211.291 328.145 210.908 327.265 211.074C326.386 211.231 328.215 211.696 328.362 211.927C328.508 212.159 327.891 212.613 327.697 212.703C327.503 212.797 327.319 212.536 327.194 212.635C326.368 213.291 327.952 213.308 328.138 213.686C328.579 214.576 327.082 214.62 326.747 215.172C326.656 215.321 327.002 215.293 326.981 215.447C326.894 216.049 326.362 216.254 326.528 217.025C326.553 217.155 327.183 217.932 326.489 218.079C326.389 218.1 326.101 217.858 325.949 218.077C325.902 218.144 325.853 218.225 325.805 218.315C325.614 218.676 325.433 219.147 325.421 219.48C325.404 219.808 326.062 219.646 325.769 219.963C325.64 220.099 325.421 219.696 325.205 219.956C324.986 220.231 324.726 221.008 324.621 221.305C324.517 221.607 324.985 221.603 325.003 221.638C325.109 221.837 325.051 222.517 325.025 222.565C323.752 225.319 321.716 226.633 320.712 229.065C320.634 229.243 321.098 229.354 321.09 229.383C320.929 230.07 320.123 229.004 319.528 229.239C320.375 229.631 320.101 229.779 319.953 230.265C319.882 230.502 320.264 230.555 320.285 230.593C320.61 231.145 319.871 231.027 319.713 231.015C319.129 230.978 319.576 231.479 319.188 231.452C318.802 231.426 318.508 230.861 318.294 231.281C318.528 231.554 319.463 231.647 319.421 232.031C319.415 232.086 319.407 232.142 319.396 232.198C319.072 233.81 316.981 235.394 316.224 236.11C315.43 236.884 315.221 237.174 314.685 237.545C313.712 238.199 314.465 238.364 314.141 239.08C313.808 239.794 312.99 238.381 312.682 238.2C312.378 238.015 312.536 238.348 312.318 238.291C312.102 238.234 312.141 237.885 311.882 238.024C311.624 238.163 311.437 239.134 311.586 239.475C311.911 240.193 312.708 240.563 311.921 240.859C311.876 240.876 311.72 240.461 311.561 240.539C310.304 241.163 309.167 242.016 307.871 242.527C307.69 242.597 307.579 242.114 307.472 242.149C307.387 242.177 307.315 242.203 307.254 242.229C306.493 242.542 307.124 243.015 306.981 244.012C306.555 242.92 305.932 242.468 305.197 242.8C304.75 242.995 305.031 243.424 304.86 243.882C304.809 244.02 304.342 243.829 304.368 244.073C304.435 244.877 305.074 245.583 304.071 245.563C304.027 245.56 304.013 245.116 303.873 245.135C302.973 245.246 303.099 246.061 302.14 246.395C301.382 246.659 299.923 246.395 299.051 246.378C298.948 245.08 298.215 245.433 297.902 246.338C297.336 246.319 296.72 246.361 296.18 246.206C295.996 246.153 296.141 245.783 296.12 245.741C295.812 245.081 295.511 245.931 295.382 245.953C294.705 246.056 294.113 245.879 293.539 245.724C293.045 245.584 292.515 245.524 292.086 245.875C292.043 245.903 292.11 246.799 291.81 246.177C291.777 246.137 292.037 245.673 291.576 245.723C291.143 245.788 289.826 245.659 288.975 245.964C288.773 246.057 288.101 246.719 287.79 246.074C287.749 245.986 287.856 245.742 287.805 245.586C287.666 245.089 287.324 245.953 287.224 245.13C287.116 244.305 286.751 243.613 285.856 243.896C285.825 243.903 285.437 244.542 285.202 244.454C284.934 244.353 284.652 244.18 284.343 244.025C284.217 243.941 284.091 243.865 283.969 243.81C283.784 243.727 283.713 244.191 283.678 244.184C282.385 243.872 281.669 243.151 280.399 242.468C280.17 242.343 279.249 242.649 278.948 242.017C278.615 241.325 279.925 239.45 278.533 239.496C277.975 239.514 276.393 241.924 276.024 240.241C274.211 239.962 272.91 238.698 271.048 238.542C270.966 238.535 270.445 239.175 270.27 239.097C270.012 238.979 269.998 238.581 269.819 238.485C269.07 238.075 268.236 238.079 267.498 237.717C267.217 237.579 267.463 237.272 267.135 237.109C266.804 236.943 266.382 237.304 266.019 236.874C265.752 236.55 265.847 235.47 265.474 235.151C265.092 235.889 264.814 235.898 264.365 235.852C264.27 235.841 264.166 235.828 264.052 235.818C263.924 235.808 263.87 236.176 263.801 236.187C263.516 236.239 263.468 235.884 263.185 235.954C263.117 235.971 262.951 236.272 262.886 236.302C262.324 236.574 262.163 235.607 262.137 235.44C262.035 234.802 261.658 235.105 261.49 234.783C261.323 234.461 261.84 234.459 261.589 234.181C261.072 233.607 260.231 233.198 259.599 232.813C259.345 232.661 259.289 233.158 259.247 233.146C258.657 232.937 258.38 232.203 257.615 232.804C258.487 230.569 257.176 232.809 256.681 231.929C256.641 231.857 257.184 230.879 257.487 230.881C257.791 230.882 257.938 231.388 258.379 231.359C258.485 231.354 259.443 230.711 259.528 230.688C260.225 230.527 259.44 231.999 259.419 232.093C259.193 233.107 260.283 232.436 260.459 232.446C261.265 232.495 261.689 233 262.345 233.072C262.772 233.12 263.333 232.181 263.589 232.359C264.429 232.942 264.054 234.42 265.465 233.795C265.485 233.784 265.506 233.773 265.527 233.762C265.827 233.6 266.199 232.454 266.374 233.592C266.382 233.663 266.476 234.664 266.99 234.302C267.053 234.256 267.197 233.939 267.254 233.933C267.636 233.9 267.728 234.245 268.123 234.272C268.516 234.298 269.006 234.29 269.359 234.563C269.573 234.728 269.638 235.453 269.699 235.649C269.858 236.206 270.496 235.651 270.498 236.246C270.506 236.846 269.784 237.473 270.211 238.024C270.559 237.189 270.941 236.342 271.301 235.507C272.485 235.998 273.584 236.717 274.829 237.131C274.983 237.182 274.995 236.668 275.165 236.711C275.882 236.891 276.369 237.437 277.138 237.572C277.733 237.673 278.528 237.416 279.162 237.512C279.165 238.616 280.157 238.61 280.766 238.943C280.978 239.058 280.862 239.31 280.991 239.456C281.473 239.998 281.519 239.037 281.736 238.966C282.677 238.674 281.977 240.621 282.826 240.911C282.868 240.925 283.836 240.133 283.942 240.104C284.597 239.895 283.868 240.489 284.14 240.694C284.601 241.047 284.873 241.432 285.563 241.495L285.27 241.373C285.308 241.371 285.348 241.367 285.389 241.362C285.602 241.334 286.217 240.817 286.379 241.427C286.4 241.507 286.266 241.847 286.294 241.878C286.828 242.418 287.175 241.321 287.604 241.039C288.043 240.76 288.313 241.632 288.379 241.876C288.52 242.506 288.124 242.081 288.097 242.132C287.769 242.764 288.183 242.74 288.453 242.845C288.294 243.961 288.744 243.959 288.73 242.946C288.729 242.837 288.503 242.907 288.453 242.845C288.911 241.805 289.167 241.707 289.465 242.732C289.63 243.203 289.509 243.806 290.055 243.511C290.323 243.359 290.007 242.636 290.261 242.355C290.564 242.023 291.413 241.893 292.127 241.992C292.859 242.081 293.436 242.313 293.944 242.343C294.31 242.369 294.045 241.903 294.287 241.893C294.29 241.893 294.293 241.893 294.296 241.892C294.748 241.863 295.088 242.236 295.554 242.124C295.595 242.113 295.547 241.663 295.682 241.671C296.695 241.723 297.592 242.018 298.689 241.935C299.221 241.898 300.116 241.519 300.653 241.45C301.579 241.347 302.92 241.602 303.64 241.137C304.1 240.84 303.813 240.475 303.889 240.112C304.017 239.419 305.12 240.018 305.298 240.1C305.308 240.102 304.964 240.409 305.284 240.494C305.638 240.84 305.296 240.103 305.298 240.1C305.355 240.129 305.597 240.053 305.822 239.943C306.044 239.835 306.277 239.682 306.332 239.595C306.39 239.5 306.107 239.184 306.141 239.141C306.977 238.112 307.956 237.202 309.118 236.464C309.141 236.454 309.42 236.834 309.473 236.808C310.214 236.443 310.213 235.667 310.447 234.979C310.681 234.289 311.108 234.025 311.951 234.318C312.219 233.901 312.95 233.641 313.377 233.484C313.805 233.327 313.147 232.687 313.156 232.65C313.388 231.482 314.152 231.354 314.749 230.58C314.866 230.425 314.994 230.182 315.084 229.944C315.299 229.446 315.485 228.951 315.619 228.579C315.788 228.094 316.141 227.892 316.244 227.42C316.261 227.352 315.871 227.216 315.867 227.19C315.711 226.465 316.451 227.184 316.662 227.17C317.419 227.139 317.843 227.084 317.922 226.333C317.939 226.162 316.938 225.032 317.016 224.734C317.122 224.347 317.494 224.726 317.591 224.323C317.599 224.29 317.326 224.129 317.47 223.917C318.115 222.959 319.039 221.913 319.433 221.18C319.487 221.081 318.982 220.95 319.048 220.81C319.321 220.221 319.627 219.513 320.162 218.693C320.29 218.503 320.578 218.749 320.692 218.737C321.394 218.642 320.662 217.928 320.668 217.853C320.694 217.472 320.766 217.124 320.873 216.772C321.297 215.38 322.135 214.326 322.342 212.783C322.356 212.672 321.688 211.596 322.6 211.543C322.66 211.54 323.592 211.49 323.128 211.019C323.099 210.989 322.61 211.046 322.77 210.713C322.929 210.382 322.823 209.752 323.422 209.455C323.609 209.367 324.543 209.254 323.982 208.68C323.95 208.618 322.568 207.722 323.646 207.768C323.823 207.778 324.943 208 324.433 207.491C324.332 207.402 324.064 207.494 323.933 207.288C323.728 206.991 324.046 206.668 323.528 206.481C323.436 206.432 322.663 206.422 323.227 206.263C323.315 206.233 323.693 206.195 323.724 206.133C323.775 206.03 323.767 205.937 323.737 205.845C323.573 205.355 323.348 204.88 323.328 204.349C323.314 204.059 323.937 203.971 323.983 203.642C324.029 203.309 323.947 202.704 323.57 202.544C323.193 202.383 322.433 203.073 322.183 202.707C321.107 201.159 320.71 199.315 319.684 197.751C319.533 197.524 319.386 197.911 319.143 197.596C318.249 196.402 316.317 194.825 315.816 193.431C315.414 192.295 316.719 192.824 316.253 192.105C316.013 191.749 314.966 192.364 314.873 192.336C313.931 192.054 313.718 191.283 312.932 190.94C312.77 190.871 312.655 191.347 312.523 191.286C312.077 191.086 311.737 190.632 311.314 190.425C311.121 190.332 310.978 190.655 310.823 190.534C310.448 190.248 310.166 189.924 309.904 189.415C309.879 189.369 310.336 189.114 310.031 188.936C309.537 188.651 309.022 188.038 308.269 188.067C308.043 188.076 307.714 188.807 307.551 188.132C307.516 187.992 307.999 187.148 307.213 187.721C307.072 187.81 305.906 188.55 305.782 187.732C305.761 187.599 305.759 187.233 305.694 186.977C305.643 186.811 305.57 186.69 305.456 186.699C305.415 186.705 305.402 187.16 305.18 187.123C304.396 186.983 303.654 186.656 302.886 186.519C302.683 186.484 302.815 187.007 302.515 186.941C301.69 186.76 300.8 186.33 300.152 185.988C299.914 185.861 300.196 185.56 300.189 185.516C300.07 184.797 299.649 185.597 299.542 185.621C298.87 185.758 298.538 185.258 298 185.274C297.854 185.278 297.883 185.71 297.849 185.743C297.512 186.059 297.841 185.346 297.671 185.236C297.192 184.925 296.607 184.909 296.081 184.953C295.887 184.971 296.095 185.462 295.926 185.473C294.936 185.547 293.847 185.616 292.679 185.557C292.458 185.546 292.522 185.152 292.461 185.076C292.185 184.731 291.962 184.988 291.813 185.24C291.715 185.38 291.645 185.517 291.606 185.553C291.117 186.021 290.834 185.739 290.37 185.901C288.066 186.68 285.751 187.084 284.378 187.74C282.812 188.457 281.596 189.274 280.542 190.818C280.337 191.125 280.133 191.438 279.931 191.759C279.831 191.916 280.351 192.041 280.27 192.18C279.208 193.963 277.942 195.438 277.002 197.141C276.924 197.281 277.447 197.348 277.335 197.58C277.111 198.055 276.735 198.593 276.326 198.959C276.129 199.135 275.967 198.63 275.775 198.813C275.323 199.245 274.957 199.775 274.701 200.347C274.593 200.59 275.214 200.5 275.042 200.796C273.884 202.818 272.845 204.856 271.176 206.68C271.063 206.803 270.124 206.471 270.128 206.873C270.359 207.022 270.645 207.169 270.899 207.315C270.874 207.367 270.85 207.42 270.825 207.472C269.342 210.636 267.461 213.551 265.812 216.636C265.742 216.767 266.323 216.778 266.19 217.033C265.414 218.521 264.795 220.039 263.546 221.333C263.423 221.462 262.645 220.967 262.541 221.471C262.523 221.561 262.283 222.298 262.375 222.555C262.389 222.594 262.835 222.663 262.732 222.891C262.14 224.185 261.378 225.457 260.498 226.599C260.355 226.785 260.06 226.358 259.955 226.488C259.213 227.403 258.951 228.679 258.08 229.473C257.495 230.005 256.919 229.396 256.047 229.396C255.928 229.387 255.697 229.802 255.288 229.609C254.249 229.145 253.238 228.388 252.118 227.918C251.882 227.805 251.851 228.486 251.454 227.875C251.422 227.846 251.444 227.342 251.301 227.151C251.206 227.013 250.731 226.932 250.636 226.701C250.533 226.487 250.959 226.499 250.877 226.171C250.798 225.83 250.274 225.707 250.456 225.215ZM315.272 232.716C315.85 232.681 314.587 231.684 314.664 232.22C314.669 232.247 315.243 232.718 315.272 232.716ZM273.158 237.851C273.409 238.701 274.109 237.846 273.949 237.204C273.79 236.562 273.082 237.594 273.158 237.851ZM267.891 236.35C268.241 237.104 269.196 235.03 268.43 235.21C268.385 235.219 267.871 236.306 267.891 236.35ZM256.677 227.676C256.654 227.675 256.493 227.944 256.504 227.968C256.88 228.355 257.213 227.795 256.677 227.676ZM262.824 234.477C262.846 234.841 263.506 234.794 263.477 234.342C263.454 233.978 262.796 234.026 262.824 234.477ZM325.999 214.931C326.024 214.933 326.121 214.719 325.991 214.679C325.574 214.55 325.583 214.9 325.999 214.931ZM255.1 229.661C255.897 230.528 255.669 232.618 254.467 231.453C254.261 231.239 255.337 231.375 255.147 231.01C254.989 230.689 254.646 230.687 254.305 230.603C253.983 230.506 253.567 230.396 253.644 229.582C253.661 229.509 253.76 229.569 253.906 229.628C254.054 229.693 254.239 229.719 254.411 229.714C254.761 229.709 255.078 229.629 255.103 229.661C255.102 229.661 255.101 229.661 255.1 229.661ZM316.947 233.705C316.969 233.712 317.179 233.461 317.166 233.442C316.855 233.003 316.442 233.495 316.947 233.705ZM327.761 201.492C327.798 201.458 327.532 200.728 327.482 200.723C326.562 200.698 327.085 202.138 327.761 201.492ZM299.034 246.345C298.702 246.889 298.223 246.975 297.904 246.339C298.279 246.362 298.655 246.345 299.034 246.345Z" fill="#C2A8FF"/>
</svg>
