<svg width="211" height="35" viewBox="0 0 211 35" fill="none" xmlns="http://www.w3.org/2000/svg">
<path d="M72.3 26V12H74.96L80.42 21.22L85.88 12H88.54V26H85.88V16.7L81.56 24H79.3L74.96 16.7V26H72.3ZM93.1477 26V12H104.088V14.4H95.8077V17.86H103.688V20.14H95.8077V23.6H104.088V26H93.1477ZM115.997 21.06H110.757V26H108.097V12H115.997C118.537 12 120.377 14.12 120.377 16.54C120.377 18.96 118.537 21.06 115.997 21.06ZM115.597 18.74C116.957 18.74 117.797 17.6 117.797 16.54C117.797 15.46 116.957 14.34 115.597 14.34H110.757V18.74H115.597ZM133.417 26V19.58C132.377 20.62 130.977 21.04 129.537 21.04C126.177 21.04 123.537 19 123.537 15.5V12H126.217V15.36C126.217 17.28 127.717 18.58 129.817 18.58C130.937 18.58 133.417 18.24 133.417 15.24V12H136.077V26H133.417Z" fill="black"/>
<rect x="1" y="1" width="209" height="33" rx="16.5" stroke="black" stroke-width="2"/>
</svg>
