<svg width="198" height="198" viewBox="0 0 198 198" fill="none" xmlns="http://www.w3.org/2000/svg">
<circle cx="99" cy="99" r="96.5" fill="#F2F2F2" stroke="#FFC9E4" stroke-width="5"/>
<circle cx="99" cy="99" r="96.5" fill="#F2F2F2" stroke="#FFC9E4" stroke-width="5"/>
<mask id="path-3-outside-1_1963_3" maskUnits="userSpaceOnUse" x="61.3972" y="63.3857" width="79" height="61" fill="black">
<rect fill="white" x="61.3972" y="63.3857" width="79" height="61"/>
<path d="M83.3289 69.7C83.3289 71.9406 82.2242 73.9166 80.0147 75.6282C77.8364 77.3397 76.1871 78.4133 75.0668 78.849C73.8221 79.3158 73.1997 81.3074 73.1997 84.8238C73.1997 86.4109 73.3242 88.0913 73.5731 89.8651C73.7909 91.4211 73.9621 92.2613 74.0866 92.3857H63.5839C65.2955 91.0165 66.5869 88.6826 67.4582 85.384C68.1429 82.8322 68.4852 80.1249 68.4852 77.2619C68.4852 72.6252 68.0184 69.42 67.0848 67.6462C66.867 67.2416 66.1824 66.168 65.031 64.4254H76.1404C77.9764 64.4254 79.5791 64.8299 80.9483 65.639C82.5354 66.6348 83.3289 67.9885 83.3289 69.7ZM75.4869 67.4128C74.1799 67.4128 73.5264 68.7042 73.5264 71.2871C73.5264 71.6916 73.542 72.2362 73.5731 72.9208C73.6354 73.6055 73.6665 74.0411 73.6665 74.2278C73.6665 75.7527 73.7287 76.5151 73.8532 76.5151C74.8801 76.5151 75.8915 75.6904 76.8873 74.0411C77.7897 72.6097 78.241 71.4427 78.241 70.5402C78.241 69.7934 77.9609 69.0932 77.4007 68.4397C76.8406 67.7551 76.2027 67.4128 75.4869 67.4128ZM107.016 77.0285C107.016 77.402 103.64 79.2847 96.8868 82.6766C97.6025 84.8238 98.894 85.8974 100.761 85.8974C101.975 85.8974 103.157 85.4462 104.309 84.5438C105.367 83.7347 106.191 82.7544 106.783 81.603C106.783 84.3726 106.145 86.7999 104.869 88.8849C103.375 91.3433 101.321 92.5725 98.7073 92.5725C96.7468 92.5725 95.0352 91.5766 93.5726 89.585C92.3901 88.0291 91.5343 86.1308 91.0053 83.8903C90.6008 82.241 90.3985 80.4983 90.3985 78.6623C90.3985 76.8263 90.6008 75.0525 91.0053 73.3409C91.5343 71.1004 92.3745 69.1554 93.5259 67.5061C95.0197 65.4523 96.7468 64.4254 98.7073 64.4254C100.917 64.4254 102.799 65.6701 104.355 68.1596C105.538 70.089 106.331 72.314 106.736 74.8347C106.923 75.8616 107.016 76.5929 107.016 77.0285ZM101.088 73.9478C101.088 73.232 101.026 72.5163 100.901 71.8006C100.497 69.4355 99.7653 68.253 98.7073 68.253C97.6181 68.253 96.8712 70.089 96.4667 73.7611C96.3422 74.7257 96.28 75.6904 96.28 76.6551L101.088 73.9478ZM128.54 70.2135C128.415 71.4583 127.902 72.5785 126.999 73.5743C126.097 74.539 125.039 75.0214 123.825 75.0214C123.452 75.0214 123.094 74.9591 122.752 74.8347C122.316 76.0172 122.098 77.2931 122.098 78.6623C122.098 81.6497 122.861 83.1434 124.385 83.1434C125.817 83.1434 126.968 81.6497 127.84 78.6623C128.151 79.8759 128.306 81.1674 128.306 82.5366C128.306 84.9639 127.84 87.1111 126.906 88.9782C125.755 91.3744 124.09 92.5725 121.912 92.5725C118.551 92.5725 116.87 89.7251 116.87 84.0303C116.87 82.8167 116.979 81.0273 117.197 78.6623C117.415 76.2972 117.524 74.5235 117.524 73.3409C117.524 68.4864 115.859 65.5145 112.529 64.4254C114.583 64.4254 116.092 64.4409 117.057 64.472C122.192 64.721 124.759 66.0591 124.759 68.4864C124.759 69.3266 124.479 70.3068 123.919 71.4271C124.417 71.5516 124.883 71.6138 125.319 71.6138C126.346 71.6138 127.42 71.1471 128.54 70.2135ZM85.9896 95.4254C87.6389 98.3817 88.4635 101.245 88.4635 104.014C88.4635 106.224 87.8411 108.775 86.5964 111.669C86.0674 112.914 85.5228 114.159 84.9626 115.404C84.4025 116.929 84.1224 118.236 84.1224 119.325C84.1224 120.725 84.5737 122.079 85.4761 123.386H77.4941C76.934 122.141 76.6539 120.647 76.6539 118.905C76.6539 117.193 76.934 115.559 77.4941 114.003C76.3427 115.279 75.5803 116.228 75.2069 116.851C74.46 117.971 74.0866 119.107 74.0866 120.258C74.0866 121.161 74.2888 122.203 74.6934 123.386H65.171C66.6336 121.954 67.8161 120.04 68.7186 117.644C69.5276 115.404 69.9322 113.194 69.9322 111.016C69.9322 110.487 69.9166 110.005 69.8855 109.569C69.6988 108.106 68.9675 106.706 67.6916 105.368C65.6067 103.221 64.4708 102.007 64.2841 101.727C63.1327 100.015 62.557 97.9149 62.557 95.4254H71.0058C70.6946 96.0166 70.539 96.6234 70.539 97.2458C70.539 98.3972 71.317 99.9376 72.8729 101.867C73.2464 102.272 73.7131 103.003 74.2733 104.061C74.5222 104.745 74.6467 105.57 74.6467 106.535C74.6467 107.78 74.4444 109.102 74.0399 110.502C75.5647 108.666 76.3271 107.079 76.3271 105.741C76.3271 104.559 75.9382 103.158 75.1602 101.54H76.8873C77.9142 101.54 78.8789 101.494 79.7813 101.4C80.8394 103.143 81.3684 104.761 81.3684 106.255C81.3684 107.313 81.1661 108.729 80.7616 110.502C82.2553 108.604 83.0022 106.441 83.0022 104.014C83.0022 103.61 82.971 103.252 82.9088 102.941C82.8154 102.007 82.1464 100.809 80.9016 99.3464C79.688 97.8838 79.0812 96.7324 79.0812 95.8922C79.0812 95.7366 79.0967 95.581 79.1278 95.4254H85.9896ZM112.304 108.029C112.304 108.402 108.927 110.285 102.175 113.677C102.89 115.824 104.182 116.897 106.049 116.897C107.263 116.897 108.445 116.446 109.596 115.544C110.654 114.735 111.479 113.754 112.07 112.603C112.07 115.373 111.432 117.8 110.157 119.885C108.663 122.343 106.609 123.572 103.995 123.572C102.035 123.572 100.323 122.577 98.8604 120.585C97.6779 119.029 96.8221 117.131 96.2931 114.89C95.8886 113.241 95.6863 111.498 95.6863 109.662C95.6863 107.826 95.8886 106.052 96.2931 104.341C96.8221 102.1 97.6623 100.155 98.8137 98.5061C100.307 96.4523 102.035 95.4254 103.995 95.4254C106.204 95.4254 108.087 96.6701 109.643 99.1596C110.826 101.089 111.619 103.314 112.024 105.835C112.21 106.862 112.304 107.593 112.304 108.029ZM106.376 104.948C106.376 104.232 106.313 103.516 106.189 102.801C105.784 100.436 105.053 99.253 103.995 99.253C102.906 99.253 102.159 101.089 101.754 104.761C101.63 105.726 101.568 106.69 101.568 107.655L106.376 104.948ZM139.289 109.662C139.289 111.716 139.009 113.646 138.449 115.45C137.764 117.691 136.691 119.527 135.228 120.958C133.579 122.577 131.665 123.386 129.487 123.386H118.377C120.182 121.487 121.567 118.998 122.531 115.917C123.403 113.148 123.838 110.331 123.838 107.468C123.838 104.917 123.465 102.785 122.718 101.073C122.625 100.825 122.065 99.9532 121.038 98.4595C120.322 97.4014 119.98 96.4679 120.011 95.6588V95.4254H129.253C131.214 95.4254 133.096 96.3901 134.901 98.3194C136.426 99.9376 137.562 101.82 138.309 103.968C138.962 105.804 139.289 107.702 139.289 109.662ZM128.506 100.093C128.04 101.711 127.651 104.092 127.339 107.235C127.028 110.347 126.873 112.836 126.873 114.704C126.873 116.726 127.573 117.738 128.973 117.738C130.591 117.738 131.82 116.82 132.661 114.984C133.283 113.583 133.594 111.965 133.594 110.129C133.594 105.306 131.898 101.96 128.506 100.093Z"/>
</mask>
<path d="M83.3289 69.7C83.3289 71.9406 82.2242 73.9166 80.0147 75.6282C77.8364 77.3397 76.1871 78.4133 75.0668 78.849C73.8221 79.3158 73.1997 81.3074 73.1997 84.8238C73.1997 86.4109 73.3242 88.0913 73.5731 89.8651C73.7909 91.4211 73.9621 92.2613 74.0866 92.3857H63.5839C65.2955 91.0165 66.5869 88.6826 67.4582 85.384C68.1429 82.8322 68.4852 80.1249 68.4852 77.2619C68.4852 72.6252 68.0184 69.42 67.0848 67.6462C66.867 67.2416 66.1824 66.168 65.031 64.4254H76.1404C77.9764 64.4254 79.5791 64.8299 80.9483 65.639C82.5354 66.6348 83.3289 67.9885 83.3289 69.7ZM75.4869 67.4128C74.1799 67.4128 73.5264 68.7042 73.5264 71.2871C73.5264 71.6916 73.542 72.2362 73.5731 72.9208C73.6354 73.6055 73.6665 74.0411 73.6665 74.2278C73.6665 75.7527 73.7287 76.5151 73.8532 76.5151C74.8801 76.5151 75.8915 75.6904 76.8873 74.0411C77.7897 72.6097 78.241 71.4427 78.241 70.5402C78.241 69.7934 77.9609 69.0932 77.4007 68.4397C76.8406 67.7551 76.2027 67.4128 75.4869 67.4128ZM107.016 77.0285C107.016 77.402 103.64 79.2847 96.8868 82.6766C97.6025 84.8238 98.894 85.8974 100.761 85.8974C101.975 85.8974 103.157 85.4462 104.309 84.5438C105.367 83.7347 106.191 82.7544 106.783 81.603C106.783 84.3726 106.145 86.7999 104.869 88.8849C103.375 91.3433 101.321 92.5725 98.7073 92.5725C96.7468 92.5725 95.0352 91.5766 93.5726 89.585C92.3901 88.0291 91.5343 86.1308 91.0053 83.8903C90.6008 82.241 90.3985 80.4983 90.3985 78.6623C90.3985 76.8263 90.6008 75.0525 91.0053 73.3409C91.5343 71.1004 92.3745 69.1554 93.5259 67.5061C95.0197 65.4523 96.7468 64.4254 98.7073 64.4254C100.917 64.4254 102.799 65.6701 104.355 68.1596C105.538 70.089 106.331 72.314 106.736 74.8347C106.923 75.8616 107.016 76.5929 107.016 77.0285ZM101.088 73.9478C101.088 73.232 101.026 72.5163 100.901 71.8006C100.497 69.4355 99.7653 68.253 98.7073 68.253C97.6181 68.253 96.8712 70.089 96.4667 73.7611C96.3422 74.7257 96.28 75.6904 96.28 76.6551L101.088 73.9478ZM128.54 70.2135C128.415 71.4583 127.902 72.5785 126.999 73.5743C126.097 74.539 125.039 75.0214 123.825 75.0214C123.452 75.0214 123.094 74.9591 122.752 74.8347C122.316 76.0172 122.098 77.2931 122.098 78.6623C122.098 81.6497 122.861 83.1434 124.385 83.1434C125.817 83.1434 126.968 81.6497 127.84 78.6623C128.151 79.8759 128.306 81.1674 128.306 82.5366C128.306 84.9639 127.84 87.1111 126.906 88.9782C125.755 91.3744 124.09 92.5725 121.912 92.5725C118.551 92.5725 116.87 89.7251 116.87 84.0303C116.87 82.8167 116.979 81.0273 117.197 78.6623C117.415 76.2972 117.524 74.5235 117.524 73.3409C117.524 68.4864 115.859 65.5145 112.529 64.4254C114.583 64.4254 116.092 64.4409 117.057 64.472C122.192 64.721 124.759 66.0591 124.759 68.4864C124.759 69.3266 124.479 70.3068 123.919 71.4271C124.417 71.5516 124.883 71.6138 125.319 71.6138C126.346 71.6138 127.42 71.1471 128.54 70.2135ZM85.9896 95.4254C87.6389 98.3817 88.4635 101.245 88.4635 104.014C88.4635 106.224 87.8411 108.775 86.5964 111.669C86.0674 112.914 85.5228 114.159 84.9626 115.404C84.4025 116.929 84.1224 118.236 84.1224 119.325C84.1224 120.725 84.5737 122.079 85.4761 123.386H77.4941C76.934 122.141 76.6539 120.647 76.6539 118.905C76.6539 117.193 76.934 115.559 77.4941 114.003C76.3427 115.279 75.5803 116.228 75.2069 116.851C74.46 117.971 74.0866 119.107 74.0866 120.258C74.0866 121.161 74.2888 122.203 74.6934 123.386H65.171C66.6336 121.954 67.8161 120.04 68.7186 117.644C69.5276 115.404 69.9322 113.194 69.9322 111.016C69.9322 110.487 69.9166 110.005 69.8855 109.569C69.6988 108.106 68.9675 106.706 67.6916 105.368C65.6067 103.221 64.4708 102.007 64.2841 101.727C63.1327 100.015 62.557 97.9149 62.557 95.4254H71.0058C70.6946 96.0166 70.539 96.6234 70.539 97.2458C70.539 98.3972 71.317 99.9376 72.8729 101.867C73.2464 102.272 73.7131 103.003 74.2733 104.061C74.5222 104.745 74.6467 105.57 74.6467 106.535C74.6467 107.78 74.4444 109.102 74.0399 110.502C75.5647 108.666 76.3271 107.079 76.3271 105.741C76.3271 104.559 75.9382 103.158 75.1602 101.54H76.8873C77.9142 101.54 78.8789 101.494 79.7813 101.4C80.8394 103.143 81.3684 104.761 81.3684 106.255C81.3684 107.313 81.1661 108.729 80.7616 110.502C82.2553 108.604 83.0022 106.441 83.0022 104.014C83.0022 103.61 82.971 103.252 82.9088 102.941C82.8154 102.007 82.1464 100.809 80.9016 99.3464C79.688 97.8838 79.0812 96.7324 79.0812 95.8922C79.0812 95.7366 79.0967 95.581 79.1278 95.4254H85.9896ZM112.304 108.029C112.304 108.402 108.927 110.285 102.175 113.677C102.89 115.824 104.182 116.897 106.049 116.897C107.263 116.897 108.445 116.446 109.596 115.544C110.654 114.735 111.479 113.754 112.07 112.603C112.07 115.373 111.432 117.8 110.157 119.885C108.663 122.343 106.609 123.572 103.995 123.572C102.035 123.572 100.323 122.577 98.8604 120.585C97.6779 119.029 96.8221 117.131 96.2931 114.89C95.8886 113.241 95.6863 111.498 95.6863 109.662C95.6863 107.826 95.8886 106.052 96.2931 104.341C96.8221 102.1 97.6623 100.155 98.8137 98.5061C100.307 96.4523 102.035 95.4254 103.995 95.4254C106.204 95.4254 108.087 96.6701 109.643 99.1596C110.826 101.089 111.619 103.314 112.024 105.835C112.21 106.862 112.304 107.593 112.304 108.029ZM106.376 104.948C106.376 104.232 106.313 103.516 106.189 102.801C105.784 100.436 105.053 99.253 103.995 99.253C102.906 99.253 102.159 101.089 101.754 104.761C101.63 105.726 101.568 106.69 101.568 107.655L106.376 104.948ZM139.289 109.662C139.289 111.716 139.009 113.646 138.449 115.45C137.764 117.691 136.691 119.527 135.228 120.958C133.579 122.577 131.665 123.386 129.487 123.386H118.377C120.182 121.487 121.567 118.998 122.531 115.917C123.403 113.148 123.838 110.331 123.838 107.468C123.838 104.917 123.465 102.785 122.718 101.073C122.625 100.825 122.065 99.9532 121.038 98.4595C120.322 97.4014 119.98 96.4679 120.011 95.6588V95.4254H129.253C131.214 95.4254 133.096 96.3901 134.901 98.3194C136.426 99.9376 137.562 101.82 138.309 103.968C138.962 105.804 139.289 107.702 139.289 109.662ZM128.506 100.093C128.04 101.711 127.651 104.092 127.339 107.235C127.028 110.347 126.873 112.836 126.873 114.704C126.873 116.726 127.573 117.738 128.973 117.738C130.591 117.738 131.82 116.82 132.661 114.984C133.283 113.583 133.594 111.965 133.594 110.129C133.594 105.306 131.898 101.96 128.506 100.093Z" fill="#C2A8FF"/>
<path d="M80.0147 75.6282L79.6544 75.163L79.6512 75.1655L80.0147 75.6282ZM75.0668 78.849L75.2734 79.4L75.2801 79.3974L75.0668 78.849ZM73.5731 89.8651L74.1558 89.7835L74.1558 89.7833L73.5731 89.8651ZM74.0866 92.3857V92.9741H75.5071L74.5026 91.9697L74.0866 92.3857ZM63.5839 92.3857L63.2164 91.9263L61.9066 92.9741H63.5839V92.3857ZM67.4582 85.384L66.8899 85.2315L66.8894 85.2337L67.4582 85.384ZM67.0848 67.6462L67.6055 67.3721L67.6029 67.3672L67.0848 67.6462ZM65.031 64.4254V63.837H63.937L64.5401 64.7497L65.031 64.4254ZM80.9483 65.639L81.261 65.1406L81.2544 65.1364L81.2476 65.1325L80.9483 65.639ZM73.5731 72.9208L72.9853 72.9476L72.9859 72.9609L72.9871 72.9741L73.5731 72.9208ZM76.8873 74.0411L76.3895 73.7273L76.3836 73.737L76.8873 74.0411ZM77.4007 68.4397L76.9452 68.8124L76.954 68.8226L77.4007 68.4397ZM83.3289 69.7H82.7405C82.7405 71.7141 81.7593 73.5325 79.6544 75.163L80.0147 75.6282L80.3751 76.0933C82.6891 74.3008 83.9173 72.1671 83.9173 69.7H83.3289ZM80.0147 75.6282L79.6512 75.1655C77.4747 76.8756 75.8851 77.8995 74.8536 78.3006L75.0668 78.849L75.2801 79.3974C76.4892 78.9272 78.1981 77.8038 80.3783 76.0908L80.0147 75.6282ZM75.0668 78.849L74.8602 78.2981C73.9896 78.6246 73.439 79.448 73.1049 80.5173C72.7679 81.5956 72.6113 83.0409 72.6113 84.8238H73.1997H73.7881C73.7881 83.0903 73.9427 81.7816 74.2281 80.8683C74.5163 79.946 74.8992 79.5402 75.2734 79.3999L75.0668 78.849ZM73.1997 84.8238H72.6113C72.6113 86.4415 72.7382 88.1494 72.9904 89.9469L73.5731 89.8651L74.1558 89.7833C73.9102 88.0333 73.7881 86.3803 73.7881 84.8238H73.1997ZM73.5731 89.8651L72.9904 89.9467C73.0999 90.7286 73.1991 91.3417 73.2883 91.7797C73.3327 91.9974 73.3769 92.1837 73.4219 92.3306C73.4443 92.4036 73.4702 92.478 73.5009 92.5464C73.5259 92.6021 73.5774 92.7087 73.6705 92.8018L74.0866 92.3857L74.5026 91.9697C74.5646 92.0317 74.5835 92.0847 74.5745 92.0646C74.5712 92.0572 74.5616 92.0333 74.547 91.9858C74.5181 91.8915 74.4826 91.7472 74.4414 91.5448C74.3595 91.1425 74.2642 90.5576 74.1558 89.7835L73.5731 89.8651ZM74.0866 92.3857V91.7974H63.5839V92.3857V92.9741H74.0866V92.3857ZM63.5839 92.3857L63.9515 92.8452C65.8028 91.3642 67.1403 88.8913 68.0271 85.5342L67.4582 85.384L66.8894 85.2337C66.0335 88.4738 64.7882 90.6688 63.2164 91.9263L63.5839 92.3857ZM67.4582 85.384L68.0265 85.5364C68.7255 82.931 69.0735 80.1721 69.0735 77.2619H68.4852H67.8968C67.8968 80.0777 67.5602 82.7334 66.89 85.2315L67.4582 85.384ZM68.4852 77.2619H69.0735C69.0735 72.6241 68.613 69.2863 67.6055 67.3721L67.0848 67.6462L66.5641 67.9202C67.4238 69.5536 67.8968 72.6264 67.8968 77.2619H68.4852ZM67.0848 67.6462L67.6029 67.3672C67.3694 66.9336 66.6666 65.8335 65.5219 64.101L65.031 64.4254L64.5401 64.7497C65.6982 66.5025 66.3646 67.5496 66.5668 67.9251L67.0848 67.6462ZM65.031 64.4254V65.0138H76.1404V64.4254V63.837H65.031V64.4254ZM76.1404 64.4254V65.0138C77.8876 65.0138 79.3836 65.3979 80.649 66.1456L80.9483 65.639L81.2476 65.1325C79.7745 64.262 78.0652 63.837 76.1404 63.837V64.4254ZM80.9483 65.639L80.6356 66.1374C82.0705 67.0378 82.7405 68.2129 82.7405 69.7H83.3289H83.9173C83.9173 67.7641 83.0002 66.2319 81.261 65.1406L80.9483 65.639ZM75.4869 67.4128V66.8244C75.0587 66.8244 74.6574 66.9318 74.3055 67.1636C73.957 67.3932 73.6905 67.7225 73.4916 68.1157C73.1021 68.8853 72.9381 69.9651 72.9381 71.2871H73.5264H74.1148C74.1148 70.0262 74.2775 69.1689 74.5416 68.647C74.6693 68.3945 74.8113 68.2396 74.9529 68.1463C75.0912 68.0552 75.2617 68.0012 75.4869 68.0012V67.4128ZM73.5264 71.2871H72.9381C72.9381 71.7046 72.954 72.2592 72.9853 72.9476L73.5731 72.9208L74.1609 72.8941C74.1299 72.2132 74.1148 71.6787 74.1148 71.2871H73.5264ZM73.5731 72.9208L72.9871 72.9741C73.0501 73.6671 73.0781 74.0735 73.0781 74.2278H73.6665H74.2549C74.2549 74.0088 74.2206 73.5438 74.1591 72.8676L73.5731 72.9208ZM73.6665 74.2278H73.0781C73.0781 74.9939 73.0936 75.5852 73.1267 75.9911C73.1429 76.1895 73.1652 76.3701 73.2 76.5121C73.2162 76.5782 73.2444 76.6764 73.2986 76.7713C73.3359 76.8366 73.5026 77.1035 73.8532 77.1035V76.5151V75.9267C74.1727 75.9267 74.3102 76.1697 74.3203 76.1874C74.3472 76.2346 74.3502 76.2614 74.343 76.2322C74.3311 76.1835 74.3145 76.0783 74.2996 75.8954C74.2705 75.5389 74.2549 74.9867 74.2549 74.2278H73.6665ZM73.8532 76.5151V77.1035C75.2158 77.1035 76.3795 76.0206 77.391 74.3452L76.8873 74.0411L76.3836 73.737C75.4035 75.3603 74.5445 75.9267 73.8532 75.9267V76.5151ZM76.8873 74.0411L77.385 74.3549C78.3027 72.8992 78.8293 71.6144 78.8293 70.5402H78.241H77.6526C77.6526 71.271 77.2767 72.3201 76.3896 73.7273L76.8873 74.0411ZM78.241 70.5402H78.8293C78.8293 69.6318 78.4843 68.7997 77.8475 68.0568L77.4007 68.4397L76.954 68.8226C77.4375 69.3867 77.6526 69.955 77.6526 70.5402H78.241ZM77.4007 68.4397L77.8561 68.0671C77.2131 67.2812 76.4202 66.8244 75.4869 66.8244V67.4128V68.0012C75.9851 68.0012 76.4681 68.2289 76.9454 68.8123L77.4007 68.4397ZM96.8868 82.6766L96.6227 82.1509L96.1675 82.3795L96.3286 82.8627L96.8868 82.6766ZM104.309 84.5438L103.951 84.0763L103.946 84.0807L104.309 84.5438ZM106.783 81.603H107.371L106.259 81.3343L106.783 81.603ZM104.869 88.8849L104.367 88.5777L104.366 88.5793L104.869 88.8849ZM93.5726 89.585L94.0469 89.2367L94.0411 89.229L93.5726 89.585ZM91.0053 83.8903L91.578 83.7551L91.5768 83.7501L91.0053 83.8903ZM91.0053 73.3409L91.5779 73.4763L91.5779 73.4762L91.0053 73.3409ZM93.5259 67.5061L93.05 67.16L93.0435 67.1693L93.5259 67.5061ZM104.355 68.1596L104.857 67.8522L104.854 67.8478L104.355 68.1596ZM106.736 74.8347L106.155 74.9279L106.157 74.9399L106.736 74.8347ZM101.088 73.9478L101.377 74.4605L101.676 74.2917V73.9478H101.088ZM100.901 71.8006L100.321 71.8998L100.321 71.9014L100.901 71.8006ZM96.4667 73.7611L97.0503 73.8364L97.0515 73.8255L96.4667 73.7611ZM96.28 76.6551H95.6916V77.6617L96.5687 77.1678L96.28 76.6551ZM107.016 77.0285H106.428C106.428 76.9317 106.454 76.8607 106.47 76.826C106.486 76.7898 106.502 76.7682 106.506 76.763C106.513 76.7537 106.506 76.7652 106.467 76.7997C106.391 76.8667 106.259 76.9666 106.056 77.1024C105.654 77.371 105.037 77.7382 104.197 78.2067C102.52 79.1417 99.9972 80.4558 96.6227 82.1509L96.8868 82.6766L97.1509 83.2024C100.529 81.5055 103.071 80.1822 104.77 79.2345C105.618 78.7617 106.268 78.3762 106.71 78.0808C106.929 77.9346 107.113 77.7996 107.249 77.679C107.315 77.6196 107.387 77.549 107.447 77.4695C107.492 77.41 107.604 77.2505 107.604 77.0285H107.016ZM96.8868 82.6766L96.3286 82.8627C96.7095 84.0053 97.2615 84.9174 98.016 85.5447C98.7794 86.1793 99.7065 86.4858 100.761 86.4858V85.8974V85.3091C99.9486 85.3091 99.2964 85.0788 98.7683 84.6398C98.2314 84.1935 97.7799 83.4952 97.445 82.4906L96.8868 82.6766ZM100.761 85.8974V86.4858C102.132 86.4858 103.439 85.9733 104.672 85.0069L104.309 84.5438L103.946 84.0807C102.876 84.9192 101.818 85.3091 100.761 85.3091V85.8974ZM104.309 84.5438L104.666 85.0112C105.791 84.1506 106.674 83.1032 107.306 81.8718L106.783 81.603L106.259 81.3343C105.709 82.4057 104.942 83.3188 103.951 84.0764L104.309 84.5438ZM106.783 81.603H106.194C106.194 84.279 105.579 86.5971 104.367 88.5777L104.869 88.8849L105.371 89.192C106.71 87.0027 107.371 84.4662 107.371 81.603H106.783ZM104.869 88.8849L104.366 88.5793C102.966 90.8833 101.092 91.9841 98.7072 91.9841V92.5725V93.1608C101.55 93.1608 103.784 91.8032 105.372 89.1904L104.869 88.8849ZM98.7072 92.5725V91.9841C96.9823 91.9841 95.4306 91.1211 94.0469 89.2368L93.5726 89.585L93.0984 89.9333C94.6398 92.0322 96.5112 93.1608 98.7072 93.1608V92.5725ZM93.5726 89.585L94.0411 89.229C92.9164 87.7492 92.0914 85.9296 91.5779 83.7551L91.0053 83.8903L90.4327 84.0255C90.9773 86.332 91.8638 88.309 93.1042 89.9411L93.5726 89.585ZM91.0053 83.8903L91.5768 83.7501C91.1843 82.1502 90.9869 80.4549 90.9869 78.6623H90.3985H89.8101C89.8101 80.5417 90.0172 82.3317 90.4339 84.0304L91.0053 83.8903ZM90.3985 78.6623H90.9869C90.9869 76.8698 91.1843 75.1416 91.5779 73.4763L91.0053 73.3409L90.4327 73.2056C90.0172 74.9634 89.8101 76.7827 89.8101 78.6623H90.3985ZM91.0053 73.3409L91.5779 73.4762C92.0923 71.2975 92.9052 69.4232 94.0084 67.8429L93.5259 67.5061L93.0435 67.1693C91.8439 68.8877 90.9763 70.9032 90.4327 73.2057L91.0053 73.3409ZM93.5259 67.5061L94.0018 67.8522C95.4208 65.9011 96.9889 65.0138 98.7072 65.0138V64.4254V63.837C96.5046 63.837 94.6185 65.0035 93.0501 67.1601L93.5259 67.5061ZM98.7072 64.4254V65.0138C100.649 65.0138 102.368 66.0905 103.856 68.4715L104.355 68.1596L104.854 67.8478C103.231 65.2498 101.185 63.837 98.7072 63.837V64.4254ZM104.355 68.1596L103.854 68.4671C104.991 70.3231 105.761 72.4735 106.155 74.9279L106.736 74.8347L107.317 74.7414C106.902 72.1546 106.085 69.855 104.857 67.8522L104.355 68.1596ZM106.736 74.8347L106.157 74.9399C106.344 75.9667 106.428 76.6514 106.428 77.0285H107.016H107.604C107.604 76.5344 107.502 75.7565 107.315 74.7294L106.736 74.8347ZM101.088 73.9478H101.676C101.676 73.1977 101.611 72.4483 101.481 71.6997L100.901 71.8006L100.321 71.9014C100.44 72.5843 100.499 73.2663 100.499 73.9478H101.088ZM100.901 71.8006L101.481 71.7014C101.274 70.4905 100.974 69.5165 100.55 68.8304C100.115 68.1273 99.5033 67.6646 98.7072 67.6646V68.253V68.8414C98.9692 68.8414 99.2524 68.97 99.5488 69.4494C99.8558 69.9458 100.124 70.7456 100.321 71.8998L100.901 71.8006ZM98.7072 68.253V67.6646C97.768 67.6646 97.1706 68.4609 96.7852 69.4083C96.3807 70.4028 96.0859 71.8446 95.8818 73.6966L96.4667 73.7611L97.0515 73.8255C97.252 72.0055 97.5329 70.6933 97.8753 69.8517C98.2367 68.9631 98.5574 68.8414 98.7072 68.8414V68.253ZM96.4667 73.7611L95.8831 73.6858C95.7555 74.6752 95.6916 75.665 95.6916 76.6551H96.28H96.8684C96.8684 75.7158 96.929 74.7763 97.0502 73.8363L96.4667 73.7611ZM96.28 76.6551L96.5687 77.1678L101.377 74.4605L101.088 73.9478L100.799 73.4351L95.9913 76.1424L96.28 76.6551ZM128.54 70.2135L129.125 70.272L129.268 68.8404L128.163 69.7615L128.54 70.2135ZM126.999 73.5743L127.429 73.9763L127.435 73.9694L126.999 73.5743ZM122.752 74.8347L122.953 74.2817L122.402 74.0815L122.2 74.6312L122.752 74.8347ZM127.84 78.6623L128.41 78.5161L127.876 76.4357L127.275 78.4975L127.84 78.6623ZM126.906 88.9782L126.38 88.7151L126.376 88.7234L126.906 88.9782ZM117.197 78.6623L117.783 78.7163L117.197 78.6623ZM112.529 64.4254V63.837L112.346 64.9846L112.529 64.4254ZM117.057 64.472L117.085 63.8843L117.076 63.884L117.057 64.472ZM123.919 71.4271L123.392 71.164L123.064 71.82L123.776 71.9979L123.919 71.4271ZM128.54 70.2135L127.954 70.1549C127.843 71.2649 127.388 72.2694 126.563 73.1792L126.999 73.5743L127.435 73.9694C128.416 72.8877 128.987 71.6516 129.125 70.272L128.54 70.2135ZM126.999 73.5743L126.57 73.1724C125.768 74.0299 124.861 74.433 123.825 74.433V75.0214V75.6098C125.217 75.6098 126.426 75.0482 127.429 73.9763L126.999 73.5743ZM123.825 75.0214V74.433C123.519 74.433 123.229 74.3821 122.953 74.2817L122.752 74.8347L122.551 75.3876C122.959 75.5361 123.385 75.6098 123.825 75.6098V75.0214ZM122.752 74.8347L122.2 74.6312C121.738 75.8843 121.51 77.2297 121.51 78.6623H122.098H122.687C122.687 77.3565 122.894 76.15 123.304 75.0381L122.752 74.8347ZM122.098 78.6623H121.51C121.51 80.187 121.701 81.4193 122.146 82.2906C122.373 82.7348 122.674 83.1017 123.063 83.356C123.456 83.6123 123.904 83.7318 124.385 83.7318V83.1434V82.555C124.105 82.555 123.886 82.4878 123.707 82.3707C123.524 82.2516 123.349 82.0583 123.194 81.7556C122.876 81.1333 122.687 80.125 122.687 78.6623H122.098ZM124.385 83.1434V83.7318C125.338 83.7318 126.14 83.224 126.789 82.3823C127.429 81.5518 127.96 80.3514 128.405 78.827L127.84 78.6623L127.275 78.4975C126.848 79.9606 126.368 81.0008 125.857 81.6639C125.354 82.316 124.864 82.555 124.385 82.555V83.1434ZM127.84 78.6623L127.27 78.8084C127.568 79.9701 127.718 81.2121 127.718 82.5366H128.306H128.895C128.895 81.1226 128.734 79.7817 128.41 78.5161L127.84 78.6623ZM128.306 82.5366H127.718C127.718 84.8874 127.266 86.942 126.38 88.7151L126.906 88.9782L127.432 89.2414C128.413 87.2802 128.895 85.0404 128.895 82.5366H128.306ZM126.906 88.9782L126.376 88.7234C125.83 89.8583 125.183 90.6693 124.45 91.1963C123.724 91.7187 122.885 91.9841 121.912 91.9841V92.5725V93.1608C123.116 93.1608 124.199 92.8272 125.138 92.1515C126.07 91.4804 126.83 90.4943 127.436 89.2331L126.906 88.9782ZM121.912 92.5725V91.9841C120.435 91.9841 119.37 91.3786 118.637 90.1379C117.876 88.8487 117.459 86.8391 117.459 84.0303H116.87H116.282C116.282 86.9163 116.704 89.1778 117.624 90.736C118.572 92.3426 120.027 93.1608 121.912 93.1608V92.5725ZM116.87 84.0303H117.459C117.459 82.8445 117.565 81.0769 117.783 78.7163L117.197 78.6623L116.611 78.6083C116.393 80.9778 116.282 82.7889 116.282 84.0303H116.87ZM117.197 78.6623L117.783 78.7163C118.001 76.3473 118.112 74.5516 118.112 73.3409H117.524H116.935C116.935 74.4954 116.829 76.2472 116.611 78.6083L117.197 78.6623ZM117.524 73.3409H118.112C118.112 70.8533 117.687 68.7869 116.788 67.1836C115.882 65.5649 114.513 64.4552 112.712 63.8661L112.529 64.4254L112.346 64.9846C113.875 65.4847 115.004 66.4056 115.762 67.7587C116.528 69.1273 116.935 70.9741 116.935 73.3409H117.524ZM112.529 64.4254V65.0138C114.582 65.0138 116.083 65.0293 117.038 65.0601L117.057 64.472L117.076 63.884C116.101 63.8525 114.584 63.837 112.529 63.837V64.4254ZM117.057 64.472L117.028 65.0597C119.567 65.1828 121.391 65.5739 122.561 66.1841C123.696 66.7754 124.171 67.5387 124.171 68.4864H124.759H125.347C125.347 67.0068 124.538 65.8874 123.105 65.1406C121.709 64.4127 119.682 64.0102 117.085 63.8844L117.057 64.472ZM124.759 68.4864H124.171C124.171 69.2015 123.93 70.0886 123.392 71.164L123.919 71.4271L124.445 71.6903C125.028 70.5251 125.347 69.4517 125.347 68.4864H124.759ZM123.919 71.4271L123.776 71.9979C124.313 72.1321 124.828 72.2022 125.319 72.2022V71.6138V71.0255C124.939 71.0255 124.521 70.9711 124.061 70.8563L123.919 71.4271ZM125.319 71.6138V72.2022C126.531 72.2022 127.734 71.6508 128.917 70.6655L128.54 70.2135L128.163 69.7615C127.105 70.6433 126.161 71.0255 125.319 71.0255V71.6138ZM85.9896 95.4254L86.5034 95.1387L86.3351 94.837H85.9896V95.4254ZM86.5964 111.669L86.0559 111.437L86.0549 111.439L86.5964 111.669ZM84.9626 115.404L84.4261 115.162L84.4175 115.181L84.4103 115.201L84.9626 115.404ZM85.4761 123.386V123.974H86.5974L85.9603 123.051L85.4761 123.386ZM77.4941 123.386L76.9575 123.627L77.1137 123.974H77.4941V123.386ZM77.4941 114.003L78.0477 114.203L77.0573 113.609L77.4941 114.003ZM75.2069 116.851L75.6964 117.177L75.7042 117.165L75.7114 117.153L75.2069 116.851ZM74.6934 123.386V123.974H75.5165L75.2501 123.195L74.6934 123.386ZM65.171 123.386L64.7594 122.965L63.7286 123.974H65.171V123.386ZM68.7186 117.644L69.2692 117.852L69.272 117.844L68.7186 117.644ZM69.8855 109.569L70.4724 109.527L70.4712 109.511L70.4692 109.494L69.8855 109.569ZM67.6916 105.368L68.1175 104.962L68.1138 104.958L67.6916 105.368ZM64.2841 101.727L64.7737 101.401L64.7723 101.399L64.2841 101.727ZM62.557 95.4254V94.837H61.9686V95.4254H62.557ZM71.0058 95.4254L71.5265 95.6994L71.9804 94.837H71.0058V95.4254ZM72.8729 101.867L72.4149 102.236L72.4273 102.252L72.4406 102.266L72.8729 101.867ZM74.2733 104.061L74.8262 103.86L74.8123 103.822L74.7933 103.786L74.2733 104.061ZM74.0399 110.502L73.4746 110.339L74.4925 110.878L74.0399 110.502ZM75.1602 101.54V100.952H74.2245L74.6299 101.795L75.1602 101.54ZM79.7813 101.4L80.2843 101.095L80.0911 100.777L79.7208 100.815L79.7813 101.4ZM80.7616 110.502L80.1879 110.372L81.224 110.866L80.7616 110.502ZM82.9088 102.941L82.3233 102.999L82.3262 103.028L82.3318 103.056L82.9088 102.941ZM80.9016 99.3464L80.4488 99.7221L80.4535 99.7277L80.9016 99.3464ZM79.1278 95.4254V94.837H78.6455L78.5509 95.31L79.1278 95.4254ZM85.9896 95.4254L85.4757 95.712C87.0869 98.6 87.8751 101.365 87.8751 104.014H88.4635H89.0519C89.0519 101.124 88.1908 98.1633 86.5034 95.1387L85.9896 95.4254ZM88.4635 104.014H87.8751C87.8751 106.117 87.2815 108.587 86.0559 111.437L86.5964 111.669L87.1369 111.902C88.4008 108.963 89.0519 106.33 89.0519 104.014H88.4635ZM86.5964 111.669L86.0549 111.439C85.5275 112.68 84.9846 113.921 84.4261 115.162L84.9626 115.404L85.4992 115.645C86.061 114.397 86.6073 113.148 87.1379 111.9L86.5964 111.669ZM84.9626 115.404L84.4103 115.201C83.8369 116.762 83.5341 118.141 83.5341 119.325H84.1224H84.7108C84.7108 118.33 84.9681 117.095 85.5149 115.607L84.9626 115.404ZM84.1224 119.325H83.5341C83.5341 120.86 84.0311 122.328 84.9919 123.72L85.4761 123.386L85.9603 123.051C85.1163 121.829 84.7108 120.59 84.7108 119.325H84.1224ZM85.4761 123.386V122.797H77.4941V123.386V123.974H85.4761V123.386ZM77.4941 123.386L78.0307 123.144C77.5127 121.993 77.2423 120.586 77.2423 118.905H76.6539H76.0655C76.0655 120.708 76.3552 122.289 76.9575 123.627L77.4941 123.386ZM76.6539 118.905H77.2423C77.2423 117.259 77.5114 115.692 78.0477 114.203L77.4941 114.003L76.9405 113.804C76.3565 115.426 76.0655 117.128 76.0655 118.905H76.6539ZM77.4941 114.003L77.0573 113.609C75.9055 114.886 75.1081 115.872 74.7023 116.548L75.2069 116.851L75.7114 117.153C76.0525 116.585 76.7799 115.673 77.9309 114.398L77.4941 114.003ZM75.2069 116.851L74.7173 116.524C73.9172 117.725 73.4982 118.972 73.4982 120.258H74.0866H74.675C74.675 119.242 75.0028 118.218 75.6964 117.177L75.2069 116.851ZM74.0866 120.258H73.4982C73.4982 121.245 73.7186 122.354 74.1367 123.576L74.6934 123.386L75.2501 123.195C74.8591 122.052 74.675 121.076 74.675 120.258H74.0866ZM74.6934 123.386V122.797H65.171V123.386V123.974H74.6934V123.386ZM65.171 123.386L65.5825 123.806C67.1199 122.302 68.3439 120.309 69.2692 117.852L68.7186 117.644L68.1679 117.437C67.2884 119.772 66.1473 121.607 64.7594 122.965L65.171 123.386ZM68.7186 117.644L69.272 117.844C70.102 115.545 70.5206 113.269 70.5206 111.016H69.9322H69.3438C69.3438 113.12 68.9533 115.262 68.1652 117.444L68.7186 117.644ZM69.9322 111.016H70.5206C70.5206 110.476 70.5047 109.979 70.4724 109.527L69.8855 109.569L69.2986 109.611C69.3286 110.03 69.3438 110.498 69.3438 111.016H69.9322ZM69.8855 109.569L70.4692 109.494C70.2629 107.879 69.4577 106.367 68.1175 104.962L67.6916 105.368L67.2658 105.774C68.4773 107.045 69.1347 108.334 69.3019 109.643L69.8855 109.569ZM67.6916 105.368L68.1138 104.958C67.0721 103.885 66.2699 103.048 65.7056 102.445C65.4233 102.144 65.2028 101.903 65.0426 101.722C64.873 101.53 64.7943 101.432 64.7737 101.401L64.2841 101.727L63.7945 102.053C63.8672 102.162 64.0005 102.32 64.1616 102.502C64.3321 102.695 64.5609 102.944 64.8464 103.249C65.418 103.86 66.2262 104.703 67.2695 105.778L67.6916 105.368ZM64.2841 101.727L64.7723 101.399C63.6987 99.8026 63.1454 97.8224 63.1454 95.4254H62.557H61.9686C61.9686 98.0073 62.5667 100.228 63.7959 102.055L64.2841 101.727ZM62.557 95.4254V96.0138H71.0058V95.4254V94.837H62.557V95.4254ZM71.0058 95.4254L70.4851 95.1513C70.1328 95.8207 69.9506 96.521 69.9506 97.2458H70.539H71.1274C71.1274 96.7259 71.2564 96.2125 71.5265 95.6994L71.0058 95.4254ZM70.539 97.2458H69.9506C69.9506 97.9482 70.1858 98.7151 70.5973 99.5299C71.0111 100.349 71.6212 101.252 72.4149 102.236L72.8729 101.867L73.3309 101.498C72.5687 100.553 72.0119 99.7205 71.6477 98.9994C71.2813 98.2739 71.1274 97.6949 71.1274 97.2458H70.539ZM72.8729 101.867L72.4406 102.266C72.7586 102.611 73.1958 103.283 73.7533 104.336L74.2733 104.061L74.7933 103.786C74.2305 102.722 73.7342 101.933 73.3053 101.468L72.8729 101.867ZM74.2733 104.061L73.7203 104.262C73.9396 104.865 74.0583 105.618 74.0583 106.535H74.6467H75.2351C75.2351 105.523 75.1049 104.626 74.8262 103.86L74.2733 104.061ZM74.6467 106.535H74.0583C74.0583 107.716 73.8664 108.983 73.4746 110.339L74.0399 110.502L74.6052 110.666C75.0225 109.221 75.2351 107.843 75.2351 106.535H74.6467ZM74.0399 110.502L74.4925 110.878C76.0436 109.011 76.9155 107.289 76.9155 105.741H76.3271H75.7388C75.7388 106.87 75.0858 108.322 73.5873 110.127L74.0399 110.502ZM76.3271 105.741H76.9155C76.9155 104.437 76.4887 102.946 75.6905 101.285L75.1602 101.54L74.6299 101.795C75.3876 103.371 75.7388 104.681 75.7388 105.741H76.3271ZM75.1602 101.54V102.129H76.8873V101.54V100.952H75.1602V101.54ZM76.8873 101.54V102.129C77.9318 102.129 78.9169 102.081 79.8419 101.985L79.7813 101.4L79.7208 100.815C78.8409 100.906 77.8966 100.952 76.8873 100.952V101.54ZM79.7813 101.4L79.2784 101.706C80.3002 103.389 80.78 104.901 80.78 106.255H81.3684H81.9568C81.9568 104.621 81.3786 102.897 80.2843 101.095L79.7813 101.4ZM81.3684 106.255H80.78C80.78 107.248 80.5886 108.615 80.1879 110.372L80.7616 110.502L81.3352 110.633C81.7437 108.843 81.9568 107.377 81.9568 106.255H81.3684ZM80.7616 110.502L81.224 110.866C82.7997 108.864 83.5905 106.573 83.5905 104.014H83.0022H82.4138C82.4138 106.31 81.7109 108.345 80.2992 110.139L80.7616 110.502ZM83.0022 104.014H83.5905C83.5905 103.581 83.5573 103.183 83.4858 102.825L82.9088 102.941L82.3318 103.056C82.3847 103.32 82.4138 103.638 82.4138 104.014H83.0022ZM82.9088 102.941L83.4943 102.882C83.3818 101.757 82.6054 100.44 81.3497 98.965L80.9016 99.3464L80.4535 99.7277C81.6873 101.177 82.2491 102.257 82.3233 102.999L82.9088 102.941ZM80.9016 99.3464L81.3544 98.9706C80.7629 98.2578 80.3347 97.6389 80.0568 97.1115C79.7758 96.5783 79.6695 96.1783 79.6695 95.8922H79.0812H78.4928C78.4928 96.4462 78.69 97.0421 79.0158 97.6602C79.3447 98.2843 79.8267 98.9724 80.4488 99.7221L80.9016 99.3464ZM79.0812 95.8922H79.6695C79.6695 95.7761 79.6811 95.6591 79.7048 95.5408L79.1278 95.4254L78.5509 95.31C78.5123 95.5028 78.4928 95.6971 78.4928 95.8922H79.0812ZM79.1278 95.4254V96.0138H85.9896V95.4254V94.837H79.1278V95.4254ZM102.175 113.677L101.91 113.151L101.455 113.379L101.616 113.863L102.175 113.677ZM109.596 115.544L109.239 115.076L109.233 115.081L109.596 115.544ZM112.07 112.603H112.659L111.547 112.334L112.07 112.603ZM110.157 119.885L109.655 119.578L109.654 119.579L110.157 119.885ZM98.8604 120.585L99.3347 120.237L99.3289 120.229L98.8604 120.585ZM96.2931 114.89L96.8658 114.755L96.8645 114.75L96.2931 114.89ZM96.2931 104.341L96.8657 104.476L96.8657 104.476L96.2931 104.341ZM98.8137 98.5061L98.3378 98.16L98.3313 98.1693L98.8137 98.5061ZM109.643 99.1596L110.145 98.8522L110.142 98.8478L109.643 99.1596ZM112.024 105.835L111.443 105.928L111.445 105.94L112.024 105.835ZM106.376 104.948L106.664 105.46L106.964 105.292V104.948H106.376ZM106.189 102.801L105.609 102.9L105.609 102.901L106.189 102.801ZM101.754 104.761L102.338 104.836L102.339 104.825L101.754 104.761ZM101.568 107.655H100.979V108.662L101.856 108.168L101.568 107.655ZM112.304 108.029H111.715C111.715 107.932 111.742 107.861 111.758 107.826C111.774 107.79 111.79 107.768 111.794 107.763C111.801 107.754 111.793 107.765 111.755 107.8C111.679 107.867 111.547 107.967 111.344 108.102C110.942 108.371 110.325 108.738 109.485 109.207C107.808 110.142 105.285 111.456 101.91 113.151L102.175 113.677L102.439 114.202C105.817 112.505 108.358 111.182 110.058 110.235C110.906 109.762 111.556 109.376 111.998 109.081C112.216 108.935 112.401 108.8 112.537 108.679C112.603 108.62 112.675 108.549 112.735 108.47C112.779 108.41 112.892 108.25 112.892 108.029H112.304ZM102.175 113.677L101.616 113.863C101.997 115.005 102.549 115.917 103.304 116.545C104.067 117.179 104.994 117.486 106.049 117.486V116.897V116.309C105.236 116.309 104.584 116.079 104.056 115.64C103.519 115.193 103.068 114.495 102.733 113.491L102.175 113.677ZM106.049 116.897V117.486C107.42 117.486 108.726 116.973 109.959 116.007L109.596 115.544L109.233 115.081C108.164 115.919 107.106 116.309 106.049 116.309V116.897ZM109.596 115.544L109.954 116.011C111.079 115.151 111.961 114.103 112.594 112.872L112.07 112.603L111.547 112.334C110.997 113.406 110.23 114.319 109.239 115.076L109.596 115.544ZM112.07 112.603H111.482C111.482 115.279 110.867 117.597 109.655 119.578L110.157 119.885L110.658 120.192C111.998 118.003 112.659 115.466 112.659 112.603H112.07ZM110.157 119.885L109.654 119.579C108.254 121.883 106.38 122.984 103.995 122.984V123.572V124.161C106.838 124.161 109.072 122.803 110.659 120.19L110.157 119.885ZM103.995 123.572V122.984C102.27 122.984 100.718 122.121 99.3347 120.237L98.8604 120.585L98.3862 120.933C99.9276 123.032 101.799 124.161 103.995 124.161V123.572ZM98.8604 120.585L99.3289 120.229C98.2042 118.749 97.3792 116.93 96.8657 114.755L96.2931 114.89L95.7205 115.025C96.2651 117.332 97.1516 119.309 98.392 120.941L98.8604 120.585ZM96.2931 114.89L96.8645 114.75C96.4721 113.15 96.2747 111.455 96.2747 109.662H95.6863H95.0979C95.0979 111.542 95.305 113.332 95.7217 115.03L96.2931 114.89ZM95.6863 109.662H96.2747C96.2747 107.87 96.4721 106.142 96.8657 104.476L96.2931 104.341L95.7205 104.206C95.305 105.963 95.0979 107.783 95.0979 109.662H95.6863ZM96.2931 104.341L96.8657 104.476C97.3801 102.298 98.193 100.423 99.2962 98.8429L98.8137 98.5061L98.3313 98.1693C97.1317 99.8877 96.2641 101.903 95.7205 104.206L96.2931 104.341ZM98.8137 98.5061L99.2896 98.8522C100.709 96.9011 102.277 96.0138 103.995 96.0138V95.4254V94.837C101.792 94.837 99.9063 96.0035 98.3379 98.1601L98.8137 98.5061ZM103.995 95.4254V96.0138C105.937 96.0138 107.656 97.0905 109.144 99.4715L109.643 99.1596L110.142 98.8478C108.518 96.2498 106.472 94.837 103.995 94.837V95.4254ZM109.643 99.1596L109.141 99.4671C110.279 101.323 111.049 103.473 111.443 105.928L112.024 105.835L112.605 105.741C112.19 103.155 111.372 100.855 110.145 98.8522L109.643 99.1596ZM112.024 105.835L111.445 105.94C111.632 106.967 111.715 107.651 111.715 108.029H112.304H112.892C112.892 107.534 112.789 106.756 112.603 105.729L112.024 105.835ZM106.376 104.948H106.964C106.964 104.198 106.899 103.448 106.769 102.7L106.189 102.801L105.609 102.901C105.728 103.584 105.787 104.266 105.787 104.948H106.376ZM106.189 102.801L106.769 102.701C106.562 101.49 106.262 100.516 105.837 99.8304C105.403 99.1273 104.791 98.6646 103.995 98.6646V99.253V99.8414C104.257 99.8414 104.54 99.97 104.837 100.449C105.144 100.946 105.412 101.746 105.609 102.9L106.189 102.801ZM103.995 99.253V98.6646C103.056 98.6646 102.458 99.4609 102.073 100.408C101.668 101.403 101.374 102.845 101.17 104.697L101.754 104.761L102.339 104.825C102.54 103.005 102.821 101.693 103.163 100.852C103.525 99.9631 103.845 99.8414 103.995 99.8414V99.253ZM101.754 104.761L101.171 104.686C101.043 105.675 100.979 106.665 100.979 107.655H101.568H102.156C102.156 106.716 102.217 105.776 102.338 104.836L101.754 104.761ZM101.568 107.655L101.856 108.168L106.664 105.46L106.376 104.948L106.087 104.435L101.279 107.142L101.568 107.655ZM138.449 115.45L137.887 115.276L137.886 115.278L138.449 115.45ZM135.228 120.958L134.816 120.538L134.816 120.538L135.228 120.958ZM118.377 123.386L117.951 122.98L117.006 123.974H118.377V123.386ZM122.531 115.917L121.97 115.741L121.97 115.741L122.531 115.917ZM122.718 101.073L122.167 101.28L122.173 101.295L122.179 101.309L122.718 101.073ZM121.038 98.4595L120.55 98.7892L120.553 98.7928L121.038 98.4595ZM120.011 95.6588L120.599 95.6814L120.599 95.6701V95.6588H120.011ZM120.011 95.4254V94.837H119.422V95.4254H120.011ZM134.901 98.3194L134.472 98.7214L134.473 98.7229L134.901 98.3194ZM138.309 103.968L137.753 104.161L137.754 104.165L138.309 103.968ZM128.506 100.093L128.79 99.5778L128.145 99.2227L127.941 99.9301L128.506 100.093ZM127.339 107.235L127.925 107.294L127.925 107.293L127.339 107.235ZM132.661 114.984L133.196 115.228L133.198 115.223L132.661 114.984ZM139.289 109.662H138.701C138.701 111.662 138.428 113.532 137.887 115.276L138.449 115.45L139.011 115.625C139.59 113.759 139.877 111.77 139.877 109.662H139.289ZM138.449 115.45L137.886 115.278C137.226 117.439 136.199 119.185 134.816 120.538L135.228 120.958L135.64 121.379C137.182 119.869 138.302 117.943 139.012 115.622L138.449 115.45ZM135.228 120.958L134.816 120.538C133.269 122.056 131.501 122.797 129.487 122.797V123.386V123.974C131.829 123.974 133.888 123.097 135.64 121.378L135.228 120.958ZM129.487 123.386V122.797H118.377V123.386V123.974H129.487V123.386ZM118.377 123.386L118.804 123.791C120.683 121.814 122.108 119.24 123.093 116.093L122.531 115.917L121.97 115.741C121.026 118.756 119.681 121.161 117.951 122.98L118.377 123.386ZM122.531 115.917L123.093 116.094C123.982 113.268 124.427 110.392 124.427 107.468H123.838H123.25C123.25 110.271 122.824 113.027 121.97 115.741L122.531 115.917ZM123.838 107.468H124.427C124.427 104.864 124.046 102.646 123.257 100.838L122.718 101.073L122.179 101.309C122.884 102.924 123.25 104.97 123.25 107.468H123.838ZM122.718 101.073L123.269 100.867C123.226 100.753 123.15 100.613 123.069 100.474C122.981 100.323 122.865 100.136 122.723 99.9151C122.438 99.4719 122.037 98.8749 121.523 98.1261L121.038 98.4595L120.553 98.7928C121.065 99.5378 121.458 100.123 121.733 100.551C121.871 100.766 121.977 100.937 122.052 101.067C122.09 101.131 122.119 101.183 122.139 101.222C122.161 101.264 122.168 101.281 122.167 101.28L122.718 101.073ZM121.038 98.4595L121.525 98.1298C120.842 97.1198 120.575 96.3117 120.599 95.6814L120.011 95.6588L119.423 95.6361C119.385 96.624 119.802 97.683 120.55 98.7891L121.038 98.4595ZM120.011 95.6588H120.599V95.4254H120.011H119.422V95.6588H120.011ZM120.011 95.4254V96.0138H129.253V95.4254V94.837H120.011V95.4254ZM129.253 95.4254V96.0138C131 96.0138 132.738 96.8679 134.472 98.7214L134.901 98.3194L135.331 97.9175C133.455 95.9122 131.427 94.837 129.253 94.837V95.4254ZM134.901 98.3194L134.473 98.7229C135.94 100.279 137.033 102.09 137.753 104.161L138.309 103.968L138.865 103.774C138.091 101.551 136.912 99.5958 135.329 97.9159L134.901 98.3194ZM138.309 103.968L137.754 104.165C138.385 105.937 138.701 107.769 138.701 109.662H139.289H139.877C139.877 107.635 139.539 105.67 138.863 103.77L138.309 103.968ZM128.506 100.093L127.941 99.9301C127.459 101.601 127.066 104.024 126.754 107.177L127.339 107.235L127.925 107.293C128.235 104.16 128.62 101.822 129.072 100.256L128.506 100.093ZM127.339 107.235L126.754 107.176C126.442 110.297 126.284 112.808 126.284 114.704H126.873H127.461C127.461 112.865 127.614 110.397 127.925 107.294L127.339 107.235ZM126.873 114.704H126.284C126.284 115.765 126.465 116.665 126.914 117.314C127.39 118.002 128.111 118.326 128.973 118.326V117.738V117.149C128.435 117.149 128.105 116.967 127.881 116.644C127.631 116.282 127.461 115.665 127.461 114.704H126.873ZM128.973 117.738V118.326C129.902 118.326 130.739 118.06 131.461 117.521C132.175 116.987 132.747 116.209 133.196 115.228L132.661 114.984L132.126 114.739C131.734 115.595 131.271 116.193 130.757 116.578C130.249 116.956 129.663 117.149 128.973 117.149V117.738ZM132.661 114.984L133.198 115.223C133.86 113.734 134.183 112.031 134.183 110.129H133.594H133.006C133.006 111.899 132.706 113.433 132.123 114.745L132.661 114.984ZM133.594 110.129H134.183C134.183 105.153 132.419 101.575 128.79 99.5778L128.506 100.093L128.223 100.609C131.378 102.346 133.006 105.458 133.006 110.129H133.594Z" fill="#C2A8FF" mask="url(#path-3-outside-1_1963_3)"/>
<path d="M53.5934 73.6642L31.565 65.2323" stroke="#C2A8FF" stroke-width="3.77992" stroke-linecap="round"/>
<path d="M167.889 65.9639L146.35 75.5781" stroke="#C2A8FF" stroke-width="3.77992" stroke-linecap="round"/>
<path d="M52.1896 108.387L30.9996 118.747" stroke="#C2A8FF" stroke-width="3.77992" stroke-linecap="round"/>
<path d="M148.332 106.899L169.889 116.472" stroke="#C2A8FF" stroke-width="3.77992" stroke-linecap="round"/>
<path d="M50.583 90.8686L26.9999 91.3027" stroke="#C2A8FF" stroke-width="3.77992" stroke-linecap="round"/>
<path d="M171.554 91.9078L147.97 91.5186" stroke="#C2A8FF" stroke-width="3.77992" stroke-linecap="round"/>
</svg>
