<svg width="145" height="145" viewBox="0 0 145 145" fill="none" xmlns="http://www.w3.org/2000/svg">
<circle cx="72.5" cy="72.5" r="70.6692" fill="#C2A8FF" stroke="#FFC9E4" stroke-width="3.66162"/>
<mask id="path-2-outside-1_1933_355" maskUnits="userSpaceOnUse" x="44.4273" y="47.1514" width="59" height="45" fill="black">
<rect fill="white" x="44.4273" y="47.1514" width="59" height="45"/>
<path d="M61.0237 51.5381C61.0237 53.1789 60.2147 54.626 58.5967 55.8794C57.0015 57.1328 55.7936 57.919 54.9732 58.2381C54.0617 58.5799 53.6059 60.0384 53.6059 62.6136C53.6059 63.7759 53.697 65.0065 53.8794 66.3054C54.0389 67.4449 54.1642 68.0602 54.2554 68.1514H46.564C47.8174 67.1486 48.7632 65.4395 49.4013 63.0238C49.9026 61.1551 50.1533 59.1725 50.1533 57.0759C50.1533 53.6803 49.8115 51.333 49.1278 50.034C48.9683 49.7378 48.4669 48.9515 47.6237 47.6753H55.7595C57.104 47.6753 58.2777 47.9716 59.2804 48.5641C60.4426 49.2934 61.0237 50.2847 61.0237 51.5381ZM55.2809 49.8631C54.3237 49.8631 53.8452 50.8088 53.8452 52.7003C53.8452 52.9966 53.8566 53.3954 53.8794 53.8968C53.9249 54.3981 53.9477 54.7172 53.9477 54.8539C53.9477 55.9706 53.9933 56.5289 54.0845 56.5289C54.8365 56.5289 55.5771 55.925 56.3064 54.7172C56.9673 53.6689 57.2977 52.8143 57.2977 52.1534C57.2977 51.6065 57.0926 51.0937 56.6824 50.6151C56.2722 50.1138 55.805 49.8631 55.2809 49.8631ZM78.3704 56.9049C78.3704 57.1784 75.8977 58.5571 70.9525 61.0412C71.4767 62.6136 72.4224 63.3998 73.7897 63.3998C74.6785 63.3998 75.5445 63.0694 76.3877 62.4085C77.1625 61.816 77.7665 61.0981 78.1994 60.2549C78.1994 62.2832 77.7323 64.0607 76.7979 65.5876C75.704 67.3879 74.2 68.2881 72.2857 68.2881C70.85 68.2881 69.5965 67.5588 68.5255 66.1003C67.6595 64.9609 67.0328 63.5708 66.6454 61.9299C66.3491 60.7221 66.201 59.4459 66.201 58.1014C66.201 56.7568 66.3491 55.4578 66.6454 54.2044C67.0328 52.5636 67.6481 51.1393 68.4913 49.9315C69.5852 48.4274 70.85 47.6753 72.2857 47.6753C73.9037 47.6753 75.2824 48.5869 76.4219 50.41C77.2879 51.823 77.869 53.4524 78.1653 55.2983C78.302 56.0503 78.3704 56.5859 78.3704 56.9049ZM74.029 54.6488C74.029 54.1247 73.9835 53.6005 73.8923 53.0764C73.596 51.3444 73.0605 50.4784 72.2857 50.4784C71.488 50.4784 70.9411 51.823 70.6448 54.5121C70.5537 55.2185 70.5081 55.925 70.5081 56.6315L74.029 54.6488ZM94.1328 51.9141C94.0416 52.8257 93.6656 53.6461 93.0047 54.3753C92.3438 55.0818 91.569 55.435 90.6802 55.435C90.4068 55.435 90.1447 55.3895 89.894 55.2983C89.575 56.1643 89.4154 57.0986 89.4154 58.1014C89.4154 60.2891 89.9738 61.383 91.0904 61.383C92.1387 61.383 92.9819 60.2891 93.62 58.1014C93.8479 58.9901 93.9619 59.9359 93.9619 60.9386C93.9619 62.7162 93.62 64.2886 92.9364 65.656C92.0932 67.4107 90.8739 68.2881 89.2787 68.2881C86.8175 68.2881 85.5869 66.2029 85.5869 62.0325C85.5869 61.1437 85.6666 59.8333 85.8261 58.1014C85.9857 56.3694 86.0654 55.0704 86.0654 54.2044C86.0654 50.6493 84.8462 48.473 82.4078 47.6753C83.9119 47.6753 85.0171 47.6867 85.7236 47.7095C89.4838 47.8918 91.3639 48.8718 91.3639 50.6493C91.3639 51.2646 91.1588 51.9825 90.7486 52.8029C91.1132 52.894 91.4551 52.9396 91.7741 52.9396C92.5261 52.9396 93.3124 52.5978 94.1328 51.9141ZM62.9722 70.6753C64.18 72.8403 64.7839 74.9369 64.7839 76.9651C64.7839 78.5832 64.3282 80.4519 63.4166 82.5713C63.0292 83.4828 62.6304 84.3944 62.2202 85.306C61.81 86.4226 61.6049 87.3798 61.6049 88.1774C61.6049 89.2029 61.9353 90.1942 62.5962 91.1514H56.7508C56.3406 90.2398 56.1355 89.1459 56.1355 87.8697C56.1355 86.6163 56.3406 85.4199 56.7508 84.2804C55.9076 85.2148 55.3493 85.9099 55.0758 86.3657C54.5288 87.1861 54.2554 88.0179 54.2554 88.8611C54.2554 89.5219 54.4035 90.2854 54.6998 91.1514H47.7263C48.7974 90.1031 49.6634 88.7015 50.3242 86.9468C50.9168 85.306 51.213 83.6879 51.213 82.0927C51.213 81.7053 51.2016 81.352 51.1788 81.033C51.0421 79.9619 50.5066 78.9364 49.5722 77.9565C48.0453 76.384 47.2135 75.4952 47.0768 75.2901C46.2336 74.0367 45.812 72.4985 45.812 70.6753H51.9992C51.7714 71.1083 51.6574 71.5527 51.6574 72.0085C51.6574 72.8517 52.2271 73.9798 53.3666 75.3927C53.6401 75.6889 53.9819 76.2245 54.3921 76.9993C54.5744 77.5007 54.6656 78.1046 54.6656 78.8111C54.6656 79.7226 54.5174 80.6912 54.2212 81.7167C55.3379 80.3721 55.8962 79.2099 55.8962 78.2299C55.8962 77.3639 55.6113 76.3384 55.0416 75.1534H56.3064C57.0584 75.1534 57.7649 75.1192 58.4258 75.0508C59.2006 76.327 59.588 77.5121 59.588 78.606C59.588 79.3808 59.4399 80.4177 59.1436 81.7167C60.2375 80.3265 60.7845 78.7427 60.7845 76.9651C60.7845 76.6689 60.7617 76.4068 60.7161 76.1789C60.6477 75.4952 60.1578 74.6179 59.2462 73.5468C58.3574 72.4757 57.913 71.6325 57.913 71.0172C57.913 70.9032 57.9244 70.7893 57.9472 70.6753H62.9722ZM82.2427 79.9049C82.2427 80.1784 79.7701 81.5571 74.8249 84.0412C75.349 85.6136 76.2948 86.3998 77.6621 86.3998C78.5509 86.3998 79.4169 86.0694 80.2601 85.4085C81.0349 84.816 81.6388 84.0981 82.0718 83.2549C82.0718 85.2832 81.6046 87.0607 80.6703 88.5876C79.5764 90.3879 78.0723 91.2881 76.158 91.2881C74.7223 91.2881 73.4689 90.5588 72.3978 89.1003C71.5318 87.9609 70.9051 86.5708 70.5177 84.9299C70.2215 83.7221 70.0733 82.4459 70.0733 81.1014C70.0733 79.7568 70.2215 78.4578 70.5177 77.2044C70.9051 75.5636 71.5205 74.1393 72.3636 72.9315C73.4575 71.4274 74.7223 70.6753 76.158 70.6753C77.7761 70.6753 79.1548 71.5869 80.2943 73.41C81.1603 74.823 81.7414 76.4524 82.0376 78.2983C82.1744 79.0503 82.2427 79.5859 82.2427 79.9049ZM77.9014 77.6488C77.9014 77.1247 77.8558 76.6005 77.7647 76.0764C77.4684 74.3444 76.9329 73.4784 76.158 73.4784C75.3604 73.4784 74.8135 74.823 74.5172 77.5121C74.4261 78.2185 74.3805 78.925 74.3805 79.6315L77.9014 77.6488ZM102.005 81.1014C102.005 82.6054 101.8 84.0184 101.389 85.3401C100.888 86.981 100.102 88.3255 99.0307 89.3738C97.8228 90.5588 96.4213 91.1514 94.8261 91.1514H86.6904C88.0121 89.7612 89.0262 87.9381 89.7327 85.682C90.3708 83.6537 90.6898 81.5913 90.6898 79.4947C90.6898 77.626 90.4164 76.065 89.8694 74.8116C89.8011 74.6292 89.3909 73.9912 88.6388 72.8973C88.1147 72.1224 87.864 71.4388 87.8868 70.8463V70.6753H94.6552C96.0909 70.6753 97.4696 71.3818 98.7914 72.7947C99.908 73.9798 100.74 75.3585 101.287 76.931C101.765 78.2755 102.005 79.6656 102.005 81.1014ZM94.1082 74.0937C93.7664 75.2787 93.4815 77.0221 93.2536 79.3238C93.0257 81.6027 92.9118 83.4259 92.9118 84.7932C92.9118 86.2745 93.4245 87.0151 94.45 87.0151C95.6351 87.0151 96.5353 86.3429 97.1506 84.9983C97.6063 83.9728 97.8342 82.7878 97.8342 81.4432C97.8342 77.9109 96.5922 75.4611 94.1082 74.0937Z"/>
</mask>
<path d="M61.0237 51.5381C61.0237 53.1789 60.2147 54.626 58.5967 55.8794C57.0015 57.1328 55.7936 57.919 54.9732 58.2381C54.0617 58.5799 53.6059 60.0384 53.6059 62.6136C53.6059 63.7759 53.697 65.0065 53.8794 66.3054C54.0389 67.4449 54.1642 68.0602 54.2554 68.1514H46.564C47.8174 67.1486 48.7632 65.4395 49.4013 63.0238C49.9026 61.1551 50.1533 59.1725 50.1533 57.0759C50.1533 53.6803 49.8115 51.333 49.1278 50.034C48.9683 49.7378 48.4669 48.9515 47.6237 47.6753H55.7595C57.104 47.6753 58.2777 47.9716 59.2804 48.5641C60.4426 49.2934 61.0237 50.2847 61.0237 51.5381ZM55.2809 49.8631C54.3237 49.8631 53.8452 50.8088 53.8452 52.7003C53.8452 52.9966 53.8566 53.3954 53.8794 53.8968C53.9249 54.3981 53.9477 54.7172 53.9477 54.8539C53.9477 55.9706 53.9933 56.5289 54.0845 56.5289C54.8365 56.5289 55.5771 55.925 56.3064 54.7172C56.9673 53.6689 57.2977 52.8143 57.2977 52.1534C57.2977 51.6065 57.0926 51.0937 56.6824 50.6151C56.2722 50.1138 55.805 49.8631 55.2809 49.8631ZM78.3704 56.9049C78.3704 57.1784 75.8977 58.5571 70.9525 61.0412C71.4767 62.6136 72.4224 63.3998 73.7897 63.3998C74.6785 63.3998 75.5445 63.0694 76.3877 62.4085C77.1625 61.816 77.7665 61.0981 78.1994 60.2549C78.1994 62.2832 77.7323 64.0607 76.7979 65.5876C75.704 67.3879 74.2 68.2881 72.2857 68.2881C70.85 68.2881 69.5965 67.5588 68.5255 66.1003C67.6595 64.9609 67.0328 63.5708 66.6454 61.9299C66.3491 60.7221 66.201 59.4459 66.201 58.1014C66.201 56.7568 66.3491 55.4578 66.6454 54.2044C67.0328 52.5636 67.6481 51.1393 68.4913 49.9315C69.5852 48.4274 70.85 47.6753 72.2857 47.6753C73.9037 47.6753 75.2824 48.5869 76.4219 50.41C77.2879 51.823 77.869 53.4524 78.1653 55.2983C78.302 56.0503 78.3704 56.5859 78.3704 56.9049ZM74.029 54.6488C74.029 54.1247 73.9835 53.6005 73.8923 53.0764C73.596 51.3444 73.0605 50.4784 72.2857 50.4784C71.488 50.4784 70.9411 51.823 70.6448 54.5121C70.5537 55.2185 70.5081 55.925 70.5081 56.6315L74.029 54.6488ZM94.1328 51.9141C94.0416 52.8257 93.6656 53.6461 93.0047 54.3753C92.3438 55.0818 91.569 55.435 90.6802 55.435C90.4068 55.435 90.1447 55.3895 89.894 55.2983C89.575 56.1643 89.4154 57.0986 89.4154 58.1014C89.4154 60.2891 89.9738 61.383 91.0904 61.383C92.1387 61.383 92.9819 60.2891 93.62 58.1014C93.8479 58.9901 93.9619 59.9359 93.9619 60.9386C93.9619 62.7162 93.62 64.2886 92.9364 65.656C92.0932 67.4107 90.8739 68.2881 89.2787 68.2881C86.8175 68.2881 85.5869 66.2029 85.5869 62.0325C85.5869 61.1437 85.6666 59.8333 85.8261 58.1014C85.9857 56.3694 86.0654 55.0704 86.0654 54.2044C86.0654 50.6493 84.8462 48.473 82.4078 47.6753C83.9119 47.6753 85.0171 47.6867 85.7236 47.7095C89.4838 47.8918 91.3639 48.8718 91.3639 50.6493C91.3639 51.2646 91.1588 51.9825 90.7486 52.8029C91.1132 52.894 91.4551 52.9396 91.7741 52.9396C92.5261 52.9396 93.3124 52.5978 94.1328 51.9141ZM62.9722 70.6753C64.18 72.8403 64.7839 74.9369 64.7839 76.9651C64.7839 78.5832 64.3282 80.4519 63.4166 82.5713C63.0292 83.4828 62.6304 84.3944 62.2202 85.306C61.81 86.4226 61.6049 87.3798 61.6049 88.1774C61.6049 89.2029 61.9353 90.1942 62.5962 91.1514H56.7508C56.3406 90.2398 56.1355 89.1459 56.1355 87.8697C56.1355 86.6163 56.3406 85.4199 56.7508 84.2804C55.9076 85.2148 55.3493 85.9099 55.0758 86.3657C54.5288 87.1861 54.2554 88.0179 54.2554 88.8611C54.2554 89.5219 54.4035 90.2854 54.6998 91.1514H47.7263C48.7974 90.1031 49.6634 88.7015 50.3242 86.9468C50.9168 85.306 51.213 83.6879 51.213 82.0927C51.213 81.7053 51.2016 81.352 51.1788 81.033C51.0421 79.9619 50.5066 78.9364 49.5722 77.9565C48.0453 76.384 47.2135 75.4952 47.0768 75.2901C46.2336 74.0367 45.812 72.4985 45.812 70.6753H51.9992C51.7714 71.1083 51.6574 71.5527 51.6574 72.0085C51.6574 72.8517 52.2271 73.9798 53.3666 75.3927C53.6401 75.6889 53.9819 76.2245 54.3921 76.9993C54.5744 77.5007 54.6656 78.1046 54.6656 78.8111C54.6656 79.7226 54.5174 80.6912 54.2212 81.7167C55.3379 80.3721 55.8962 79.2099 55.8962 78.2299C55.8962 77.3639 55.6113 76.3384 55.0416 75.1534H56.3064C57.0584 75.1534 57.7649 75.1192 58.4258 75.0508C59.2006 76.327 59.588 77.5121 59.588 78.606C59.588 79.3808 59.4399 80.4177 59.1436 81.7167C60.2375 80.3265 60.7845 78.7427 60.7845 76.9651C60.7845 76.6689 60.7617 76.4068 60.7161 76.1789C60.6477 75.4952 60.1578 74.6179 59.2462 73.5468C58.3574 72.4757 57.913 71.6325 57.913 71.0172C57.913 70.9032 57.9244 70.7893 57.9472 70.6753H62.9722ZM82.2427 79.9049C82.2427 80.1784 79.7701 81.5571 74.8249 84.0412C75.349 85.6136 76.2948 86.3998 77.6621 86.3998C78.5509 86.3998 79.4169 86.0694 80.2601 85.4085C81.0349 84.816 81.6388 84.0981 82.0718 83.2549C82.0718 85.2832 81.6046 87.0607 80.6703 88.5876C79.5764 90.3879 78.0723 91.2881 76.158 91.2881C74.7223 91.2881 73.4689 90.5588 72.3978 89.1003C71.5318 87.9609 70.9051 86.5708 70.5177 84.9299C70.2215 83.7221 70.0733 82.4459 70.0733 81.1014C70.0733 79.7568 70.2215 78.4578 70.5177 77.2044C70.9051 75.5636 71.5205 74.1393 72.3636 72.9315C73.4575 71.4274 74.7223 70.6753 76.158 70.6753C77.7761 70.6753 79.1548 71.5869 80.2943 73.41C81.1603 74.823 81.7414 76.4524 82.0376 78.2983C82.1744 79.0503 82.2427 79.5859 82.2427 79.9049ZM77.9014 77.6488C77.9014 77.1247 77.8558 76.6005 77.7647 76.0764C77.4684 74.3444 76.9329 73.4784 76.158 73.4784C75.3604 73.4784 74.8135 74.823 74.5172 77.5121C74.4261 78.2185 74.3805 78.925 74.3805 79.6315L77.9014 77.6488ZM102.005 81.1014C102.005 82.6054 101.8 84.0184 101.389 85.3401C100.888 86.981 100.102 88.3255 99.0307 89.3738C97.8228 90.5588 96.4213 91.1514 94.8261 91.1514H86.6904C88.0121 89.7612 89.0262 87.9381 89.7327 85.682C90.3708 83.6537 90.6898 81.5913 90.6898 79.4947C90.6898 77.626 90.4164 76.065 89.8694 74.8116C89.8011 74.6292 89.3909 73.9912 88.6388 72.8973C88.1147 72.1224 87.864 71.4388 87.8868 70.8463V70.6753H94.6552C96.0909 70.6753 97.4696 71.3818 98.7914 72.7947C99.908 73.9798 100.74 75.3585 101.287 76.931C101.765 78.2755 102.005 79.6656 102.005 81.1014ZM94.1082 74.0937C93.7664 75.2787 93.4815 77.0221 93.2536 79.3238C93.0257 81.6027 92.9118 83.4259 92.9118 84.7932C92.9118 86.2745 93.4245 87.0151 94.45 87.0151C95.6351 87.0151 96.5353 86.3429 97.1506 84.9983C97.6063 83.9728 97.8342 82.7878 97.8342 81.4432C97.8342 77.9109 96.5922 75.4611 94.1082 74.0937Z" fill="#F2F2F2"/>
<path d="M58.5967 55.8794L58.3328 55.5388L58.3305 55.5406L58.5967 55.8794ZM54.9732 58.2381L55.1245 58.6416L55.1294 58.6397L54.9732 58.2381ZM53.8794 66.3054L54.3061 66.2457L54.3061 66.2456L53.8794 66.3054ZM54.2554 68.1514V68.5823H55.2956L54.5601 67.8467L54.2554 68.1514ZM46.564 68.1514L46.2949 67.8149L45.3357 68.5823H46.564V68.1514ZM49.4013 63.0238L48.9851 62.9122L48.9847 62.9138L49.4013 63.0238ZM49.1278 50.034L49.5091 49.8333L49.5072 49.8297L49.1278 50.034ZM47.6237 47.6753V47.2444H46.8226L47.2642 47.9129L47.6237 47.6753ZM59.2804 48.5641L59.5095 48.199L59.4996 48.1932L59.2804 48.5641ZM53.8794 53.8968L53.4489 53.9163L53.4494 53.9261L53.4502 53.9358L53.8794 53.8968ZM56.3064 54.7172L55.9418 54.4873L55.9375 54.4945L56.3064 54.7172ZM56.6824 50.6151L56.3488 50.8881L56.3553 50.8956L56.6824 50.6151ZM61.0237 51.5381H60.5929C60.5929 53.0131 59.8743 54.3447 58.3328 55.5388L58.5967 55.8794L58.8606 56.2201C60.5552 54.9073 61.4546 53.3448 61.4546 51.5381H61.0237ZM58.5967 55.8794L58.3305 55.5406C56.7366 56.7929 55.5724 57.5427 54.8171 57.8365L54.9732 58.2381L55.1294 58.6397C56.0148 58.2953 57.2663 57.4727 58.8629 56.2182L58.5967 55.8794ZM54.9732 58.2381L54.8219 57.8346C54.1844 58.0737 53.7812 58.6767 53.5364 59.4598C53.2897 60.2495 53.175 61.3079 53.175 62.6136H53.6059H54.0368C54.0368 61.3441 54.15 60.3857 54.359 59.7169C54.5701 59.0415 54.8505 58.7443 55.1245 58.6415L54.9732 58.2381ZM53.6059 62.6136H53.175C53.175 63.7982 53.2679 65.049 53.4526 66.3653L53.8794 66.3054L54.3061 66.2456C54.1262 64.9639 54.0368 63.7535 54.0368 62.6136H53.6059ZM53.8794 66.3054L53.4526 66.3652C53.5328 66.9378 53.6055 67.3868 53.6708 67.7075C53.7033 67.867 53.7357 68.0034 53.7686 68.111C53.785 68.1645 53.804 68.2189 53.8265 68.269C53.8448 68.3098 53.8825 68.3879 53.9507 68.4561L54.2554 68.1514L54.5601 67.8467C54.6054 67.8921 54.6193 67.9309 54.6127 67.9162C54.6103 67.9108 54.6032 67.8933 54.5926 67.8585C54.5714 67.7894 54.5454 67.6837 54.5152 67.5355C54.4552 67.2409 54.3854 66.8126 54.3061 66.2457L53.8794 66.3054ZM54.2554 68.1514V67.7205H46.564V68.1514V68.5823H54.2554V68.1514ZM46.564 68.1514L46.8332 68.4878C48.189 67.4032 49.1685 65.5923 49.8179 63.1339L49.4013 63.0238L48.9847 62.9138C48.3579 65.2866 47.4459 66.894 46.2949 67.8149L46.564 68.1514ZM49.4013 63.0238L49.8175 63.1355C50.3294 61.2274 50.5842 59.207 50.5842 57.0759H50.1533H49.7224C49.7224 59.1379 49.4759 61.0828 48.9851 62.9122L49.4013 63.0238ZM50.1533 57.0759H50.5842C50.5842 53.6794 50.2469 51.2351 49.5091 49.8333L49.1278 50.034L48.7465 50.2347C49.3761 51.4308 49.7224 53.6811 49.7224 57.0759H50.1533ZM49.1278 50.034L49.5072 49.8297C49.3362 49.5122 48.8215 48.7066 47.9832 47.4378L47.6237 47.6753L47.2642 47.9129C48.1123 49.1965 48.6004 49.9633 48.7484 50.2383L49.1278 50.034ZM47.6237 47.6753V48.1062H55.7595V47.6753V47.2444H47.6237V47.6753ZM55.7595 47.6753V48.1062C57.039 48.1062 58.1345 48.3875 59.0612 48.9351L59.2804 48.5641L59.4996 48.1932C58.4208 47.5557 57.169 47.2444 55.7595 47.2444V47.6753ZM59.2804 48.5641L59.0514 48.9291C60.1022 49.5885 60.5929 50.449 60.5929 51.5381H61.0237H61.4546C61.4546 50.1204 60.783 48.9983 59.5094 48.1991L59.2804 48.5641ZM55.2809 49.8631V49.4322C54.9672 49.4322 54.6734 49.5109 54.4157 49.6806C54.1605 49.8487 53.9653 50.0899 53.8196 50.3779C53.5345 50.9414 53.4143 51.7322 53.4143 52.7003H53.8452H54.2761C54.2761 51.777 54.3952 51.1491 54.5886 50.767C54.6821 50.582 54.7861 50.4686 54.8898 50.4003C54.991 50.3336 55.1159 50.294 55.2809 50.294V49.8631ZM53.8452 52.7003H53.4143C53.4143 53.0061 53.426 53.4122 53.4489 53.9163L53.8794 53.8968L54.3098 53.8772C54.2871 53.3786 54.2761 52.9871 54.2761 52.7003H53.8452ZM53.8794 53.8968L53.4502 53.9358C53.4964 54.4433 53.5168 54.7409 53.5168 54.8539H53.9477H54.3786C54.3786 54.6935 54.3535 54.353 54.3085 53.8578L53.8794 53.8968ZM53.9477 54.8539H53.5168C53.5168 55.4149 53.5282 55.8479 53.5524 56.1452C53.5643 56.2905 53.5807 56.4228 53.6061 56.5267C53.618 56.5751 53.6386 56.6471 53.6783 56.7165C53.7056 56.7644 53.8277 56.9598 54.0845 56.9598V56.5289V56.098C54.3184 56.098 54.4191 56.276 54.4265 56.289C54.4463 56.3235 54.4484 56.3431 54.4432 56.3217C54.4344 56.2861 54.4223 56.209 54.4114 56.0751C54.3901 55.8141 54.3786 55.4096 54.3786 54.8539H53.9477ZM54.0845 56.5289V56.9598C55.0823 56.9598 55.9345 56.1668 56.6753 54.9399L56.3064 54.7172L55.9375 54.4945C55.2198 55.6832 54.5907 56.098 54.0845 56.098V56.5289ZM56.3064 54.7172L56.6709 54.947C57.343 53.8809 57.7286 52.94 57.7286 52.1534H57.2977H56.8668C56.8668 52.6885 56.5916 53.4568 55.9419 54.4874L56.3064 54.7172ZM57.2977 52.1534H57.7286C57.7286 51.4881 57.4759 50.8788 57.0096 50.3347L56.6824 50.6151L56.3553 50.8956C56.7093 51.3086 56.8668 51.7248 56.8668 52.1534H57.2977ZM56.6824 50.6151L57.0159 50.3423C56.545 49.7668 55.9643 49.4322 55.2809 49.4322V49.8631V50.294C55.6457 50.294 55.9994 50.4608 56.3489 50.888L56.6824 50.6151ZM70.9525 61.0412L70.7591 60.6561L70.4258 60.8235L70.5437 61.1774L70.9525 61.0412ZM76.3877 62.4085L76.1259 62.0662L76.1219 62.0694L76.3877 62.4085ZM78.1994 60.2549H78.6303L77.8161 60.0581L78.1994 60.2549ZM76.7979 65.5876L76.4304 65.3627L76.4297 65.3638L76.7979 65.5876ZM68.5255 66.1003L68.8728 65.8453L68.8685 65.8396L68.5255 66.1003ZM66.6454 61.9299L67.0647 61.8309L67.0638 61.8273L66.6454 61.9299ZM66.6454 54.2044L67.0647 54.3035L67.0647 54.3034L66.6454 54.2044ZM68.4913 49.9315L68.1427 49.678L68.138 49.6848L68.4913 49.9315ZM76.4219 50.41L76.7893 50.1849L76.7873 50.1817L76.4219 50.41ZM78.1653 55.2983L77.7397 55.3666L77.7413 55.3754L78.1653 55.2983ZM74.029 54.6488L74.2405 55.0243L74.4599 54.9007V54.6488H74.029ZM73.8923 53.0764L73.4676 53.149L73.4678 53.1502L73.8923 53.0764ZM70.6448 54.5121L71.0723 54.5672L71.0731 54.5593L70.6448 54.5121ZM70.5081 56.6315H70.0772V57.3686L70.7195 57.0069L70.5081 56.6315ZM78.3704 56.9049H77.9395C77.9395 56.834 77.9589 56.782 77.9704 56.7566C77.9823 56.7301 77.9939 56.7143 77.9968 56.7104C78.0019 56.7037 77.9965 56.7121 77.9681 56.7373C77.9129 56.7864 77.8162 56.8596 77.6674 56.959C77.3729 57.1557 76.9214 57.4246 76.3061 57.7678C75.0781 58.4525 73.2303 59.4148 70.7591 60.6561L70.9525 61.0412L71.1459 61.4262C73.6199 60.1835 75.4811 59.2145 76.7257 58.5204C77.3467 58.1742 77.8224 57.8919 78.1461 57.6755C78.3064 57.5685 78.4415 57.4696 78.5408 57.3813C78.5897 57.3378 78.6422 57.2861 78.686 57.2279C78.7187 57.1843 78.8013 57.0675 78.8013 56.9049H78.3704ZM70.9525 61.0412L70.5437 61.1774C70.8226 62.0141 71.2269 62.6821 71.7795 63.1415C72.3385 63.6062 73.0174 63.8307 73.7897 63.8307V63.3998V62.9689C73.1947 62.9689 72.7171 62.8003 72.3304 62.4788C71.9372 62.152 71.6065 61.6406 71.3613 60.9049L70.9525 61.0412ZM73.7897 63.3998V63.8307C74.7935 63.8307 75.7506 63.4554 76.6535 62.7476L76.3877 62.4085L76.1219 62.0694C75.3385 62.6834 74.5635 62.9689 73.7897 62.9689V63.3998ZM76.3877 62.4085L76.6495 62.7508C77.4736 62.1206 78.1197 61.3535 78.5827 60.4518L78.1994 60.2549L77.8161 60.0581C77.4132 60.8427 76.8515 61.5114 76.126 62.0662L76.3877 62.4085ZM78.1994 60.2549H77.7686C77.7686 62.2146 77.318 63.9122 76.4304 65.3627L76.7979 65.5876L77.1654 65.8125C78.1465 64.2093 78.6303 62.3517 78.6303 60.2549H78.1994ZM76.7979 65.5876L76.4297 65.3638C75.4045 67.0511 74.0321 67.8572 72.2857 67.8572V68.2881V68.719C74.3678 68.719 76.0036 67.7248 77.1662 65.8113L76.7979 65.5876ZM72.2857 68.2881V67.8572C71.0224 67.8572 69.8861 67.2252 68.8728 65.8453L68.5255 66.1003L68.1782 66.3554C69.307 67.8925 70.6775 68.719 72.2857 68.719V68.2881ZM68.5255 66.1003L68.8685 65.8396C68.0449 64.7559 67.4407 63.4234 67.0647 61.8309L66.6454 61.9299L66.226 62.0289C66.6248 63.7181 67.274 65.1659 68.1824 66.3611L68.5255 66.1003ZM66.6454 61.9299L67.0638 61.8273C66.7765 60.6557 66.6319 59.4141 66.6319 58.1014H66.201H65.7701C65.7701 59.4777 65.9217 60.7886 66.2269 62.0326L66.6454 61.9299ZM66.201 58.1014H66.6319C66.6319 56.7887 66.7764 55.5231 67.0647 54.3035L66.6454 54.2044L66.226 54.1053C65.9218 55.3926 65.7701 56.7249 65.7701 58.1014H66.201ZM66.6454 54.2044L67.0647 54.3034C67.4414 52.708 68.0367 51.3354 68.8446 50.1781L68.4913 49.9315L68.138 49.6848C67.2595 50.9432 66.6241 52.4192 66.226 54.1054L66.6454 54.2044ZM68.4913 49.9315L68.8398 50.1849C69.8789 48.756 71.0273 48.1062 72.2857 48.1062V47.6753V47.2444C70.6726 47.2444 69.2914 48.0987 68.1428 49.678L68.4913 49.9315ZM72.2857 47.6753V48.1062C73.7075 48.1062 74.9667 48.8947 76.0565 50.6384L76.4219 50.41L76.7873 50.1817C75.5982 48.2791 74.0999 47.2444 72.2857 47.2444V47.6753ZM76.4219 50.41L76.0545 50.6352C76.8876 51.9944 77.4513 53.5692 77.7398 55.3666L78.1653 55.2983L78.5907 55.23C78.2867 53.3356 77.6882 51.6516 76.7893 50.1849L76.4219 50.41ZM78.1653 55.2983L77.7413 55.3754C77.878 56.1273 77.9395 56.6287 77.9395 56.9049H78.3704H78.8013C78.8013 56.5431 78.7259 55.9734 78.5892 55.2212L78.1653 55.2983ZM74.029 54.6488H74.4599C74.4599 54.0995 74.4121 53.5507 74.3168 53.0025L73.8923 53.0764L73.4678 53.1502C73.5548 53.6503 73.5981 54.1498 73.5981 54.6488H74.029ZM73.8923 53.0764L74.317 53.0037C74.1653 52.117 73.9456 51.4037 73.6349 50.9013C73.3165 50.3863 72.8686 50.0475 72.2857 50.0475V50.4784V50.9093C72.4775 50.9093 72.6849 51.0034 72.902 51.3545C73.1268 51.7181 73.323 52.3038 73.4676 53.149L73.8923 53.0764ZM72.2857 50.4784V50.0475C71.5978 50.0475 71.1603 50.6307 70.8781 51.3245C70.5819 52.0527 70.366 53.1086 70.2166 54.4649L70.6448 54.5121L71.0731 54.5593C71.22 53.2264 71.4257 52.2655 71.6764 51.6492C71.9411 50.9984 72.1759 50.9093 72.2857 50.9093V50.4784ZM70.6448 54.5121L70.2175 54.4569C70.124 55.1815 70.0772 55.9064 70.0772 56.6315H70.5081H70.939C70.939 55.9436 70.9834 55.2555 71.0722 54.5672L70.6448 54.5121ZM70.5081 56.6315L70.7195 57.0069L74.2405 55.0243L74.029 54.6488L73.8176 54.2734L70.2967 56.256L70.5081 56.6315ZM94.1328 51.9141L94.5615 51.957L94.6664 50.9086L93.8569 51.5831L94.1328 51.9141ZM93.0047 54.3753L93.3194 54.6697L93.324 54.6647L93.0047 54.3753ZM89.894 55.2983L90.0413 54.8934L89.638 54.7467L89.4897 55.1493L89.894 55.2983ZM93.62 58.1014L94.0374 57.9943L93.6468 56.4708L93.2064 57.9807L93.62 58.1014ZM92.9364 65.656L92.5509 65.4632L92.548 65.4693L92.9364 65.656ZM85.8261 58.1014L86.2552 58.1409L85.8261 58.1014ZM82.4078 47.6753V47.2444L82.2738 48.0849L82.4078 47.6753ZM85.7236 47.7095L85.7445 47.2791L85.7375 47.2789L85.7236 47.7095ZM90.7486 52.8029L90.3632 52.6102L90.123 53.0906L90.6441 53.2209L90.7486 52.8029ZM94.1328 51.9141L93.704 51.8712C93.6227 52.6841 93.2893 53.4197 92.6854 54.086L93.0047 54.3753L93.324 54.6647C94.0419 53.8725 94.4605 52.9673 94.5615 51.957L94.1328 51.9141ZM93.0047 54.3753L92.6901 54.081C92.1026 54.7089 91.4385 55.0041 90.6802 55.0041V55.435V55.8659C91.6995 55.8659 92.5851 55.4547 93.3194 54.6697L93.0047 54.3753ZM90.6802 55.435V55.0041C90.4557 55.0041 90.2435 54.9669 90.0413 54.8934L89.894 55.2983L89.7467 55.7032C90.0458 55.812 90.3578 55.8659 90.6802 55.8659V55.435ZM89.894 55.2983L89.4897 55.1493C89.1516 56.067 88.9845 57.0522 88.9845 58.1014H89.4154H89.8463C89.8463 57.1451 89.9983 56.2616 90.2983 55.4473L89.894 55.2983ZM89.4154 58.1014H88.9845C88.9845 59.2179 89.1247 60.1204 89.4504 60.7585C89.6164 61.0837 89.8369 61.3524 90.122 61.5387C90.4094 61.7264 90.7377 61.8139 91.0904 61.8139V61.383V60.9521C90.8849 60.9521 90.7246 60.9029 90.5932 60.8171C90.4596 60.7299 90.3311 60.5884 90.218 60.3667C89.9853 59.9109 89.8463 59.1726 89.8463 58.1014H89.4154ZM91.0904 61.383V61.8139C91.7883 61.8139 92.3752 61.442 92.8503 60.8256C93.3192 60.2174 93.7081 59.3383 94.0337 58.222L93.62 58.1014L93.2064 57.9807C92.8939 59.0521 92.5421 59.8139 92.1678 60.2995C91.7997 60.7771 91.4409 60.9521 91.0904 60.9521V61.383ZM93.62 58.1014L93.2026 58.2084C93.4208 59.0591 93.531 59.9687 93.531 60.9386H93.9619H94.3927C94.3927 59.9031 94.2751 58.9212 94.0374 57.9943L93.62 58.1014ZM93.9619 60.9386H93.531C93.531 62.6601 93.2002 64.1648 92.551 65.4633L92.9364 65.656L93.3218 65.8487C94.0399 64.4125 94.3927 62.7722 94.3927 60.9386H93.9619ZM92.9364 65.656L92.548 65.4693C92.1486 66.3005 91.6742 66.8944 91.1379 67.2803C90.6062 67.6629 89.9919 67.8572 89.2787 67.8572V68.2881V68.719C90.1607 68.719 90.9536 68.4746 91.6412 67.9798C92.3241 67.4884 92.8809 66.7662 93.3247 65.8426L92.9364 65.656ZM89.2787 68.2881V67.8572C88.1975 67.8572 87.4171 67.4138 86.8809 66.5052C86.3237 65.5611 86.0177 64.0894 86.0177 62.0325H85.5869H85.156C85.156 64.146 85.4653 65.8021 86.1387 66.9432C86.8331 68.1198 87.8987 68.719 89.2787 68.719V68.2881ZM85.5869 62.0325H86.0177C86.0177 61.1641 86.096 59.8696 86.2552 58.1409L85.8261 58.1014L85.3971 58.0618C85.2373 59.7971 85.156 61.1233 85.156 62.0325H85.5869ZM85.8261 58.1014L86.2552 58.1409C86.415 56.4061 86.4963 55.091 86.4963 54.2044H86.0654H85.6345C85.6345 55.0498 85.5563 56.3327 85.3971 58.0618L85.8261 58.1014ZM86.0654 54.2044H86.4963C86.4963 52.3826 86.1847 50.8694 85.5269 49.6952C84.8629 48.5098 83.8605 47.6972 82.5417 47.2658L82.4078 47.6753L82.2738 48.0849C83.3935 48.4511 84.22 49.1255 84.7751 50.1164C85.3366 51.1187 85.6345 52.4711 85.6345 54.2044H86.0654ZM82.4078 47.6753V48.1062C83.9112 48.1062 85.0106 48.1176 85.7097 48.1402L85.7236 47.7095L85.7375 47.2789C85.0237 47.2558 83.9125 47.2444 82.4078 47.2444V47.6753ZM85.7236 47.7095L85.7027 48.1399C87.5616 48.23 88.8973 48.5164 89.7547 48.9633C90.5854 49.3963 90.933 49.9553 90.933 50.6493H91.3639H91.7948C91.7948 49.5657 91.2023 48.746 90.153 48.1991C89.1302 47.666 87.6458 47.3713 85.7445 47.2791L85.7236 47.7095ZM91.3639 50.6493H90.933C90.933 51.173 90.757 51.8227 90.3632 52.6102L90.7486 52.8029L91.134 52.9956C91.5606 52.1423 91.7948 51.3562 91.7948 50.6493H91.3639ZM90.7486 52.8029L90.6441 53.2209C91.037 53.3191 91.4142 53.3705 91.7741 53.3705V52.9396V52.5087C91.4959 52.5087 91.1894 52.469 90.8531 52.3849L90.7486 52.8029ZM91.7741 52.9396V53.3705C92.6619 53.3705 93.5428 52.9667 94.4086 52.2451L94.1328 51.9141L93.8569 51.5831C93.082 52.2289 92.3904 52.5087 91.7741 52.5087V52.9396ZM62.9722 70.6753L63.3485 70.4654L63.2252 70.2444H62.9722V70.6753ZM63.4166 82.5713L63.0208 82.401L63.02 82.4027L63.4166 82.5713ZM62.2202 85.306L61.8272 85.1291L61.821 85.1431L61.8157 85.1574L62.2202 85.306ZM62.5962 91.1514V91.5823H63.4173L62.9508 90.9065L62.5962 91.1514ZM56.7508 91.1514L56.3578 91.3282L56.4722 91.5823H56.7508V91.1514ZM56.7508 84.2804L57.1562 84.4264L56.4309 83.9918L56.7508 84.2804ZM55.0758 86.3657L55.4343 86.6047L55.44 86.5961L55.4453 86.5873L55.0758 86.3657ZM54.6998 91.1514V91.5823H55.3026L55.1074 91.0119L54.6998 91.1514ZM47.7263 91.1514L47.4249 90.8434L46.67 91.5823H47.7263V91.1514ZM50.3242 86.9468L50.7275 87.0987L50.7295 87.0931L50.3242 86.9468ZM51.1788 81.033L51.6086 81.0023L51.6078 80.9903L51.6063 80.9784L51.1788 81.033ZM49.5722 77.9565L49.8841 77.6591L49.8813 77.6563L49.5722 77.9565ZM47.0768 75.2901L47.4353 75.0511L47.4343 75.0496L47.0768 75.2901ZM45.812 70.6753V70.2444H45.3811V70.6753H45.812ZM51.9992 70.6753L52.3805 70.876L52.713 70.2444H51.9992V70.6753ZM53.3666 75.3927L53.0312 75.6632L53.0402 75.6744L53.05 75.6849L53.3666 75.3927ZM54.3921 76.9993L54.7971 76.8521L54.7869 76.8241L54.7729 76.7977L54.3921 76.9993ZM54.2212 81.7167L53.8072 81.5971L54.5527 81.992L54.2212 81.7167ZM55.0416 75.1534V74.7225H54.3563L54.6533 75.3401L55.0416 75.1534ZM58.4258 75.0508L58.7941 74.8272L58.6526 74.5942L58.3814 74.6222L58.4258 75.0508ZM59.1436 81.7167L58.7235 81.6209L59.4823 81.9831L59.1436 81.7167ZM60.7161 76.1789L60.2873 76.2218L60.2894 76.2428L60.2936 76.2634L60.7161 76.1789ZM59.2462 73.5468L58.9146 73.8219L58.9181 73.826L59.2462 73.5468ZM57.9472 70.6753V70.2444H57.594L57.5247 70.5908L57.9472 70.6753ZM62.9722 70.6753L62.5959 70.8853C63.7758 73.0002 64.3531 75.0251 64.3531 76.9651H64.7839H65.2148C65.2148 74.8487 64.5842 72.6804 63.3485 70.4654L62.9722 70.6753ZM64.7839 76.9651H64.3531C64.3531 78.5053 63.9183 80.3142 63.0208 82.401L63.4166 82.5713L63.8124 82.7415C64.738 80.5895 65.2148 78.661 65.2148 76.9651H64.7839ZM63.4166 82.5713L63.02 82.4027C62.6338 83.3115 62.2362 84.2203 61.8272 85.1291L62.2202 85.306L62.6131 85.4828C63.0245 84.5685 63.4246 83.6542 63.8132 82.7398L63.4166 82.5713ZM62.2202 85.306L61.8157 85.1574C61.3958 86.3005 61.174 87.3106 61.174 88.1774H61.6049H62.0358C62.0358 87.4489 62.2242 86.5447 62.6246 85.4545L62.2202 85.306ZM61.6049 88.1774H61.174C61.174 89.3018 61.5379 90.3771 62.2416 91.3962L62.5962 91.1514L62.9508 90.9065C62.3327 90.0114 62.0358 89.104 62.0358 88.1774H61.6049ZM62.5962 91.1514V90.7205H56.7508V91.1514V91.5823H62.5962V91.1514ZM56.7508 91.1514L57.1437 90.9745C56.7644 90.1317 56.5664 89.1012 56.5664 87.8697H56.1355H55.7046C55.7046 89.1906 55.9167 90.3479 56.3578 91.3282L56.7508 91.1514ZM56.1355 87.8697H56.5664C56.5664 86.6643 56.7634 85.5174 57.1562 84.4264L56.7508 84.2804L56.3454 84.1345C55.9177 85.3224 55.7046 86.5683 55.7046 87.8697H56.1355ZM56.7508 84.2804L56.4309 83.9918C55.5874 84.9265 55.0034 85.6487 54.7063 86.144L55.0758 86.3657L55.4453 86.5873C55.6951 86.171 56.2278 85.5031 57.0707 84.5691L56.7508 84.2804ZM55.0758 86.3657L54.7173 86.1266C54.1313 87.0056 53.8245 87.9192 53.8245 88.8611H54.2554H54.6863C54.6863 88.1166 54.9264 87.3666 55.4343 86.6047L55.0758 86.3657ZM54.2554 88.8611H53.8245C53.8245 89.5838 53.9859 90.3959 54.2921 91.2908L54.6998 91.1514L55.1074 91.0119C54.8211 90.1748 54.6863 89.4601 54.6863 88.8611H54.2554ZM54.6998 91.1514V90.7205H47.7263V91.1514V91.5823H54.6998V91.1514ZM47.7263 91.1514L48.0277 91.4593C49.1535 90.3574 50.0499 88.8979 50.7275 87.0986L50.3242 86.9468L49.921 86.7949C49.2769 88.5052 48.4413 89.8487 47.4249 90.8434L47.7263 91.1514ZM50.3242 86.9468L50.7295 87.0931C51.3374 85.4098 51.6439 83.7423 51.6439 82.0927H51.213H50.7821C50.7821 83.6336 50.4961 85.2022 49.919 86.8004L50.3242 86.9468ZM51.213 82.0927H51.6439C51.6439 81.6971 51.6323 81.3334 51.6086 81.0023L51.1788 81.033L50.749 81.0637C50.771 81.3707 50.7821 81.7135 50.7821 82.0927H51.213ZM51.1788 81.033L51.6063 80.9784C51.4552 79.7952 50.8655 78.6885 49.8841 77.6591L49.5722 77.9565L49.2604 78.2538C50.1476 79.1843 50.629 80.1286 50.7514 81.0876L51.1788 81.033ZM49.5722 77.9565L49.8813 77.6563C49.1185 76.8707 48.531 76.2576 48.1178 75.8161C47.911 75.5952 47.7496 75.419 47.6323 75.2865C47.5081 75.1462 47.4505 75.0738 47.4353 75.0511L47.0768 75.2901L46.7183 75.5291C46.7715 75.609 46.8691 75.7246 46.9871 75.8578C47.1119 75.9988 47.2795 76.1815 47.4886 76.405C47.9072 76.8522 48.499 77.4698 49.2631 78.2566L49.5722 77.9565ZM47.0768 75.2901L47.4343 75.0496C46.6481 73.8809 46.2429 72.4308 46.2429 70.6753H45.812H45.3811C45.3811 72.5662 45.8191 74.1926 46.7193 75.5306L47.0768 75.2901ZM45.812 70.6753V71.1062H51.9992V70.6753V70.2444H45.812V70.6753ZM51.9992 70.6753L51.6179 70.4747C51.3599 70.9649 51.2265 71.4777 51.2265 72.0085H51.6574H52.0883C52.0883 71.6277 52.1828 71.2518 52.3805 70.876L51.9992 70.6753ZM51.6574 72.0085H51.2265C51.2265 72.5228 51.3987 73.0845 51.7001 73.6812C52.0031 74.2812 52.4499 74.9424 53.0312 75.6632L53.3666 75.3927L53.702 75.1222C53.1438 74.4301 52.736 73.8207 52.4693 73.2927C52.201 72.7614 52.0883 72.3374 52.0883 72.0085H51.6574ZM53.3666 75.3927L53.05 75.6849C53.2828 75.9372 53.6031 76.4298 54.0113 77.2009L54.3921 76.9993L54.7729 76.7977C54.3607 76.0192 53.9973 75.4407 53.6832 75.1004L53.3666 75.3927ZM54.3921 76.9993L53.9872 77.1466C54.1478 77.5882 54.2347 78.1395 54.2347 78.8111H54.6656H55.0965C55.0965 78.0697 55.0011 77.4132 54.7971 76.8521L54.3921 76.9993ZM54.6656 78.8111H54.2347C54.2347 79.6759 54.0941 80.604 53.8072 81.5971L54.2212 81.7167L54.6351 81.8363C54.9408 80.7783 55.0965 79.7693 55.0965 78.8111H54.6656ZM54.2212 81.7167L54.5527 81.992C55.6886 80.6242 56.3271 79.3635 56.3271 78.2299H55.8962H55.4653C55.4653 79.0562 54.9871 80.12 53.8897 81.4414L54.2212 81.7167ZM55.8962 78.2299H56.3271C56.3271 77.2745 56.0145 76.1825 55.4299 74.9667L55.0416 75.1534L54.6533 75.3401C55.2082 76.4943 55.4653 77.4534 55.4653 78.2299H55.8962ZM55.0416 75.1534V75.5843H56.3064V75.1534V74.7225H55.0416V75.1534ZM56.3064 75.1534V75.5843C57.0714 75.5843 57.7927 75.5495 58.4701 75.4794L58.4258 75.0508L58.3814 74.6222C57.7371 74.6889 57.0455 74.7225 56.3064 74.7225V75.1534ZM58.4258 75.0508L58.0575 75.2745C58.8058 76.5069 59.1571 77.6147 59.1571 78.606H59.588H60.0189C60.0189 77.4095 59.5955 76.1471 58.7941 74.8272L58.4258 75.0508ZM59.588 78.606H59.1571C59.1571 79.3336 59.017 80.3343 58.7235 81.6209L59.1436 81.7167L59.5637 81.8125C59.8628 80.5011 60.0189 79.428 60.0189 78.606H59.588ZM59.1436 81.7167L59.4823 81.9831C60.6362 80.5166 61.2153 78.8388 61.2153 76.9651H60.7845H60.3536C60.3536 78.6465 59.8388 80.1364 58.805 81.4502L59.1436 81.7167ZM60.7845 76.9651H61.2153C61.2153 76.6478 61.191 76.3565 61.1386 76.0944L60.7161 76.1789L60.2936 76.2634C60.3323 76.4571 60.3536 76.6899 60.3536 76.9651H60.7845ZM60.7161 76.1789L61.1448 76.136C61.0625 75.3122 60.4939 74.348 59.5743 73.2675L59.2462 73.5468L58.9181 73.826C59.8216 74.8877 60.233 75.6783 60.2873 76.2218L60.7161 76.1789ZM59.2462 73.5468L59.5778 73.2716C59.1446 72.7496 58.831 72.2963 58.6275 71.9102C58.4217 71.5196 58.3439 71.2267 58.3439 71.0172H57.913H57.4821C57.4821 71.4229 57.6266 71.8593 57.8651 72.3119C58.106 72.769 58.459 73.2729 58.9146 73.8219L59.2462 73.5468ZM57.913 71.0172H58.3439C58.3439 70.9322 58.3524 70.8465 58.3697 70.7598L57.9472 70.6753L57.5247 70.5908C57.4964 70.732 57.4821 70.8743 57.4821 71.0172H57.913ZM57.9472 70.6753V71.1062H62.9722V70.6753V70.2444H57.9472V70.6753ZM74.8249 84.0412L74.6315 83.6561L74.2981 83.8235L74.4161 84.1774L74.8249 84.0412ZM80.2601 85.4085L79.9983 85.0662L79.9943 85.0694L80.2601 85.4085ZM82.0718 83.2549H82.5027L81.6885 83.0581L82.0718 83.2549ZM80.6703 88.5876L80.3027 88.3627L80.302 88.3638L80.6703 88.5876ZM72.3978 89.1003L72.7452 88.8453L72.7409 88.8396L72.3978 89.1003ZM70.5177 84.9299L70.9371 84.8309L70.9362 84.8273L70.5177 84.9299ZM70.5177 77.2044L70.9371 77.3035L70.9371 77.3034L70.5177 77.2044ZM72.3636 72.9315L72.0151 72.678L72.0103 72.6848L72.3636 72.9315ZM80.2943 73.41L80.6617 73.1849L80.6597 73.1817L80.2943 73.41ZM82.0376 78.2983L81.6121 78.3666L81.6137 78.3754L82.0376 78.2983ZM77.9014 77.6488L78.1128 78.0243L78.3323 77.9007V77.6488H77.9014ZM77.7647 76.0764L77.34 76.149L77.3402 76.1502L77.7647 76.0764ZM74.5172 77.5121L74.9446 77.5672L74.9455 77.5593L74.5172 77.5121ZM74.3805 79.6315H73.9496V80.3686L74.5919 80.0069L74.3805 79.6315ZM82.2427 79.9049H81.8118C81.8118 79.834 81.8313 79.782 81.8427 79.7566C81.8547 79.7301 81.8663 79.7143 81.8692 79.7104C81.8743 79.7037 81.8689 79.7121 81.8405 79.7373C81.7853 79.7864 81.6886 79.8596 81.5397 79.959C81.2453 80.1557 80.7938 80.4246 80.1784 80.7678C78.9505 81.4525 77.1027 82.4148 74.6315 83.6561L74.8249 84.0412L75.0183 84.4262C77.4923 83.1835 79.3535 82.2145 80.5981 81.5204C81.2191 81.1742 81.6948 80.8919 82.0185 80.6755C82.1788 80.5685 82.3139 80.4696 82.4132 80.3813C82.462 80.3378 82.5146 80.2861 82.5583 80.2279C82.5911 80.1843 82.6736 80.0675 82.6736 79.9049H82.2427ZM74.8249 84.0412L74.4161 84.1774C74.695 85.0141 75.0993 85.6821 75.6518 86.1415C76.2108 86.6062 76.8898 86.8307 77.6621 86.8307V86.3998V85.9689C77.0671 85.9689 76.5895 85.8003 76.2028 85.4788C75.8096 85.152 75.4789 84.6406 75.2336 83.9049L74.8249 84.0412ZM77.6621 86.3998V86.8307C78.6659 86.8307 79.6229 86.4554 80.5259 85.7476L80.2601 85.4085L79.9943 85.0694C79.2108 85.6834 78.4359 85.9689 77.6621 85.9689V86.3998ZM80.2601 85.4085L80.5218 85.7508C81.3459 85.1206 81.992 84.3535 82.4551 83.4518L82.0718 83.2549L81.6885 83.0581C81.2856 83.8427 80.7239 84.5114 79.9983 85.0662L80.2601 85.4085ZM82.0718 83.2549H81.6409C81.6409 85.2146 81.1904 86.9122 80.3028 88.3627L80.6703 88.5876L81.0378 88.8125C82.0189 87.2093 82.5027 85.3517 82.5027 83.2549H82.0718ZM80.6703 88.5876L80.302 88.3638C79.2769 90.0511 77.9045 90.8572 76.158 90.8572V91.2881V91.719C78.2401 91.719 79.8759 90.7248 81.0385 88.8113L80.6703 88.5876ZM76.158 91.2881V90.8572C74.8948 90.8572 73.7585 90.2252 72.7451 88.8453L72.3978 89.1003L72.0505 89.3554C73.1793 90.8925 74.5498 91.719 76.158 91.719V91.2881ZM72.3978 89.1003L72.7409 88.8396C71.9173 87.7559 71.3131 86.4234 70.9371 84.8309L70.5177 84.9299L70.0984 85.0289C70.4972 86.7181 71.1464 88.1659 72.0548 89.3611L72.3978 89.1003ZM70.5177 84.9299L70.9362 84.8273C70.6488 83.6557 70.5042 82.4141 70.5042 81.1014H70.0733H69.6425C69.6425 82.4777 69.7941 83.7886 70.0992 85.0326L70.5177 84.9299ZM70.0733 81.1014H70.5042C70.5042 79.7887 70.6488 78.5231 70.9371 77.3035L70.5177 77.2044L70.0984 77.1053C69.7941 78.3926 69.6425 79.7249 69.6425 81.1014H70.0733ZM70.5177 77.2044L70.9371 77.3034C71.3138 75.708 71.9091 74.3354 72.717 73.1781L72.3636 72.9315L72.0103 72.6848C71.1318 73.9432 70.4965 75.4192 70.0984 77.1054L70.5177 77.2044ZM72.3636 72.9315L72.7121 73.1849C73.7513 71.756 74.8996 71.1062 76.158 71.1062V70.6753V70.2444C74.545 70.2444 73.1637 71.0987 72.0152 72.678L72.3636 72.9315ZM76.158 70.6753V71.1062C77.5799 71.1062 78.8391 71.8947 79.9289 73.6384L80.2943 73.41L80.6597 73.1817C79.4705 71.2791 77.9723 70.2444 76.158 70.2444V70.6753ZM80.2943 73.41L79.9269 73.6352C80.7599 74.9944 81.3237 76.5692 81.6122 78.3666L82.0376 78.2983L82.4631 78.23C82.159 76.3356 81.5606 74.6516 80.6616 73.1849L80.2943 73.41ZM82.0376 78.2983L81.6137 78.3754C81.7504 79.1273 81.8118 79.6287 81.8118 79.9049H82.2427H82.6736C82.6736 79.5431 82.5983 78.9734 82.4616 78.2212L82.0376 78.2983ZM77.9014 77.6488H78.3323C78.3323 77.0995 78.2845 76.5507 78.1892 76.0025L77.7647 76.0764L77.3402 76.1502C77.4271 76.6503 77.4705 77.1498 77.4705 77.6488H77.9014ZM77.7647 76.0764L78.1894 76.0037C78.0377 75.117 77.818 74.4037 77.5073 73.9013C77.1889 73.3863 76.741 73.0475 76.158 73.0475V73.4784V73.9093C76.3499 73.9093 76.5572 74.0034 76.7743 74.3545C76.9992 74.7181 77.1954 75.3038 77.34 76.149L77.7647 76.0764ZM76.158 73.4784V73.0475C75.4702 73.0475 75.0327 73.6307 74.7505 74.3245C74.4542 75.0527 74.2383 76.1086 74.0889 77.4649L74.5172 77.5121L74.9455 77.5593C75.0924 76.2264 75.2981 75.2655 75.5487 74.6492C75.8135 73.9984 76.0483 73.9093 76.158 73.9093V73.4784ZM74.5172 77.5121L74.0899 77.4569C73.9964 78.1815 73.9496 78.9064 73.9496 79.6315H74.3805H74.8114C74.8114 78.9436 74.8557 78.2555 74.9446 77.5672L74.5172 77.5121ZM74.3805 79.6315L74.5919 80.0069L78.1128 78.0243L77.9014 77.6488L77.69 77.2734L74.1691 79.256L74.3805 79.6315ZM101.389 85.3401L100.978 85.2124L100.977 85.2142L101.389 85.3401ZM99.0307 89.3738L98.7293 89.0659L98.7289 89.0662L99.0307 89.3738ZM86.6904 91.1514L86.3781 90.8545L85.6861 91.5823H86.6904V91.1514ZM89.7327 85.682L89.3217 85.5527L89.3215 85.5532L89.7327 85.682ZM89.8694 74.8116L89.466 74.9629L89.47 74.9735L89.4745 74.9839L89.8694 74.8116ZM88.6388 72.8973L88.2819 73.1387L88.2838 73.1414L88.6388 72.8973ZM87.8868 70.8463L88.3173 70.8628L88.3177 70.8545V70.8463H87.8868ZM87.8868 70.6753V70.2444H87.4559V70.6753H87.8868ZM98.7914 72.7947L98.4767 73.0891L98.4778 73.0902L98.7914 72.7947ZM101.287 76.931L100.88 77.0725L100.881 77.0754L101.287 76.931ZM94.1082 74.0937L94.316 73.7162L93.8436 73.4562L93.6942 73.9743L94.1082 74.0937ZM93.2536 79.3238L93.6824 79.3667L93.6824 79.3663L93.2536 79.3238ZM97.1506 84.9983L97.5424 85.1776L97.5443 85.1733L97.1506 84.9983ZM102.005 81.1014H101.574C101.574 82.5659 101.374 83.9354 100.978 85.2124L101.389 85.3401L101.801 85.4679C102.225 84.1013 102.436 82.645 102.436 81.1014H102.005ZM101.389 85.3401L100.977 85.2142C100.494 86.7962 99.7418 88.0749 98.7293 89.0659L99.0307 89.3738L99.3321 89.6818C100.462 88.5761 101.282 87.1658 101.801 85.4661L101.389 85.3401ZM99.0307 89.3738L98.7289 89.0662C97.5962 90.1776 96.3011 90.7205 94.8261 90.7205V91.1514V91.5823C96.5415 91.5823 98.0495 90.9402 99.3324 89.6814L99.0307 89.3738ZM94.8261 91.1514V90.7205H86.6904V91.1514V91.5823H94.8261V91.1514ZM86.6904 91.1514L87.0026 91.4483C88.3791 90.0006 89.4222 88.1154 90.1439 85.8107L89.7327 85.682L89.3215 85.5532C88.6302 87.7608 87.6451 89.5219 86.3781 90.8545L86.6904 91.1514ZM89.7327 85.682L90.1437 85.8113C90.7948 83.7418 91.1207 81.6358 91.1207 79.4947H90.6898H90.259C90.259 81.5468 89.9468 83.5657 89.3217 85.5527L89.7327 85.682ZM90.6898 79.4947H91.1207C91.1207 77.5871 90.842 75.963 90.2644 74.6392L89.8694 74.8116L89.4745 74.9839C89.9907 76.1669 90.259 77.6649 90.259 79.4947H90.6898ZM89.8694 74.8116L90.2729 74.6603C90.2416 74.5768 90.1859 74.4745 90.1263 74.3723C90.062 74.2622 89.9771 74.1253 89.873 73.9633C89.6643 73.6387 89.3709 73.2015 88.9939 72.6532L88.6388 72.8973L88.2838 73.1414C88.6588 73.6869 88.9465 74.1157 89.1481 74.4293C89.249 74.5862 89.3265 74.7115 89.3819 74.8065C89.4096 74.854 89.4304 74.8916 89.4454 74.9204C89.4614 74.9513 89.4663 74.9636 89.466 74.9629L89.8694 74.8116ZM88.6388 72.8973L88.9957 72.6558C88.4954 71.9162 88.2996 71.3244 88.3173 70.8628L87.8868 70.8463L87.4562 70.8297C87.4284 71.5531 87.734 72.3287 88.2819 73.1387L88.6388 72.8973ZM87.8868 70.8463H88.3177V70.6753H87.8868H87.4559V70.8463H87.8868ZM87.8868 70.6753V71.1062H94.6552V70.6753V70.2444H87.8868V70.6753ZM94.6552 70.6753V71.1062C95.9344 71.1062 97.207 71.7318 98.4767 73.0891L98.7914 72.7947L99.106 72.5004C97.7323 71.0318 96.2473 70.2444 94.6552 70.2444V70.6753ZM98.7914 72.7947L98.4778 73.0902C99.5519 74.2301 100.352 75.5561 100.88 77.0725L101.287 76.931L101.694 76.7894C101.127 75.161 100.264 73.7294 99.105 72.4992L98.7914 72.7947ZM101.287 76.931L100.881 77.0754C101.343 78.3733 101.574 79.7146 101.574 81.1014H102.005H102.436C102.436 79.6167 102.188 78.1777 101.693 76.7865L101.287 76.931ZM94.1082 74.0937L93.6942 73.9743C93.3413 75.1975 93.0535 76.972 92.8248 79.2814L93.2536 79.3238L93.6824 79.3663C93.9095 77.0722 94.1914 75.3599 94.5222 74.2131L94.1082 74.0937ZM93.2536 79.3238L92.8249 79.2809C92.5964 81.566 92.4809 83.4052 92.4809 84.7932H92.9118H93.3427C93.3427 83.4465 93.4551 81.6395 93.6824 79.3667L93.2536 79.3238ZM92.9118 84.7932H92.4809C92.4809 85.5703 92.613 86.2295 92.9421 86.7049C93.291 87.209 93.8186 87.446 94.4501 87.446V87.0151V86.5843C94.056 86.5843 93.8144 86.451 93.6506 86.2144C93.467 85.9491 93.3427 85.4974 93.3427 84.7932H92.9118ZM94.4501 87.0151V87.446C95.1301 87.446 95.743 87.2511 96.2718 86.8562C96.7952 86.4653 97.2139 85.8955 97.5424 85.1776L97.1506 84.9983L96.7588 84.819C96.472 85.4457 96.1329 85.8843 95.7561 86.1657C95.3847 86.4431 94.9551 86.5843 94.4501 86.5843V87.0151ZM97.1506 84.9983L97.5443 85.1733C98.0289 84.0829 98.2651 82.8363 98.2651 81.4432H97.8342H97.4033C97.4033 82.7392 97.1838 83.8627 96.7568 84.8233L97.1506 84.9983ZM97.8342 81.4432H98.2651C98.2651 77.7992 96.9733 75.179 94.316 73.7162L94.1082 74.0937L93.9004 74.4712C96.2112 75.7431 97.4033 78.0225 97.4033 81.4432H97.8342Z" fill="#F2F2F2" mask="url(#path-2-outside-1_1933_355)"/>
<path d="M39.2477 53.9456L23.1157 47.7707" stroke="#F2F2F2" stroke-width="2.76812" stroke-linecap="round"/>
<path d="M122.949 48.3065L107.175 55.3473" stroke="#F2F2F2" stroke-width="2.76812" stroke-linecap="round"/>
<path d="M38.2197 79.3741L22.7018 86.9611" stroke="#F2F2F2" stroke-width="2.76812" stroke-linecap="round"/>
<path d="M108.627 78.2842L124.414 85.2949" stroke="#F2F2F2" stroke-width="2.76812" stroke-linecap="round"/>
<path d="M37.0432 66.5448L19.7728 66.8628" stroke="#F2F2F2" stroke-width="2.76812" stroke-linecap="round"/>
<path d="M125.633 67.3058L108.362 67.0208" stroke="#F2F2F2" stroke-width="2.76812" stroke-linecap="round"/>
</svg>
