<svg width="212" height="35" viewBox="0 0 212 35" fill="none" xmlns="http://www.w3.org/2000/svg">
<rect x="1" y="1" width="210" height="33" rx="16.5" stroke="black" stroke-width="2"/>
<path d="M73.84 26.4C69.76 26.4 66.44 23.08 66.44 19C66.44 14.92 69.76 11.6 73.84 11.6C77.92 11.6 81.24 14.92 81.24 19C81.24 23.08 77.92 26.4 73.84 26.4ZM69.1 19C69.1 21.72 71.12 23.88 73.84 23.88C76.56 23.88 78.56 21.72 78.56 19C78.56 16.28 76.56 14.12 73.84 14.12C71.12 14.12 69.1 16.28 69.1 19ZM94.5813 26V12H97.2413V17.8H104.441V12H107.121V26H104.441V20.2H97.2413V26H94.5813ZM121.927 26L120.807 23.36H114.147L113.027 26H110.267L116.087 12H118.867L124.687 26H121.927ZM115.067 21.1H119.887L117.487 15.42L115.067 21.1ZM133.715 26.4C129.635 26.4 126.315 23.08 126.315 19C126.315 14.92 129.635 11.6 133.715 11.6C136.095 11.6 138.215 12.72 139.555 14.48L137.755 15.96C136.775 14.84 135.335 14.1 133.695 14.1C131.035 14.1 128.975 16.24 128.975 19C128.975 21.76 131.035 23.9 133.695 23.9C135.335 23.9 136.775 23.16 137.755 22.04L139.555 23.52C138.215 25.28 136.095 26.4 133.715 26.4Z" fill="black"/>
</svg>
