<svg width="183" height="58" viewBox="0 0 183 58" fill="none" xmlns="http://www.w3.org/2000/svg">
<path d="M40.7298 24.4554C38.6966 27.9081 36.4524 30.9004 33.9972 33.4323C30.5829 37 27.4756 38.7839 24.6751 38.7839C23.716 38.7839 22.8529 38.3427 22.0856 37.4604C20.6278 38.4578 19.266 38.9565 18 38.9565C16.6957 38.9565 15.8709 38.0933 15.5256 36.367C13.6458 39.7813 11.4975 44.4423 9.0807 50.3502C7.39275 54.4166 6.18433 56.4498 5.45544 56.4498C4.68819 56.4498 3.72912 56.2005 2.57824 55.7018L0.161403 57.8309C3.0386 52.8437 6.45286 46.5331 10.4042 38.8989C13.7034 32.5308 16.8108 26.738 19.7263 21.5207C19.7647 21.4823 19.9181 21.233 20.1867 20.7726C20.4936 20.4274 20.8964 20.2547 21.3951 20.2547C21.5869 20.2547 21.9322 20.3315 22.4309 20.4849C22.9296 20.6384 23.2365 20.7151 23.3516 20.7151C23.5434 20.7151 23.8887 20.4465 24.3874 19.9095C24.9244 19.3724 25.3081 19.0847 25.5382 19.0463L24.56 20.8302C25.2889 20.1013 26.248 19.7368 27.4372 19.7368C28.5113 19.7368 29.4129 20.1972 30.1418 21.1179C30.8706 22.0386 31.2351 23.1511 31.2351 24.4554C31.2351 28.6753 28.4154 32.8568 22.7761 37C23.3899 37.7289 24.0229 38.0933 24.6751 38.0933C27.2454 38.0933 30.2377 36.3095 33.6519 32.7418C36.0688 30.2098 38.2746 27.3134 40.2695 24.0526L40.7298 24.4554ZM27.7825 22.1537C27.7825 21.3481 27.3988 20.9453 26.6316 20.9453C25.0204 20.9453 22.968 22.9785 20.4744 27.0449C18.9399 29.5768 17.7698 31.8402 16.9642 33.8351C17.2327 33.72 17.7123 33.6625 18.4028 33.6625C18.9399 33.6625 19.8798 34.1612 21.2225 35.1586C22.5268 33.5474 23.8887 31.4758 25.3081 28.9439C26.9577 25.8749 27.7825 23.6115 27.7825 22.1537ZM20.5895 35.7916C19.6304 34.8709 18.7289 34.4105 17.8849 34.4105C16.8875 34.4105 16.3888 34.6407 16.3888 35.1011C16.3888 35.5998 16.5422 36.1177 16.8491 36.6547C17.1177 37.1535 17.4821 37.4028 17.9425 37.4028C18.4795 37.4028 18.9399 37.2685 19.3235 37C19.4386 36.8849 19.5729 36.7698 19.7263 36.6547C19.9949 36.3862 20.2826 36.0985 20.5895 35.7916ZM64.1542 24.4554C62.8115 26.7188 60.5673 29.3083 57.4216 32.2239C53.3552 35.945 49.9409 37.8056 47.1788 37.8056C45.721 37.8056 44.5318 37.3261 43.6111 36.367C42.652 35.3696 42.1725 34.142 42.1725 32.6842C42.1725 29.0014 43.8029 25.8365 47.0637 23.1895C49.9025 20.8877 52.6455 19.7368 55.2925 19.7368C56.1748 19.7368 56.9421 20.0437 57.5942 20.6575C58.2464 21.2713 58.5725 22.0194 58.5725 22.9018C58.5725 25.3186 56.827 27.3326 53.336 28.9439C50.689 30.1715 48.4639 30.7853 46.6609 30.7853C45.9704 32.2814 45.6251 33.6241 45.6251 34.8133C45.6251 36.2327 46.143 36.9425 47.1788 36.9425C49.7107 36.9425 52.9332 35.2161 56.8462 31.7635C59.9535 29.0014 62.2361 26.4311 63.6939 24.0526L64.1542 24.4554ZM55.6953 21.8084C55.6953 20.9261 55.2925 20.4849 54.4869 20.4849C52.6455 20.4849 50.2286 23.458 47.2363 29.4042C48.7708 29.4042 50.5931 28.4068 52.703 26.4119C54.6978 24.5322 55.6953 22.9977 55.6953 21.8084ZM83.4669 24.4554C82.8915 25.3378 81.0885 27.7546 78.0578 31.706C74.9121 35.7724 71.5554 37.8056 67.9876 37.8056C67.1437 37.8056 66.4339 37.4412 65.8585 36.7123C65.2447 35.9834 64.9378 35.1011 64.9378 34.0653C64.9378 33.0678 65.3406 31.7443 66.1462 30.0947L70.6346 20.9453H66.4339L67.3546 20.0821H71.9582C73.8379 18.8929 75.5451 17.3775 77.0796 15.5361C78.0386 14.3853 79.3621 12.5055 81.0501 9.89684H81.6831L75.8711 20.0821H80.1869L79.8417 20.9453H75.5259L69.5413 31.4182C68.6973 32.876 68.2753 33.8926 68.2753 34.4681C68.2753 34.9284 68.4288 35.408 68.7357 35.9067C69.081 36.4054 69.4262 36.6547 69.7715 36.6547C70.884 36.6547 72.3034 35.9834 74.0297 34.6407C75.4108 33.5665 76.5617 32.4349 77.4824 31.2456C78.5565 29.9029 80.3979 27.5053 83.0066 24.0526L83.4669 24.4554ZM121.062 24.4554C119.489 27.2943 116.171 29.1932 111.107 30.1523C109.841 32.1088 107.98 33.8543 105.525 35.3888C102.916 37 100.5 37.8056 98.2746 37.8056C96.7401 37.8056 95.6084 37.1343 94.8795 35.7916C94.726 35.523 94.6493 35.1586 94.6493 34.6982C94.6493 34.0077 94.7644 33.298 94.9946 32.5691C93.4984 34.2571 92.3284 35.4271 91.4844 36.0793C90.0266 37.2302 88.5305 37.8056 86.996 37.8056C86.152 37.8056 85.4423 37.4604 84.8669 36.7698C84.2531 36.0793 83.9462 35.1778 83.9462 34.0653C83.9462 32.9144 84.3873 31.5142 85.2697 29.8646L89.8156 21.4056C90.2376 20.6384 90.7172 20.2547 91.2542 20.2547C91.4844 20.2547 91.868 20.3315 92.4051 20.4849C92.9806 20.6 93.345 20.6575 93.4984 20.6575C93.6519 20.6575 93.978 20.4082 94.4767 19.9095C94.9754 19.3724 95.3398 19.0847 95.57 19.0463L88.3195 32.7418C87.8208 33.7008 87.5714 34.5064 87.5714 35.1586C87.5714 36.156 87.8591 36.6547 88.4346 36.6547C89.7006 36.6547 91.1967 35.6957 92.923 33.7775C94.189 32.3198 95.2631 30.7853 96.1455 29.174L100.519 21.0603C100.826 20.5233 101.248 20.2547 101.785 20.2547C101.977 20.2547 102.341 20.3315 102.878 20.4849C103.415 20.6 103.76 20.6575 103.914 20.6575C104.144 20.6575 104.489 20.4082 104.95 19.9095C105.448 19.3724 105.813 19.0847 106.043 19.0463L99.1953 31.9937C98.4664 33.3747 98.102 34.4297 98.102 35.1586C98.102 36.3862 98.639 37 99.7132 37C102.207 37 104.796 34.4105 107.482 29.2316C106.216 28.004 105.583 26.5078 105.583 24.7432C105.583 23.2087 106.005 21.9235 106.849 20.8877C107.693 19.8136 108.748 19.2765 110.014 19.2765C110.858 19.2765 111.625 19.756 112.315 20.7151C113.006 21.6358 113.351 22.6524 113.351 23.7649C113.351 25.683 112.756 27.5244 111.567 29.2891C112.987 29.0973 114.675 28.4835 116.631 27.4477C118.818 26.2968 120.141 25.1651 120.602 24.0526L121.062 24.4554ZM109.898 21.6933C109.898 20.8877 109.534 20.4849 108.805 20.4849C108.115 20.4849 107.539 20.9069 107.079 21.7509C106.618 22.5565 106.388 23.5539 106.388 24.7432C106.388 26.4311 106.849 27.6587 107.769 28.426C108.306 27.7354 108.786 26.6805 109.208 25.2611C109.668 23.8416 109.898 22.6524 109.898 21.6933ZM144.468 24.4554C143.126 26.7188 140.881 29.3083 137.736 32.2239C133.669 35.945 130.255 37.8056 127.493 37.8056C126.035 37.8056 124.846 37.3261 123.925 36.367C122.966 35.3696 122.487 34.142 122.487 32.6842C122.487 29.0014 124.117 25.8365 127.378 23.1895C130.217 20.8877 132.96 19.7368 135.607 19.7368C136.489 19.7368 137.256 20.0437 137.908 20.6575C138.561 21.2713 138.887 22.0194 138.887 22.9018C138.887 25.3186 137.141 27.3326 133.65 28.9439C131.003 30.1715 128.778 30.7853 126.975 30.7853C126.285 32.2814 125.939 33.6241 125.939 34.8133C125.939 36.2327 126.457 36.9425 127.493 36.9425C130.025 36.9425 133.247 35.2161 137.16 31.7635C140.268 29.0014 142.55 26.4311 144.008 24.0526L144.468 24.4554ZM136.009 21.8084C136.009 20.9261 135.607 20.4849 134.801 20.4849C132.96 20.4849 130.543 23.458 127.55 29.4042C129.085 29.4042 130.907 28.4068 133.017 26.4119C135.012 24.5322 136.009 22.9977 136.009 21.8084ZM182.713 2.81894C182.713 5.61941 180.546 9.30222 176.211 13.8674C172.259 18.0489 168.73 20.8685 165.622 22.3263C161.288 30.3441 159.12 34.775 159.12 35.6189C159.12 36.578 159.523 37.0575 160.328 37.0575C161.479 37.0575 163.282 35.8875 165.738 33.5474C167.464 31.8978 170.437 28.7329 174.657 24.0526L175.117 24.4554C170.514 29.6344 167.406 32.9911 165.795 34.5256C163.378 36.8274 161.479 37.9782 160.098 37.9782C158.871 37.9782 157.931 37.6905 157.279 37.1151C156.626 36.578 156.032 35.5614 155.495 34.0653C154.152 35.7149 153.27 36.6931 152.848 37C152.157 37.5371 151.294 37.8056 150.258 37.8056C149.107 37.8056 148.129 37.2877 147.324 36.2519C146.48 35.1778 146.058 33.9502 146.058 32.5691C146.058 28.963 147.419 25.894 150.143 23.3621C152.79 20.9453 155.936 19.7368 159.58 19.7368C160.501 19.7368 161.479 20.2547 162.515 21.2905C165.2 16.687 167.867 12.6973 170.514 9.3214C174.925 3.64374 178.436 0.804911 181.044 0.804911C182.157 0.804911 182.713 1.47626 182.713 2.81894ZM180.296 3.22175C180.296 2.37778 179.951 1.95579 179.26 1.95579C177.841 1.95579 173.621 8.15134 166.601 20.5425C170.514 18.164 173.832 15.095 176.556 11.3354C179.049 7.88281 180.296 5.17824 180.296 3.22175ZM161.307 22.0386C161.307 21.655 161.115 21.3097 160.731 21.0028C160.348 20.6575 159.964 20.4849 159.58 20.4849C157.854 20.4849 155.667 22.4798 153.02 26.4695C150.488 30.3057 149.222 33.1829 149.222 35.1011C149.222 36.4054 149.644 37.0575 150.488 37.0575C151.563 37.0575 152.56 36.4437 153.481 35.2161C153.519 35.1778 154.536 33.7392 156.531 30.9004C159.715 26.3736 161.307 23.4196 161.307 22.0386Z" fill="black"/>
</svg>
