<svg width="211" height="35" viewBox="0 0 211 35" fill="none" xmlns="http://www.w3.org/2000/svg">
<path d="M29.3 26V12H41.84V26H39.16V14.4H31.96V26H29.3ZM52.7814 26.4C48.7014 26.4 45.3814 23.08 45.3814 19C45.3814 14.92 48.7014 11.6 52.7814 11.6C56.8614 11.6 60.1814 14.92 60.1814 19C60.1814 23.08 56.8614 26.4 52.7814 26.4ZM48.0414 19C48.0414 21.72 50.0614 23.88 52.7814 23.88C55.5014 23.88 57.5014 21.72 57.5014 19C57.5014 16.28 55.5014 14.12 52.7814 14.12C50.0614 14.12 48.0414 16.28 48.0414 19ZM71.6102 21.06H66.3702V26H63.7102V12H71.6102C74.1502 12 75.9902 14.12 75.9902 16.54C75.9902 18.96 74.1502 21.06 71.6102 21.06ZM71.2102 18.74C72.5702 18.74 73.4102 17.6 73.4102 16.54C73.4102 15.46 72.5702 14.34 71.2102 14.34H66.3702V18.74H71.2102ZM83.6811 26V14.4H78.6211V12H91.4211V14.4H86.3611V26H83.6811ZM101.318 26V24.5H98.4783C95.4383 24.5 92.7783 22.24 92.7783 19C92.7783 15.76 95.4383 13.5 98.4783 13.5H101.318V12H103.978V13.5H106.598C109.638 13.5 112.298 15.76 112.298 19C112.298 22.24 109.638 24.5 106.598 24.5H103.978V26H101.318ZM98.4783 15.9C96.9183 15.9 95.3783 17.14 95.3783 19C95.3783 20.86 96.9183 22.1 98.4783 22.1H101.318V15.9H98.4783ZM106.598 15.9H103.978V22.1H106.598C108.158 22.1 109.698 20.86 109.698 19C109.698 17.14 108.158 15.9 106.598 15.9ZM122.656 26.4C118.576 26.4 115.256 23.08 115.256 19C115.256 14.92 118.576 11.6 122.656 11.6C126.736 11.6 130.056 14.92 130.056 19C130.056 23.08 126.736 26.4 122.656 26.4ZM117.916 19C117.916 21.72 119.936 23.88 122.656 23.88C125.376 23.88 127.376 21.72 127.376 19C127.376 16.28 125.376 14.12 122.656 14.12C119.936 14.12 117.916 16.28 117.916 19ZM131.698 26V23.74H132.278C133.278 23.74 133.638 22.96 133.898 21.94L136.358 12H145.238V26H142.578V14.4H138.418L136.278 23.1C135.858 24.8 134.958 26 132.898 26H131.698ZM149.843 26V12H152.503V21.94L160.103 12H162.783V26H160.103V16.06L152.503 26H149.843ZM173.735 26.4C169.655 26.4 166.335 23.08 166.335 19C166.335 14.92 169.655 11.6 173.735 11.6C177.815 11.6 181.135 14.92 181.135 19C181.135 23.08 177.815 26.4 173.735 26.4ZM168.995 19C168.995 21.72 171.015 23.88 173.735 23.88C176.455 23.88 178.455 21.72 178.455 19C178.455 16.28 176.455 14.12 173.735 14.12C171.015 14.12 168.995 16.28 168.995 19Z" fill="black"/>
<rect x="1" y="1" width="209" height="33" rx="16.5" stroke="black" stroke-width="2"/>
</svg>
