<svg width="668" height="678" viewBox="0 0 668 678" fill="none" xmlns="http://www.w3.org/2000/svg">
<path d="M33 676.5H173.5C190.897 676.5 205 662.397 205 645V546.5C205 527.446 220.446 512 239.5 512H635C652.397 512 666.5 497.897 666.5 480.5V33C666.5 15.603 652.397 1.5 635 1.5H33C15.603 1.50001 1.5 15.603 1.5 33V78.5C1.5 95.897 15.603 110 33 110H556C575.054 110 590.5 125.446 590.5 144.5V195.5C590.5 214.554 575.054 230 556 230H33C15.603 230 1.5 244.103 1.5 261.5V645C1.5 662.397 15.603 676.5 33 676.5Z" stroke="#C2A8FF" stroke-width="3"/>
</svg>
