<svg width="438" height="328" viewBox="0 0 438 328" fill="none" xmlns="http://www.w3.org/2000/svg">
<rect x="2" y="2" width="434" height="324" rx="31" stroke="#C2A8FF" stroke-width="4"/>
<path d="M49.0341 153.33C47.4503 153.33 46.0866 152.972 44.9432 152.254C43.8068 151.53 42.9332 150.532 42.3224 149.261C41.7116 147.989 41.4062 146.533 41.4062 144.893C41.4062 143.231 41.7188 141.764 42.3438 140.493C42.9688 139.214 43.8494 138.217 44.9858 137.499C46.1222 136.782 47.4609 136.423 49.0021 136.423C50.245 136.423 51.353 136.654 52.326 137.116C53.299 137.57 54.0838 138.21 54.6804 139.033C55.2841 139.857 55.6428 140.82 55.7564 141.92H52.6562C52.4858 141.153 52.0952 140.493 51.4844 139.939C50.8807 139.385 50.071 139.108 49.0554 139.108C48.1676 139.108 47.3899 139.342 46.7223 139.811C46.0618 140.273 45.5469 140.933 45.1776 141.793C44.8082 142.645 44.6236 143.653 44.6236 144.818C44.6236 146.011 44.8047 147.041 45.1669 147.908C45.5291 148.774 46.0405 149.445 46.701 149.921C47.3686 150.397 48.1534 150.635 49.0554 150.635C49.6591 150.635 50.206 150.525 50.696 150.305C51.1932 150.077 51.6087 149.754 51.9425 149.335C52.2834 148.916 52.5213 148.412 52.6562 147.822H55.7564C55.6428 148.881 55.2983 149.825 54.723 150.656C54.1477 151.487 53.3771 152.141 52.4112 152.616C51.4524 153.092 50.3267 153.33 49.0341 153.33ZM66.0556 153.33C64.5215 153.33 63.1827 152.979 62.0392 152.276C60.8958 151.572 60.008 150.589 59.3759 149.325C58.7438 148.06 58.4277 146.583 58.4277 144.893C58.4277 143.195 58.7438 141.711 59.3759 140.44C60.008 139.168 60.8958 138.181 62.0392 137.478C63.1827 136.775 64.5215 136.423 66.0556 136.423C67.5897 136.423 68.9284 136.775 70.0719 137.478C71.2154 138.181 72.1032 139.168 72.7353 140.44C73.3674 141.711 73.6834 143.195 73.6834 144.893C73.6834 146.583 73.3674 148.06 72.7353 149.325C72.1032 150.589 71.2154 151.572 70.0719 152.276C68.9284 152.979 67.5897 153.33 66.0556 153.33ZM66.0662 150.656C67.0605 150.656 67.8844 150.393 68.5378 149.868C69.1912 149.342 69.6742 148.643 69.9867 147.769C70.3063 146.896 70.4661 145.933 70.4661 144.882C70.4661 143.838 70.3063 142.879 69.9867 142.006C69.6742 141.125 69.1912 140.418 68.5378 139.886C67.8844 139.353 67.0605 139.087 66.0662 139.087C65.0648 139.087 64.2338 139.353 63.5733 139.886C62.9199 140.418 62.4334 141.125 62.1138 142.006C61.8013 142.879 61.6451 143.838 61.6451 144.882C61.6451 145.933 61.8013 146.896 62.1138 147.769C62.4334 148.643 62.9199 149.342 63.5733 149.868C64.2338 150.393 65.0648 150.656 66.0662 150.656ZM77.239 153V136.636H84.0252C85.8718 136.636 87.3349 137.031 88.4144 137.819C89.494 138.6 90.0337 139.662 90.0337 141.004C90.0337 141.963 89.7283 142.723 89.1175 143.284C88.5067 143.845 87.6971 144.222 86.6886 144.413C87.4201 144.499 88.0913 144.719 88.7021 145.074C89.3129 145.422 89.8029 145.891 90.1722 146.48C90.5487 147.07 90.7369 147.773 90.7369 148.589C90.7369 149.456 90.5131 150.223 90.0657 150.891C89.6183 151.551 88.9684 152.07 88.1161 152.446C87.271 152.815 86.2518 153 85.0586 153H77.239ZM80.2326 150.337H85.0586C85.8469 150.337 86.4648 150.148 86.9123 149.772C87.3597 149.396 87.5835 148.884 87.5835 148.238C87.5835 147.478 87.3597 146.881 86.9123 146.448C86.4648 146.008 85.8469 145.788 85.0586 145.788H80.2326V150.337ZM80.2326 143.455H84.0572C84.6538 143.455 85.1651 143.369 85.5913 143.199C86.0245 143.028 86.3548 142.787 86.582 142.474C86.8164 142.155 86.9336 141.778 86.9336 141.345C86.9336 140.713 86.6744 140.219 86.1559 139.864C85.6374 139.509 84.9272 139.332 84.0252 139.332H80.2326V143.455ZM101.124 153.33C99.5401 153.33 98.1765 152.972 97.033 152.254C95.8967 151.53 95.0231 150.532 94.4123 149.261C93.8015 147.989 93.4961 146.533 93.4961 144.893C93.4961 143.231 93.8086 141.764 94.4336 140.493C95.0586 139.214 95.9393 138.217 97.0756 137.499C98.212 136.782 99.5508 136.423 101.092 136.423C102.335 136.423 103.443 136.654 104.416 137.116C105.389 137.57 106.174 138.21 106.77 139.033C107.374 139.857 107.733 140.82 107.846 141.92H104.746C104.576 141.153 104.185 140.493 103.574 139.939C102.971 139.385 102.161 139.108 101.145 139.108C100.257 139.108 99.4798 139.342 98.8121 139.811C98.1516 140.273 97.6367 140.933 97.2674 141.793C96.8981 142.645 96.7134 143.653 96.7134 144.818C96.7134 146.011 96.8945 147.041 97.2567 147.908C97.619 148.774 98.1303 149.445 98.7908 149.921C99.4585 150.397 100.243 150.635 101.145 150.635C101.749 150.635 102.296 150.525 102.786 150.305C103.283 150.077 103.699 149.754 104.032 149.335C104.373 148.916 104.611 148.412 104.746 147.822H107.846C107.733 148.881 107.388 149.825 106.813 150.656C106.238 151.487 105.467 152.141 104.501 152.616C103.542 153.092 102.417 153.33 101.124 153.33ZM118.305 153.33C116.693 153.33 115.305 152.986 114.14 152.297C112.982 151.601 112.087 150.624 111.455 149.367C110.83 148.103 110.518 146.622 110.518 144.925C110.518 143.249 110.83 141.771 111.455 140.493C112.087 139.214 112.968 138.217 114.097 137.499C115.233 136.782 116.562 136.423 118.081 136.423C119.005 136.423 119.9 136.576 120.766 136.881C121.633 137.187 122.41 137.666 123.099 138.32C123.788 138.973 124.331 139.822 124.729 140.866C125.127 141.903 125.326 143.163 125.326 144.648V145.777H112.318V143.391H122.204C122.204 142.553 122.034 141.81 121.693 141.164C121.352 140.511 120.873 139.996 120.255 139.619C119.644 139.243 118.927 139.055 118.103 139.055C117.208 139.055 116.427 139.275 115.759 139.715C115.099 140.148 114.587 140.717 114.225 141.42C113.87 142.116 113.692 142.872 113.692 143.689V145.553C113.692 146.647 113.884 147.577 114.268 148.344C114.658 149.112 115.202 149.697 115.898 150.102C116.594 150.5 117.407 150.699 118.337 150.699C118.941 150.699 119.491 150.614 119.988 150.443C120.486 150.266 120.915 150.003 121.278 149.655C121.64 149.307 121.917 148.877 122.108 148.366L125.123 148.909C124.882 149.797 124.449 150.575 123.824 151.242C123.206 151.903 122.428 152.418 121.491 152.787C120.56 153.149 119.498 153.33 118.305 153.33ZM138.043 149.058L143.327 136.636H146.076L139.226 153H136.861L130.149 136.636H132.866L138.043 149.058ZM131.982 136.636V153H128.86V136.636H131.982ZM144.19 153V136.636H147.29V153H144.19ZM166.368 153.33C164.784 153.33 163.421 152.972 162.277 152.254C161.141 151.53 160.267 150.532 159.656 149.261C159.046 147.989 158.74 146.533 158.74 144.893C158.74 143.231 159.053 141.764 159.678 140.493C160.303 139.214 161.183 138.217 162.32 137.499C163.456 136.782 164.795 136.423 166.336 136.423C167.579 136.423 168.687 136.654 169.66 137.116C170.633 137.57 171.418 138.21 172.014 139.033C172.618 139.857 172.977 140.82 173.09 141.92H169.99C169.82 141.153 169.429 140.493 168.818 139.939C168.215 139.385 167.405 139.108 166.389 139.108C165.502 139.108 164.724 139.342 164.056 139.811C163.396 140.273 162.881 140.933 162.512 141.793C162.142 142.645 161.958 143.653 161.958 144.818C161.958 146.011 162.139 147.041 162.501 147.908C162.863 148.774 163.374 149.445 164.035 149.921C164.703 150.397 165.487 150.635 166.389 150.635C166.993 150.635 167.54 150.525 168.03 150.305C168.527 150.077 168.943 149.754 169.276 149.335C169.617 148.916 169.855 148.412 169.99 147.822H173.09C172.977 148.881 172.632 149.825 172.057 150.656C171.482 151.487 170.711 152.141 169.745 152.616C168.786 153.092 167.661 153.33 166.368 153.33ZM176.497 153V136.636H179.682V143.497H181.216L186.618 136.636H190.559L184.221 144.594L190.634 153H186.681L181.749 146.459H179.682V153H176.497ZM199.327 153.33C197.793 153.33 196.454 152.979 195.311 152.276C194.167 151.572 193.279 150.589 192.647 149.325C192.015 148.06 191.699 146.583 191.699 144.893C191.699 143.195 192.015 141.711 192.647 140.44C193.279 139.168 194.167 138.181 195.311 137.478C196.454 136.775 197.793 136.423 199.327 136.423C200.861 136.423 202.2 136.775 203.343 137.478C204.487 138.181 205.375 139.168 206.007 140.44C206.639 141.711 206.955 143.195 206.955 144.893C206.955 146.583 206.639 148.06 206.007 149.325C205.375 150.589 204.487 151.572 203.343 152.276C202.2 152.979 200.861 153.33 199.327 153.33ZM199.338 150.656C200.332 150.656 201.156 150.393 201.809 149.868C202.463 149.342 202.946 148.643 203.258 147.769C203.578 146.896 203.738 145.933 203.738 144.882C203.738 143.838 203.578 142.879 203.258 142.006C202.946 141.125 202.463 140.418 201.809 139.886C201.156 139.353 200.332 139.087 199.338 139.087C198.336 139.087 197.505 139.353 196.845 139.886C196.191 140.418 195.705 141.125 195.385 142.006C195.073 142.879 194.917 143.838 194.917 144.882C194.917 145.933 195.073 146.896 195.385 147.769C195.705 148.643 196.191 149.342 196.845 149.868C197.505 150.393 198.336 150.656 199.338 150.656ZM210.51 159.136V136.636H213.621V139.289H213.888C214.072 138.948 214.339 138.554 214.687 138.107C215.035 137.659 215.518 137.268 216.135 136.935C216.753 136.594 217.57 136.423 218.586 136.423C219.907 136.423 221.086 136.757 222.123 137.425C223.16 138.092 223.973 139.055 224.562 140.312C225.159 141.569 225.457 143.082 225.457 144.85C225.457 146.619 225.162 148.135 224.573 149.399C223.983 150.656 223.174 151.626 222.144 152.308C221.114 152.982 219.939 153.32 218.618 153.32C217.623 153.32 216.81 153.153 216.178 152.819C215.553 152.485 215.063 152.094 214.708 151.647C214.353 151.2 214.079 150.802 213.888 150.454H213.696V159.136H210.51ZM213.632 144.818C213.632 145.969 213.799 146.977 214.133 147.844C214.466 148.71 214.949 149.388 215.581 149.879C216.214 150.362 216.988 150.603 217.904 150.603C218.856 150.603 219.651 150.351 220.29 149.847C220.93 149.335 221.412 148.643 221.739 147.769C222.073 146.896 222.24 145.912 222.24 144.818C222.24 143.739 222.077 142.769 221.75 141.91C221.43 141.05 220.947 140.372 220.301 139.875C219.662 139.378 218.863 139.129 217.904 139.129C216.981 139.129 216.199 139.367 215.56 139.843C214.928 140.319 214.449 140.983 214.122 141.835C213.795 142.687 213.632 143.682 213.632 144.818ZM235.919 153.33C234.385 153.33 233.046 152.979 231.903 152.276C230.759 151.572 229.871 150.589 229.239 149.325C228.607 148.06 228.291 146.583 228.291 144.893C228.291 143.195 228.607 141.711 229.239 140.44C229.871 139.168 230.759 138.181 231.903 137.478C233.046 136.775 234.385 136.423 235.919 136.423C237.453 136.423 238.792 136.775 239.935 137.478C241.079 138.181 241.966 139.168 242.599 140.44C243.231 141.711 243.547 143.195 243.547 144.893C243.547 146.583 243.231 148.06 242.599 149.325C241.966 150.589 241.079 151.572 239.935 152.276C238.792 152.979 237.453 153.33 235.919 153.33ZM235.93 150.656C236.924 150.656 237.748 150.393 238.401 149.868C239.055 149.342 239.537 148.643 239.85 147.769C240.17 146.896 240.329 145.933 240.329 144.882C240.329 143.838 240.17 142.879 239.85 142.006C239.537 141.125 239.055 140.418 238.401 139.886C237.748 139.353 236.924 139.087 235.93 139.087C234.928 139.087 234.097 139.353 233.437 139.886C232.783 140.418 232.297 141.125 231.977 142.006C231.665 142.879 231.508 143.838 231.508 144.882C231.508 145.933 231.665 146.896 231.977 147.769C232.297 148.643 232.783 149.342 233.437 149.868C234.097 150.393 234.928 150.656 235.93 150.656ZM254.072 148.675H257.332C257.375 149.342 257.677 149.857 258.238 150.219C258.806 150.582 259.541 150.763 260.443 150.763C261.359 150.763 262.14 150.567 262.787 150.177C263.433 149.779 263.756 149.165 263.756 148.334C263.756 147.837 263.632 147.403 263.383 147.034C263.142 146.658 262.797 146.366 262.35 146.161C261.91 145.955 261.388 145.852 260.784 145.852H258.121V143.348H260.784C261.686 143.348 262.361 143.142 262.808 142.73C263.256 142.318 263.479 141.803 263.479 141.185C263.479 140.518 263.238 139.982 262.755 139.577C262.279 139.165 261.615 138.959 260.763 138.959C259.896 138.959 259.175 139.154 258.6 139.545C258.025 139.928 257.723 140.425 257.694 141.036H254.477C254.498 140.12 254.775 139.317 255.308 138.629C255.848 137.933 256.572 137.393 257.481 137.009C258.398 136.619 259.438 136.423 260.603 136.423C261.817 136.423 262.868 136.619 263.756 137.009C264.644 137.4 265.329 137.94 265.812 138.629C266.302 139.317 266.547 140.109 266.547 141.004C266.547 141.906 266.278 142.645 265.738 143.22C265.205 143.788 264.509 144.197 263.65 144.445V144.616C264.282 144.658 264.843 144.85 265.333 145.191C265.823 145.532 266.206 145.983 266.483 146.544C266.76 147.105 266.899 147.741 266.899 148.451C266.899 149.452 266.622 150.319 266.068 151.05C265.521 151.782 264.761 152.347 263.788 152.744C262.822 153.135 261.718 153.33 260.475 153.33C259.268 153.33 258.184 153.142 257.226 152.766C256.274 152.382 255.518 151.842 254.956 151.146C254.403 150.45 254.108 149.626 254.072 148.675ZM268.59 157.719V150.241H269.922C270.263 149.928 270.55 149.555 270.785 149.122C271.026 148.689 271.229 148.174 271.392 147.577C271.563 146.981 271.705 146.285 271.818 145.489C271.932 144.687 272.031 143.771 272.116 142.741L272.628 136.636H283.75V150.241H286.264V157.719H283.153V153H271.744V157.719H268.59ZM273.331 150.241H280.639V139.364H275.483L275.142 142.741C274.979 144.46 274.773 145.951 274.524 147.215C274.276 148.472 273.878 149.481 273.331 150.241ZM296.43 153.33C294.818 153.33 293.43 152.986 292.265 152.297C291.107 151.601 290.212 150.624 289.58 149.367C288.955 148.103 288.643 146.622 288.643 144.925C288.643 143.249 288.955 141.771 289.58 140.493C290.212 139.214 291.093 138.217 292.222 137.499C293.358 136.782 294.687 136.423 296.206 136.423C297.13 136.423 298.025 136.576 298.891 136.881C299.758 137.187 300.535 137.666 301.224 138.32C301.913 138.973 302.456 139.822 302.854 140.866C303.252 141.903 303.451 143.163 303.451 144.648V145.777H290.443V143.391H300.329C300.329 142.553 300.159 141.81 299.818 141.164C299.477 140.511 298.998 139.996 298.38 139.619C297.769 139.243 297.052 139.055 296.228 139.055C295.333 139.055 294.552 139.275 293.884 139.715C293.224 140.148 292.712 140.717 292.35 141.42C291.995 142.116 291.817 142.872 291.817 143.689V145.553C291.817 146.647 292.009 147.577 292.393 148.344C292.783 149.112 293.327 149.697 294.023 150.102C294.719 150.5 295.532 150.699 296.462 150.699C297.066 150.699 297.616 150.614 298.113 150.443C298.611 150.266 299.04 150.003 299.403 149.655C299.765 149.307 300.042 148.877 300.233 148.366L303.248 148.909C303.007 149.797 302.574 150.575 301.949 151.242C301.331 151.903 300.553 152.418 299.616 152.787C298.685 153.149 297.623 153.33 296.43 153.33ZM313.878 153.33C312.294 153.33 310.93 152.972 309.787 152.254C308.651 151.53 307.777 150.532 307.166 149.261C306.555 147.989 306.25 146.533 306.25 144.893C306.25 143.231 306.562 141.764 307.188 140.493C307.812 139.214 308.693 138.217 309.83 137.499C310.966 136.782 312.305 136.423 313.846 136.423C315.089 136.423 316.197 136.654 317.17 137.116C318.143 137.57 318.928 138.21 319.524 139.033C320.128 139.857 320.487 140.82 320.6 141.92H317.5C317.33 141.153 316.939 140.493 316.328 139.939C315.724 139.385 314.915 139.108 313.899 139.108C313.011 139.108 312.234 139.342 311.566 139.811C310.906 140.273 310.391 140.933 310.021 141.793C309.652 142.645 309.467 143.653 309.467 144.818C309.467 146.011 309.648 147.041 310.011 147.908C310.373 148.774 310.884 149.445 311.545 149.921C312.212 150.397 312.997 150.635 313.899 150.635C314.503 150.635 315.05 150.525 315.54 150.305C316.037 150.077 316.452 149.754 316.786 149.335C317.127 148.916 317.365 148.412 317.5 147.822H320.6C320.487 148.881 320.142 149.825 319.567 150.656C318.991 151.487 318.221 152.141 317.255 152.616C316.296 153.092 315.17 153.33 313.878 153.33ZM326.404 142.261H331.155C333.158 142.261 334.699 142.759 335.779 143.753C336.858 144.747 337.398 146.029 337.398 147.599C337.398 148.621 337.156 149.541 336.673 150.358C336.191 151.175 335.484 151.821 334.553 152.297C333.623 152.766 332.49 153 331.155 153H324.007V136.636H327.128V150.251H331.155C332.071 150.251 332.824 150.013 333.414 149.538C334.003 149.055 334.298 148.44 334.298 147.695C334.298 146.906 334.003 146.263 333.414 145.766C332.824 145.262 332.071 145.01 331.155 145.01H326.404V142.261ZM42.1413 189V172.636H55.4901V189H52.3686V175.385H45.2415V189H42.1413ZM66.6415 189.33C65.1074 189.33 63.7686 188.979 62.6252 188.276C61.4817 187.572 60.5939 186.589 59.9618 185.325C59.3297 184.06 59.0137 182.583 59.0137 180.893C59.0137 179.195 59.3297 177.711 59.9618 176.44C60.5939 175.168 61.4817 174.181 62.6252 173.478C63.7686 172.775 65.1074 172.423 66.6415 172.423C68.1756 172.423 69.5144 172.775 70.6578 173.478C71.8013 174.181 72.6891 175.168 73.3212 176.44C73.9533 177.711 74.2694 179.195 74.2694 180.893C74.2694 182.583 73.9533 184.06 73.3212 185.325C72.6891 186.589 71.8013 187.572 70.6578 188.276C69.5144 188.979 68.1756 189.33 66.6415 189.33ZM66.6522 186.656C67.6465 186.656 68.4703 186.393 69.1238 185.868C69.7772 185.342 70.2601 184.643 70.5726 183.769C70.8922 182.896 71.052 181.933 71.052 180.882C71.052 179.838 70.8922 178.879 70.5726 178.006C70.2601 177.125 69.7772 176.418 69.1238 175.886C68.4703 175.353 67.6465 175.087 66.6522 175.087C65.6507 175.087 64.8198 175.353 64.1593 175.886C63.5059 176.418 63.0194 177.125 62.6998 178.006C62.3873 178.879 62.231 179.838 62.231 180.882C62.231 181.933 62.3873 182.896 62.6998 183.769C63.0194 184.643 63.5059 185.342 64.1593 185.868C64.8198 186.393 65.6507 186.656 66.6522 186.656ZM87.5835 189V175.353H83.663C82.7326 175.353 82.0082 175.57 81.4897 176.003C80.9712 176.436 80.712 177.004 80.712 177.707C80.712 178.403 80.9499 178.964 81.4258 179.391C81.9087 179.81 82.5835 180.019 83.4499 180.019H88.5103V182.597H83.4499C82.2425 182.597 81.1985 182.398 80.3178 182.001C79.4442 181.596 78.7695 181.024 78.2937 180.286C77.8249 179.547 77.5906 178.673 77.5906 177.665C77.5906 176.635 77.832 175.747 78.315 175.001C78.805 174.249 79.5046 173.666 80.4137 173.254C81.3299 172.842 82.413 172.636 83.663 172.636H90.5771V189H87.5835ZM76.8448 189L81.4577 180.733H84.7177L80.1048 189H76.8448ZM94.8171 189V172.636H101.603C103.45 172.636 104.913 173.031 105.993 173.819C107.072 174.6 107.612 175.662 107.612 177.004C107.612 177.963 107.306 178.723 106.696 179.284C106.085 179.845 105.275 180.222 104.267 180.413C104.998 180.499 105.669 180.719 106.28 181.074C106.891 181.422 107.381 181.891 107.75 182.48C108.127 183.07 108.315 183.773 108.315 184.589C108.315 185.456 108.091 186.223 107.644 186.891C107.196 187.551 106.547 188.07 105.694 188.446C104.849 188.815 103.83 189 102.637 189H94.8171ZM97.8107 186.337H102.637C103.425 186.337 104.043 186.148 104.49 185.772C104.938 185.396 105.162 184.884 105.162 184.238C105.162 183.478 104.938 182.881 104.49 182.448C104.043 182.008 103.425 181.788 102.637 181.788H97.8107V186.337ZM97.8107 179.455H101.635C102.232 179.455 102.743 179.369 103.169 179.199C103.603 179.028 103.933 178.787 104.16 178.474C104.395 178.155 104.512 177.778 104.512 177.345C104.512 176.713 104.252 176.219 103.734 175.864C103.216 175.509 102.505 175.332 101.603 175.332H97.8107V179.455ZM121.568 189V175.353H117.647C116.717 175.353 115.993 175.57 115.474 176.003C114.956 176.436 114.696 177.004 114.696 177.707C114.696 178.403 114.934 178.964 115.41 179.391C115.893 179.81 116.568 180.019 117.434 180.019H122.495V182.597H117.434C116.227 182.597 115.183 182.398 114.302 182.001C113.429 181.596 112.754 181.024 112.278 180.286C111.809 179.547 111.575 178.673 111.575 177.665C111.575 176.635 111.816 175.747 112.299 175.001C112.789 174.249 113.489 173.666 114.398 173.254C115.314 172.842 116.397 172.636 117.647 172.636H124.561V189H121.568ZM110.829 189L115.442 180.733H118.702L114.089 189H110.829ZM126.772 175.385V172.636H140.579V175.385H135.241V189H132.131V175.385H126.772ZM150.079 189.33C148.495 189.33 147.132 188.972 145.988 188.254C144.852 187.53 143.978 186.532 143.367 185.261C142.757 183.989 142.451 182.533 142.451 180.893C142.451 179.231 142.764 177.764 143.389 176.493C144.014 175.214 144.894 174.217 146.031 173.499C147.167 172.782 148.506 172.423 150.047 172.423C151.29 172.423 152.398 172.654 153.371 173.116C154.344 173.57 155.129 174.21 155.725 175.033C156.329 175.857 156.688 176.82 156.801 177.92H153.701C153.531 177.153 153.14 176.493 152.529 175.939C151.926 175.385 151.116 175.108 150.1 175.108C149.213 175.108 148.435 175.342 147.767 175.811C147.107 176.273 146.592 176.933 146.222 177.793C145.853 178.645 145.669 179.653 145.669 180.818C145.669 182.011 145.85 183.041 146.212 183.908C146.574 184.774 147.085 185.445 147.746 185.921C148.414 186.397 149.198 186.635 150.1 186.635C150.704 186.635 151.251 186.525 151.741 186.305C152.238 186.077 152.654 185.754 152.987 185.335C153.328 184.916 153.566 184.412 153.701 183.822H156.801C156.688 184.881 156.343 185.825 155.768 186.656C155.193 187.487 154.422 188.141 153.456 188.616C152.497 189.092 151.372 189.33 150.079 189.33ZM169.966 189V175.353H166.046C165.115 175.353 164.391 175.57 163.873 176.003C163.354 176.436 163.095 177.004 163.095 177.707C163.095 178.403 163.333 178.964 163.809 179.391C164.292 179.81 164.966 180.019 165.833 180.019H170.893V182.597H165.833C164.625 182.597 163.581 182.398 162.701 182.001C161.827 181.596 161.152 181.024 160.676 180.286C160.208 179.547 159.973 178.673 159.973 177.665C159.973 176.635 160.215 175.747 160.698 175.001C161.188 174.249 161.887 173.666 162.797 173.254C163.713 172.842 164.796 172.636 166.046 172.636H172.96V189H169.966ZM159.228 189L163.841 180.733H167.1L162.488 189H159.228ZM196.23 179.444V182.203H187.366V179.444H196.23ZM188.261 172.636V189H185.139V172.636H188.261ZM198.456 172.636V189H195.345V172.636H198.456ZM209.61 189.33C208.076 189.33 206.737 188.979 205.594 188.276C204.45 187.572 203.563 186.589 202.931 185.325C202.298 184.06 201.982 182.583 201.982 180.893C201.982 179.195 202.298 177.711 202.931 176.44C203.563 175.168 204.45 174.181 205.594 173.478C206.737 172.775 208.076 172.423 209.61 172.423C211.144 172.423 212.483 172.775 213.627 173.478C214.77 174.181 215.658 175.168 216.29 176.44C216.922 177.711 217.238 179.195 217.238 180.893C217.238 182.583 216.922 184.06 216.29 185.325C215.658 186.589 214.77 187.572 213.627 188.276C212.483 188.979 211.144 189.33 209.61 189.33ZM209.621 186.656C210.615 186.656 211.439 186.393 212.093 185.868C212.746 185.342 213.229 184.643 213.541 183.769C213.861 182.896 214.021 181.933 214.021 180.882C214.021 179.838 213.861 178.879 213.541 178.006C213.229 177.125 212.746 176.418 212.093 175.886C211.439 175.353 210.615 175.087 209.621 175.087C208.619 175.087 207.789 175.353 207.128 175.886C206.475 176.418 205.988 177.125 205.669 178.006C205.356 178.879 205.2 179.838 205.2 180.882C205.2 181.933 205.356 182.896 205.669 183.769C205.988 184.643 206.475 185.342 207.128 185.868C207.789 186.393 208.619 186.656 209.621 186.656ZM220.794 189V172.636H227.58C229.426 172.636 230.89 173.031 231.969 173.819C233.049 174.6 233.588 175.662 233.588 177.004C233.588 177.963 233.283 178.723 232.672 179.284C232.061 179.845 231.252 180.222 230.243 180.413C230.975 180.499 231.646 180.719 232.257 181.074C232.868 181.422 233.358 181.891 233.727 182.48C234.103 183.07 234.292 183.773 234.292 184.589C234.292 185.456 234.068 186.223 233.62 186.891C233.173 187.551 232.523 188.07 231.671 188.446C230.826 188.815 229.806 189 228.613 189H220.794ZM223.787 186.337H228.613C229.402 186.337 230.02 186.148 230.467 185.772C230.914 185.396 231.138 184.884 231.138 184.238C231.138 183.478 230.914 182.881 230.467 182.448C230.02 182.008 229.402 181.788 228.613 181.788H223.787V186.337ZM223.787 179.455H227.612C228.208 179.455 228.72 179.369 229.146 179.199C229.579 179.028 229.909 178.787 230.137 178.474C230.371 178.155 230.488 177.778 230.488 177.345C230.488 176.713 230.229 176.219 229.711 175.864C229.192 175.509 228.482 175.332 227.58 175.332H223.787V179.455ZM240.183 178.261H244.934C246.937 178.261 248.478 178.759 249.558 179.753C250.637 180.747 251.177 182.029 251.177 183.599C251.177 184.621 250.936 185.541 250.453 186.358C249.97 187.175 249.263 187.821 248.333 188.297C247.402 188.766 246.27 189 244.934 189H237.786V172.636H240.907V186.251H244.934C245.85 186.251 246.603 186.013 247.193 185.538C247.782 185.055 248.077 184.44 248.077 183.695C248.077 182.906 247.782 182.263 247.193 181.766C246.603 181.262 245.85 181.01 244.934 181.01H240.183V178.261ZM253.5 189V172.636H256.685V189H253.5ZM268.012 189.33C266.4 189.33 265.012 188.986 263.847 188.297C262.689 187.601 261.794 186.624 261.162 185.367C260.537 184.103 260.225 182.622 260.225 180.925C260.225 179.249 260.537 177.771 261.162 176.493C261.794 175.214 262.675 174.217 263.804 173.499C264.941 172.782 266.269 172.423 267.789 172.423C268.712 172.423 269.607 172.576 270.473 172.881C271.34 173.187 272.117 173.666 272.806 174.32C273.495 174.973 274.039 175.822 274.436 176.866C274.834 177.903 275.033 179.163 275.033 180.648V181.777H262.025V179.391H271.911C271.911 178.553 271.741 177.81 271.4 177.164C271.059 176.511 270.58 175.996 269.962 175.619C269.351 175.243 268.634 175.055 267.81 175.055C266.915 175.055 266.134 175.275 265.466 175.715C264.806 176.148 264.294 176.717 263.932 177.42C263.577 178.116 263.399 178.872 263.399 179.689V181.553C263.399 182.647 263.591 183.577 263.975 184.344C264.365 185.112 264.909 185.697 265.605 186.102C266.301 186.5 267.114 186.699 268.044 186.699C268.648 186.699 269.198 186.614 269.695 186.443C270.193 186.266 270.622 186.003 270.985 185.655C271.347 185.307 271.624 184.877 271.816 184.366L274.83 184.909C274.589 185.797 274.156 186.575 273.531 187.242C272.913 187.903 272.135 188.418 271.198 188.787C270.267 189.149 269.205 189.33 268.012 189.33ZM285.59 175.385V172.636H299.397V175.385H294.06V189H290.949V175.385H285.59ZM308.897 189.33C307.363 189.33 306.025 188.979 304.881 188.276C303.738 187.572 302.85 186.589 302.218 185.325C301.586 184.06 301.27 182.583 301.27 180.893C301.27 179.195 301.586 177.711 302.218 176.44C302.85 175.168 303.738 174.181 304.881 173.478C306.025 172.775 307.363 172.423 308.897 172.423C310.431 172.423 311.77 172.775 312.914 173.478C314.057 174.181 314.945 175.168 315.577 176.44C316.209 177.711 316.525 179.195 316.525 180.893C316.525 182.583 316.209 184.06 315.577 185.325C314.945 186.589 314.057 187.572 312.914 188.276C311.77 188.979 310.431 189.33 308.897 189.33ZM308.908 186.656C309.902 186.656 310.726 186.393 311.38 185.868C312.033 185.342 312.516 184.643 312.828 183.769C313.148 182.896 313.308 181.933 313.308 180.882C313.308 179.838 313.148 178.879 312.828 178.006C312.516 177.125 312.033 176.418 311.38 175.886C310.726 175.353 309.902 175.087 308.908 175.087C307.907 175.087 307.076 175.353 306.415 175.886C305.762 176.418 305.275 177.125 304.956 178.006C304.643 178.879 304.487 179.838 304.487 180.882C304.487 181.933 304.643 182.896 304.956 183.769C305.275 184.643 305.762 185.342 306.415 185.868C307.076 186.393 307.907 186.656 308.908 186.656ZM320.081 189V172.636H326.867C328.714 172.636 330.177 173.031 331.256 173.819C332.336 174.6 332.876 175.662 332.876 177.004C332.876 177.963 332.57 178.723 331.959 179.284C331.349 179.845 330.539 180.222 329.53 180.413C330.262 180.499 330.933 180.719 331.544 181.074C332.155 181.422 332.645 181.891 333.014 182.48C333.39 183.07 333.579 183.773 333.579 184.589C333.579 185.456 333.355 186.223 332.907 186.891C332.46 187.551 331.81 188.07 330.958 188.446C330.113 188.815 329.094 189 327.9 189H320.081ZM323.074 186.337H327.9C328.689 186.337 329.307 186.148 329.754 185.772C330.202 185.396 330.425 184.884 330.425 184.238C330.425 183.478 330.202 182.881 329.754 182.448C329.307 182.008 328.689 181.788 327.9 181.788H323.074V186.337ZM323.074 179.455H326.899C327.496 179.455 328.007 179.369 328.433 179.199C328.866 179.028 329.197 178.787 329.424 178.474C329.658 178.155 329.775 177.778 329.775 177.345C329.775 176.713 329.516 176.219 328.998 175.864C328.479 175.509 327.769 175.332 326.867 175.332H323.074V179.455ZM341.835 189.362C340.798 189.362 339.861 189.17 339.023 188.787C338.184 188.396 337.52 187.832 337.03 187.093C336.547 186.354 336.306 185.449 336.306 184.376C336.306 183.453 336.483 182.693 336.839 182.097C337.194 181.5 337.673 181.028 338.277 180.68C338.881 180.332 339.555 180.069 340.301 179.891C341.047 179.714 341.807 179.579 342.581 179.487C343.561 179.373 344.356 179.281 344.967 179.21C345.578 179.131 346.022 179.007 346.299 178.837C346.576 178.666 346.714 178.389 346.714 178.006V177.931C346.714 177.001 346.452 176.28 345.926 175.768C345.407 175.257 344.633 175.001 343.604 175.001C342.531 175.001 341.686 175.239 341.068 175.715C340.457 176.184 340.035 176.706 339.8 177.281L336.807 176.599C337.162 175.605 337.68 174.803 338.362 174.192C339.051 173.574 339.843 173.126 340.738 172.849C341.633 172.565 342.574 172.423 343.561 172.423C344.214 172.423 344.907 172.501 345.638 172.658C346.377 172.807 347.066 173.084 347.705 173.489C348.351 173.893 348.881 174.472 349.292 175.225C349.704 175.971 349.91 176.94 349.91 178.134V189H346.8V186.763H346.672C346.466 187.175 346.157 187.58 345.745 187.977C345.333 188.375 344.804 188.705 344.157 188.968C343.511 189.231 342.737 189.362 341.835 189.362ZM342.528 186.805C343.408 186.805 344.161 186.631 344.786 186.283C345.418 185.935 345.898 185.481 346.224 184.92C346.558 184.352 346.725 183.744 346.725 183.098V180.989C346.611 181.102 346.391 181.209 346.064 181.308C345.745 181.401 345.379 181.482 344.967 181.553C344.555 181.617 344.154 181.678 343.763 181.734C343.373 181.784 343.046 181.827 342.783 181.862C342.165 181.94 341.601 182.072 341.089 182.256C340.585 182.441 340.18 182.707 339.875 183.055C339.577 183.396 339.427 183.851 339.427 184.419C339.427 185.207 339.719 185.804 340.301 186.209C340.883 186.607 341.626 186.805 342.528 186.805ZM354.153 195.136V172.636H357.264V175.289H357.53C357.715 174.948 357.981 174.554 358.329 174.107C358.677 173.659 359.16 173.268 359.778 172.935C360.396 172.594 361.213 172.423 362.228 172.423C363.549 172.423 364.728 172.757 365.765 173.425C366.802 174.092 367.615 175.055 368.205 176.312C368.801 177.569 369.1 179.082 369.1 180.85C369.1 182.619 368.805 184.135 368.216 185.399C367.626 186.656 366.816 187.626 365.787 188.308C364.757 188.982 363.581 189.32 362.26 189.32C361.266 189.32 360.453 189.153 359.821 188.819C359.196 188.485 358.706 188.094 358.35 187.647C357.995 187.2 357.722 186.802 357.53 186.454H357.338V195.136H354.153ZM357.275 180.818C357.275 181.969 357.441 182.977 357.775 183.844C358.109 184.71 358.592 185.388 359.224 185.879C359.856 186.362 360.63 186.603 361.547 186.603C362.498 186.603 363.294 186.351 363.933 185.847C364.572 185.335 365.055 184.643 365.382 183.769C365.716 182.896 365.882 181.912 365.882 180.818C365.882 179.739 365.719 178.769 365.392 177.91C365.073 177.05 364.59 176.372 363.944 175.875C363.304 175.378 362.505 175.129 361.547 175.129C360.623 175.129 359.842 175.367 359.203 175.843C358.571 176.319 358.091 176.983 357.765 177.835C357.438 178.687 357.275 179.682 357.275 180.818ZM375.066 178.261H379.817C381.82 178.261 383.361 178.759 384.441 179.753C385.52 180.747 386.06 182.029 386.06 183.599C386.06 184.621 385.819 185.541 385.336 186.358C384.853 187.175 384.146 187.821 383.216 188.297C382.285 188.766 381.152 189 379.817 189H372.669V172.636H375.79V186.251H379.817C380.733 186.251 381.486 186.013 382.076 185.538C382.665 185.055 382.96 184.44 382.96 183.695C382.96 182.906 382.665 182.263 382.076 181.766C381.486 181.262 380.733 181.01 379.817 181.01H375.066V178.261ZM388.382 189V172.636H391.568V189H388.382Z" fill="#C5C5C5"/>
</svg>
