<svg width="63" height="63" viewBox="0 0 63 63" fill="none" xmlns="http://www.w3.org/2000/svg">
<circle cx="31.4006" cy="31.4009" r="27.5242" transform="rotate(8 31.4006 31.4009)" fill="#F2F2F2" stroke="#C5C5C5" stroke-width="0.556043"/>
<path d="M40.0356 21.3948C39.8755 20.3717 38.9163 19.6721 37.8932 19.8322L21.2208 22.4409C20.1977 22.601 19.4981 23.5602 19.6582 24.5833C19.8183 25.6064 20.7774 26.306 21.8005 26.1459L36.6204 23.827L38.9393 38.647C39.0994 39.6701 40.0586 40.3697 41.0817 40.2096C42.1048 40.0495 42.8044 39.0903 42.6443 38.0672L40.0356 21.3948ZM14.7793 53.771L16.2942 54.8759L39.6979 22.7896L38.1831 21.6847L36.6682 20.5797L13.2644 52.666L14.7793 53.771Z" fill="#C5C5C5"/>
</svg>
