<svg width="438" height="59" viewBox="0 0 438 59" fill="none" xmlns="http://www.w3.org/2000/svg">
<path d="M0 29.5C0 13.2076 13.2076 0 29.5 0H408.5C424.792 0 438 13.2076 438 29.5C438 45.7924 424.792 59 408.5 59H29.5C13.2076 59 0 45.7924 0 29.5Z" fill="#FFC9E4"/>
<path d="M196 29C195.448 29 195 29.4477 195 30C195 30.5523 195.448 31 196 31V29ZM414.707 30.7071C415.098 30.3166 415.098 29.6834 414.707 29.2929L408.343 22.9289C407.953 22.5384 407.319 22.5384 406.929 22.9289C406.538 23.3195 406.538 23.9526 406.929 24.3431L412.586 30L406.929 35.6569C406.538 36.0474 406.538 36.6805 406.929 37.0711C407.319 37.4616 407.953 37.4616 408.343 37.0711L414.707 30.7071ZM196 30V31L414 31V30V29L196 29V30Z" fill="black"/>
</svg>
