<svg width="949" height="361" viewBox="0 0 949 361" fill="none" xmlns="http://www.w3.org/2000/svg">
<path d="M23.352 122V73.28H2.1V63.2H55.86V73.28H34.608V122H23.352ZM97.6402 122L92.9362 110.912H64.9642L60.2602 122H48.6682L73.1122 63.2H84.7882L109.232 122H97.6402ZM68.8282 101.42H89.0722L78.9922 77.564L68.8282 101.42ZM114.069 122V63.2H125.241L148.173 101.924L171.105 63.2H182.277V122H171.105V82.94L152.961 113.6H143.469L125.241 82.94V122H114.069ZM202.05 120.32L196.17 128.636H192.642L194.238 122.084C191.634 121.496 189.87 119.228 189.87 116.372C189.87 112.592 192.894 109.652 196.59 109.652C200.37 109.652 203.31 112.592 203.31 116.372C203.31 117.8 202.89 119.228 202.05 120.32ZM244.499 122V63.2H288.179V73.28H255.671V122H244.499ZM280.625 131.24V112.508H283.061C287.261 112.508 288.773 109.232 289.865 104.948L300.197 63.2H337.493V111.92H342.533V131.24H331.361V122H291.881V131.24H280.625ZM299.021 111.92H326.321V73.28H308.849L300.197 108.56C299.861 109.736 299.525 110.912 299.021 111.92ZM348.843 122V63.2H394.791V73.28H360.015V87.812H393.111V97.388H360.015V111.92H394.791V122H348.843ZM5.46 219V160.2H16.632V184.56H46.872V160.2H58.128V219H46.872V194.64H16.632V219H5.46ZM69.0342 219V160.2H114.982V170.28H80.2062V184.812H113.302V194.388H80.2062V208.92H114.982V219H69.0342ZM159.509 176.328L152.621 170.532C157.829 162.804 169.841 158.52 178.997 158.52C195.125 158.52 206.045 165.912 205.709 176.244C205.457 183.216 200.669 187.248 194.621 189.6C200.669 191.952 205.457 195.984 205.709 202.956C206.045 213.288 195.125 220.68 178.997 220.68C169.841 220.68 157.829 216.396 152.621 208.668L159.509 202.872C164.885 208.752 174.041 210.768 180.341 210.768C188.741 210.768 194.369 207.576 194.537 203.376C195.041 193.296 179.417 194.22 170.177 194.22V184.98C179.417 184.98 195.041 185.904 194.537 175.824C194.369 171.624 188.741 168.432 180.341 168.432C174.041 168.432 164.885 170.448 159.509 176.328ZM212.999 219V160.2H224.171V184.56H254.411V160.2H265.667V219H254.411V194.64H224.171V219H212.999ZM319.453 219L314.749 207.912H286.777L282.073 219H270.481L294.925 160.2H306.601L331.045 219H319.453ZM290.641 198.42H310.885L300.805 174.564L290.641 198.42ZM335.882 219V160.2H381.83V170.28H347.054V184.812H380.15V194.388H347.054V208.92H381.83V219H335.882ZM408.981 219V170.28H387.729V160.2H441.489V170.28H420.237V219H408.981ZM506.905 220.68C489.769 220.68 475.825 206.736 475.825 189.6C475.825 172.464 489.769 158.52 506.905 158.52C516.901 158.52 525.805 163.224 531.433 170.616L523.873 176.832C519.757 172.128 513.709 169.02 506.821 169.02C495.649 169.02 486.997 178.008 486.997 189.6C486.997 201.192 495.649 210.18 506.821 210.18C513.709 210.18 519.757 207.072 523.873 202.368L531.433 208.584C525.805 215.976 516.901 220.68 506.905 220.68ZM532.297 219V209.508H534.733C538.933 209.508 540.445 206.232 541.537 201.948L551.869 160.2H589.165V219H577.993V170.28H560.521L551.533 206.82C549.769 213.96 545.989 219 537.337 219H532.297ZM626.752 220.68C609.616 220.68 595.672 206.736 595.672 189.6C595.672 172.464 609.616 158.52 626.752 158.52C643.888 158.52 657.832 172.464 657.832 189.6C657.832 206.736 643.888 220.68 626.752 220.68ZM606.844 189.6C606.844 201.024 615.328 210.096 626.752 210.096C638.176 210.096 646.576 201.024 646.576 189.6C646.576 178.176 638.176 169.104 626.752 169.104C615.328 169.104 606.844 178.176 606.844 189.6ZM664.253 219V160.2H698.861C708.017 160.2 715.409 167.592 715.409 176.748C715.409 182.46 712.553 186.996 708.185 189.6C712.553 192.204 715.409 196.74 715.409 202.452C715.409 211.608 708.017 219 698.861 219H664.253ZM675.425 208.92H697.181C701.465 208.92 704.825 205.728 704.825 201.696C704.825 197.58 701.465 194.388 697.181 194.388H675.425V208.92ZM697.181 170.28H675.425V184.812H697.181C701.465 184.812 704.825 181.62 704.825 177.504C704.825 173.472 701.465 170.28 697.181 170.28ZM731.807 217.32L725.927 225.636H722.399L723.995 219.084C721.391 218.496 719.627 216.228 719.627 213.372C719.627 209.592 722.651 206.652 726.347 206.652C730.127 206.652 733.067 209.592 733.067 213.372C733.067 214.8 732.647 216.228 731.807 217.32ZM5.46 316V257.2H16.632V281.56H46.872V257.2H58.128V316H46.872V291.64H16.632V316H5.46ZM95.6819 317.68C78.5459 317.68 64.6019 303.736 64.6019 286.6C64.6019 269.464 78.5459 255.52 95.6819 255.52C112.818 255.52 126.762 269.464 126.762 286.6C126.762 303.736 112.818 317.68 95.6819 317.68ZM75.7739 286.6C75.7739 298.024 84.2579 307.096 95.6819 307.096C107.106 307.096 115.506 298.024 115.506 286.6C115.506 275.176 107.106 266.104 95.6819 266.104C84.2579 266.104 75.7739 275.176 75.7739 286.6Z" fill="black"/>
<path d="M493.46 316V257.2H537.14V267.28H504.632V316H493.46ZM530.898 316V306.508H533.334C537.534 306.508 539.046 303.232 540.138 298.948L550.47 257.2H587.766V316H576.594V267.28H559.122L550.134 303.82C548.37 310.96 544.59 316 535.938 316H530.898ZM641.585 316L636.881 304.912H608.909L604.205 316H592.613L617.057 257.2H628.733L653.177 316H641.585ZM612.773 295.42H633.017L622.937 271.564L612.773 295.42ZM660.142 273.328L653.254 267.532C658.462 259.804 670.474 255.52 679.63 255.52C695.758 255.52 706.678 262.912 706.342 273.244C706.09 280.216 701.302 284.248 695.254 286.6C701.302 288.952 706.09 292.984 706.342 299.956C706.678 310.288 695.758 317.68 679.63 317.68C670.474 317.68 658.462 313.396 653.254 305.668L660.142 299.872C665.518 305.752 674.674 307.768 680.974 307.768C689.374 307.768 695.002 304.576 695.17 300.376C695.674 290.296 680.05 291.22 670.81 291.22V281.98C680.05 281.98 695.674 282.904 695.17 272.824C695.002 268.624 689.374 265.432 680.974 265.432C674.674 265.432 665.518 267.448 660.142 273.328ZM756.511 316L751.807 304.912H723.835L719.131 316H707.539L731.983 257.2H743.659L768.103 316H756.511ZM727.699 295.42H747.943L737.863 271.564L727.699 295.42ZM772.94 316V257.2H784.112L807.044 295.924L829.976 257.2H841.148V316H829.976V276.94L811.832 307.6H802.34L784.112 276.94V316H772.94ZM852.101 316V257.2H863.273V298.948L895.193 257.2H906.449V316H895.193V274.252L863.273 316H852.101Z" fill="black"/>
<path d="M434.58 111.422C436.217 110.112 438.018 108.312 439.982 106.02C443.829 101.191 447.594 95.7891 451.277 89.8143C456.433 81.3023 462.367 77.0462 469.079 77.0462C472.844 77.0462 474.726 78.9287 474.726 82.6936C474.726 84.658 473.949 86.8678 472.393 89.3232L460.976 107.125C459.503 109.417 458.766 110.808 458.766 111.299C458.766 112.772 459.625 113.509 461.344 113.509C463.718 113.509 467.114 111.054 471.534 106.143L489.581 86.254L490.563 87.1134C489.336 88.5866 483.034 95.6663 471.657 108.353C467.237 113.263 463.104 115.719 459.257 115.719C454.755 115.719 452.382 113.263 452.136 108.353C452.055 106.143 452.914 103.646 454.715 100.864L464.904 85.2718C466.05 83.553 466.623 82.3253 466.623 81.5887C466.623 80.8521 466.009 80.361 464.782 80.1155C461.835 80.1155 458.52 82.8164 454.837 88.2183C451.236 93.5383 448.085 98.2036 445.384 102.214C439 111.217 434.13 115.719 430.774 115.719C429.137 115.719 428.319 114.327 428.319 111.545C428.728 107.207 430.201 102.501 432.739 97.426C435.194 92.2697 437.69 88.4229 440.228 85.8857C441.946 84.4124 443.542 83.9623 445.016 84.5352C446.898 85.5174 447.307 86.9906 446.243 88.9549C445.098 90.4282 443.542 90.5919 441.578 89.446C437.568 91.4922 434.13 96.935 431.265 105.774C429.219 113.059 430.324 114.941 434.58 111.422ZM552.128 87.2361C548.772 93.2928 541.692 97.3442 530.889 99.3904C528.188 103.565 524.218 107.289 518.98 110.562C513.414 114 508.258 115.719 503.511 115.719C500.237 115.719 497.822 114.286 496.267 111.422C495.694 109.458 495.449 107.125 495.531 104.424C495.694 101.723 496.758 98.6947 498.723 95.339C497.413 95.9119 496.145 96.6894 494.917 97.6716C493.689 98.5719 492.011 100.536 489.883 103.565C489.065 104.874 488.001 106.797 486.691 109.335C485.3 112.854 483.99 114.614 482.763 114.614C482.353 114.614 481.576 114.45 480.43 114.123C479.202 113.795 478.466 113.632 478.22 113.632C477.565 113.632 476.051 114.818 473.678 117.192L492.462 81.2204C493.526 79.2561 494.753 78.2739 496.145 78.2739C496.718 78.2739 497.495 78.4376 498.477 78.765C499.541 79.0924 500.196 79.2561 500.442 79.2561C500.605 79.2561 501.26 78.7241 502.406 77.6601C503.634 76.5961 504.493 75.9413 504.984 75.6958L492.953 96.5667C495.735 94.766 497.904 93.17 499.459 91.7786C501.096 90.3872 503.02 88.5457 505.23 86.254C508.176 82.8983 511.327 80.361 514.683 78.6422C518.12 76.9235 522.254 76.105 527.083 76.1868C529.865 76.1868 531.993 77.2099 533.467 79.2561C534.94 81.2204 535.677 83.3893 535.677 85.7629C535.677 89.8552 534.408 93.7839 531.871 97.5488C534.899 97.1396 538.5 95.83 542.674 93.6202C547.34 91.1648 550.163 88.7503 551.146 86.3767L552.128 87.2361ZM505.475 103.319C503.92 106.265 503.143 108.516 503.143 110.071C503.143 112.69 504.288 114 506.58 114C511.9 114 517.425 108.475 523.154 97.426C520.453 94.807 519.103 91.6149 519.103 87.85C519.43 82.7755 521.108 79.4198 524.136 77.7828C521.272 78.1102 518.612 80.2792 516.156 84.2897C513.701 88.3001 510.14 94.6433 505.475 103.319ZM528.31 81.3432C528.31 79.6244 527.533 78.765 525.978 78.765C524.505 78.765 523.277 79.6653 522.295 81.4659C521.312 83.1847 520.821 85.3127 520.821 87.85C520.821 91.4512 521.804 94.0703 523.768 95.7073C524.914 94.234 525.937 91.9832 526.837 88.9549C527.819 85.9266 528.31 83.3893 528.31 81.3432ZM551.176 110.44C549.621 108.394 548.844 105.447 548.844 101.6C548.762 97.7534 550.89 91.9832 555.228 84.2897C560.302 75.7776 565.377 67.5111 570.451 59.4901C574.707 53.1061 579.332 47.6224 584.324 43.0389C589.317 38.3737 594.228 36.4503 599.057 37.2688L608.019 38.6192C609.656 38.8648 611.088 38.9057 612.316 38.742C613.625 38.5783 614.526 38.0463 615.017 37.146C615.835 36.9823 616.326 36.9414 616.49 37.0232L616.981 37.5143C615.835 40.5426 614.648 42.5888 613.421 43.6528C611.62 45.0442 609.042 45.4943 605.686 45.0033L597.583 43.6528C592.345 42.8343 587.966 43.4073 584.447 45.3716C580.6 49.0547 576.753 53.7199 572.907 59.3673C567.75 66.8972 564.108 73.6905 561.98 79.7472C565.663 76.9644 570.492 75.573 576.467 75.573C579.332 75.573 581.705 76.6779 583.588 78.8878C585.47 81.0976 586.411 83.8395 586.411 87.1134C586.411 89.0777 586.043 90.9602 585.306 92.7608C584.979 93.5793 584.365 94.9706 583.465 96.935C584.12 96.8531 585.347 96.403 587.148 95.5845C591.568 93.5383 596.519 89.9371 602.003 84.7807L602.985 85.6401C600.202 89.0777 595.169 92.8426 587.885 96.935C586.657 97.426 584.815 98.0399 582.36 98.7765C579.823 102.951 576.344 106.511 571.924 109.458C567.177 112.568 562.553 114.123 558.051 114.123C555.269 114.123 552.977 112.895 551.176 110.44ZM579.045 80.1155C579.045 78.0693 578.063 77.0462 576.099 77.0462C572.252 77.0462 567.832 81.3432 562.839 89.9371C558.092 97.9581 555.719 104.137 555.719 108.475C555.719 111.176 556.496 112.527 558.051 112.527C562.307 112.527 567.382 107.616 573.275 97.7944C577.122 90.1826 579.045 84.2897 579.045 80.1155ZM646.68 88.7094C641.933 94.6023 635.385 98.4901 627.037 100.373C624.499 104.547 621.021 108.107 616.601 111.054C611.854 114.164 607.23 115.719 602.728 115.719C599.945 115.719 597.654 114.491 595.853 112.036C594.216 109.826 593.398 107.289 593.398 104.424C593.398 97.467 596.262 91.2057 601.992 85.6401C607.803 79.9927 614.187 77.169 621.144 77.169C624.008 77.169 626.382 78.2739 628.264 80.4838C630.147 82.6937 631.088 85.4355 631.088 88.7094C631.088 90.6737 630.72 92.5562 629.983 94.3568C629.656 95.1753 629.042 96.5667 628.142 98.531C634.607 97.1396 640.459 93.5793 645.698 87.85L646.68 88.7094ZM623.722 81.7115C623.722 79.6653 622.74 78.6422 620.775 78.6422C616.929 78.6422 612.509 82.9392 607.516 91.5331C602.769 99.5541 600.396 105.733 600.396 110.071C600.396 112.772 601.173 114.123 602.728 114.123C606.984 114.123 612.059 109.212 617.952 99.3904C613.45 97.9171 611.158 96.0347 611.077 93.7429C611.158 90.8783 612.468 89.446 615.005 89.446C616.724 89.446 617.583 90.3054 617.583 92.0242C617.583 93.4156 616.478 94.234 614.269 94.4796C614.841 96.5257 616.397 97.7534 618.934 98.1627C622.126 91.3694 623.722 85.8857 623.722 81.7115ZM696.664 87.2361C690.935 94.9297 683.323 98.8584 673.829 99.0221C671.619 102.869 667.977 106.552 662.903 110.071C657.583 113.836 652.877 115.719 648.784 115.719C646.329 115.719 644.364 114.859 642.891 113.141C641.418 111.422 640.681 109.171 640.681 106.388C640.681 100.086 642.728 92.4334 646.82 83.4303C650.012 76.4733 653.777 70.0074 658.115 64.0326C671.783 45.2897 682.178 35.9183 689.298 35.9183C690.362 35.9183 691.263 36.4503 691.999 37.5143C692.736 38.5783 693.104 39.7651 693.104 41.0746C693.104 48.5227 688.439 56.7073 679.108 65.6286C671.906 72.5037 666.013 76.8416 661.429 78.6422C659.547 82.3253 656.682 87.7681 652.836 94.9707C648.743 102.828 646.697 107.943 646.697 110.317C646.697 112.772 648.007 114.041 650.626 114.123C652.754 114.205 655.618 112.077 659.22 107.739C662.166 104.219 664.376 100.905 665.849 97.7944C662.903 96.1574 661.429 93.0473 661.429 88.4638C661.429 85.3537 662.084 82.6937 663.394 80.4838C664.703 78.2739 666.34 77.169 668.305 77.169C674.443 77.169 677.512 80.2382 677.512 86.3767C677.512 90.8783 676.53 94.6023 674.566 97.5488C683.16 97.3033 690.199 93.5793 695.682 86.3767L696.664 87.2361ZM687.948 42.3023C688.03 39.7651 687.58 38.4965 686.597 38.4965C685.124 38.4965 682.219 41.6066 677.881 47.827C674.934 52.1648 672.479 56.0526 670.514 59.4901C667.814 64.3191 665.031 70.0074 662.166 76.5552C668.959 73.0357 675.18 66.8154 680.827 57.8941C685.492 50.4461 687.866 45.2488 687.948 42.3023ZM669.901 83.553C669.901 80.6066 669.123 79.1333 667.568 79.1333C666.34 79.1333 665.276 80.0746 664.376 81.957C663.558 83.7577 663.148 85.9266 663.148 88.4638C663.148 91.9832 664.294 94.6023 666.586 96.3211C667.077 95.1753 667.773 93.4156 668.673 91.042C669.491 88.914 669.901 86.4177 669.901 83.553ZM705.432 114.246C702.977 115.146 699.58 115.596 695.242 115.596C691.313 115.514 688.572 114.368 687.016 112.158C685.216 109.294 685.789 104.956 688.735 99.1448L698.066 80.8521C698.148 80.7703 698.475 80.2382 699.048 79.2561C699.703 78.5195 700.562 78.1512 701.626 78.1512C702.035 78.1512 702.772 78.3149 703.836 78.6422C704.9 78.9696 705.555 79.1333 705.8 79.1333C706.21 79.1333 706.946 78.5604 708.01 77.4145C709.156 76.2687 709.974 75.6548 710.466 75.573L701.503 91.4103C703.058 89.8552 705.105 89.0777 707.642 89.0777C709.934 89.0777 712.062 90.0598 714.026 92.0242C716.072 93.9066 716.768 96.8531 716.113 100.864C715.376 103.646 714.23 106.143 712.675 108.353C711.202 110.562 709.361 112.199 707.151 113.263C709.279 114.409 711.775 114.614 714.64 113.877C717.832 112.977 721.351 110.194 725.198 105.529C729.045 100.7 733.137 94.9297 737.475 88.2183L738.703 88.7094C734.528 95.6663 730.272 101.764 725.935 107.002C722.088 111.667 718.323 114.45 714.64 115.35C711.448 116.251 708.378 115.882 705.432 114.246ZM708.624 94.4796C708.46 92.5152 707.192 91.5331 704.818 91.5331C702.363 91.6968 700.398 93.17 698.925 95.9528L693.769 106.02C694.342 105.693 695.283 105.652 696.593 105.897C697.738 105.897 699.744 107.043 702.608 109.335C704.409 107.616 705.8 105.57 706.782 103.196C708.174 100.086 708.788 97.1805 708.624 94.4796ZM701.503 110.685C699.293 108.557 697.329 107.452 695.61 107.37C693.728 107.452 692.787 107.984 692.787 108.966C692.787 109.949 692.95 110.808 693.278 111.545C693.523 112.199 694.26 112.731 695.488 113.141C696.961 113.222 698.066 113.1 698.802 112.772C699.621 112.363 700.521 111.667 701.503 110.685Z" fill="black"/>
<path d="M180.918 289.113C179.69 290.587 173.388 297.666 162.012 310.353C157.592 315.263 153.459 317.719 149.612 317.719C145.11 317.719 142.737 315.263 142.491 310.353C142.409 308.143 143.269 305.646 145.069 302.864L155.259 287.272C156.405 285.553 156.978 284.325 156.978 283.589C156.978 282.852 156.364 282.484 155.136 282.484C153.663 282.156 151.658 282.893 149.121 284.694C146.665 286.985 144.783 289.154 143.473 291.2L142.491 290.464C143.964 288.254 146.01 285.88 148.63 283.343C151.658 280.724 155.259 279.292 159.433 279.046C163.198 279.046 165.081 280.929 165.081 284.694C165.081 286.658 164.303 288.868 162.748 291.323L151.331 309.125C149.857 311.417 149.121 312.808 149.121 313.299C149.121 314.772 149.98 315.509 151.699 315.509C154.072 315.509 157.469 313.054 161.889 308.143L179.936 288.254L180.918 289.113ZM224.392 290.709C219.645 296.602 213.097 300.49 204.749 302.372C202.212 306.547 198.733 310.107 194.314 313.054C189.566 316.164 184.942 317.719 180.441 317.719C177.658 317.719 175.366 316.491 173.565 314.036C171.928 311.826 171.11 309.289 171.11 306.424C171.11 299.467 173.975 293.206 179.704 287.64C185.515 281.993 191.899 279.169 198.856 279.169C201.721 279.169 204.094 280.274 205.977 282.484C207.859 284.694 208.8 287.435 208.8 290.709C208.8 292.674 208.432 294.556 207.696 296.357C207.368 297.175 206.754 298.567 205.854 300.531C212.32 299.14 218.172 295.579 223.41 289.85L224.392 290.709ZM201.434 283.711C201.434 281.665 200.452 280.642 198.488 280.642C194.641 280.642 190.221 284.939 185.229 293.533C180.481 301.554 178.108 307.733 178.108 312.071C178.108 314.772 178.885 316.123 180.441 316.123C184.697 316.123 189.771 311.212 195.664 301.39C191.162 299.917 188.871 298.035 188.789 295.743C188.871 292.878 190.18 291.446 192.718 291.446C194.436 291.446 195.296 292.305 195.296 294.024C195.296 295.416 194.191 296.234 191.981 296.48C192.554 298.526 194.109 299.753 196.646 300.163C199.838 293.369 201.434 287.886 201.434 283.711ZM274.377 289.236C268.648 296.93 261.036 300.858 251.542 301.022C249.332 304.869 245.69 308.552 240.615 312.071C235.295 315.836 230.589 317.719 226.497 317.719C224.041 317.719 222.077 316.859 220.604 315.141C219.13 313.422 218.394 311.171 218.394 308.388C218.394 302.086 220.44 294.433 224.532 285.43C227.724 278.473 231.489 272.007 235.827 266.032C249.496 247.29 259.89 237.918 267.011 237.918C268.075 237.918 268.975 238.45 269.712 239.514C270.448 240.578 270.817 241.765 270.817 243.074C270.817 250.522 266.151 258.707 256.821 267.628C249.618 274.504 243.725 278.842 239.142 280.642C237.26 284.325 234.395 289.768 230.548 296.971C226.456 304.828 224.41 309.943 224.41 312.317C224.41 314.772 225.719 316.041 228.338 316.123C230.466 316.205 233.331 314.077 236.932 309.739C239.879 306.219 242.089 302.904 243.562 299.794C240.615 298.157 239.142 295.047 239.142 290.464C239.142 287.354 239.797 284.694 241.106 282.484C242.416 280.274 244.053 279.169 246.017 279.169C252.156 279.169 255.225 282.238 255.225 288.377C255.225 292.878 254.243 296.602 252.278 299.549C260.872 299.303 267.911 295.579 273.395 288.377L274.377 289.236ZM265.66 244.302C265.742 241.765 265.292 240.496 264.31 240.496C262.837 240.496 259.931 243.606 255.593 249.827C252.647 254.165 250.191 258.052 248.227 261.49C245.526 266.319 242.743 272.007 239.879 278.555C246.672 275.036 252.892 268.815 258.54 259.894C263.205 252.446 265.579 247.249 265.66 244.302ZM247.613 285.553C247.613 282.606 246.836 281.133 245.281 281.133C244.053 281.133 242.989 282.074 242.089 283.957C241.27 285.758 240.861 287.927 240.861 290.464C240.861 293.983 242.007 296.602 244.298 298.321C244.789 297.175 245.485 295.416 246.385 293.042C247.204 290.914 247.613 288.418 247.613 285.553ZM318.748 290.709C314.001 296.602 307.453 300.49 299.105 302.372C296.568 306.547 293.089 310.107 288.669 313.054C283.922 316.164 279.298 317.719 274.796 317.719C272.013 317.719 269.722 316.491 267.921 314.036C266.284 311.826 265.466 309.289 265.466 306.424C265.466 299.467 268.33 293.206 274.06 287.64C279.871 281.993 286.255 279.169 293.212 279.169C296.076 279.169 298.45 280.274 300.332 282.484C302.215 284.694 303.156 287.435 303.156 290.709C303.156 292.674 302.788 294.556 302.051 296.357C301.724 297.175 301.11 298.567 300.21 300.531C306.676 299.14 312.528 295.579 317.766 289.85L318.748 290.709ZM295.79 283.711C295.79 281.665 294.808 280.642 292.843 280.642C288.997 280.642 284.577 284.939 279.584 293.533C274.837 301.554 272.464 307.733 272.464 312.071C272.464 314.772 273.241 316.123 274.796 316.123C279.052 316.123 284.127 311.212 290.02 301.39C285.518 299.917 283.226 298.035 283.145 295.743C283.226 292.878 284.536 291.446 287.073 291.446C288.792 291.446 289.651 292.305 289.651 294.024C289.651 295.416 288.547 296.234 286.337 296.48C286.91 298.526 288.465 299.753 291.002 300.163C294.194 293.369 295.79 287.886 295.79 283.711ZM365.418 289.236C361.08 296.602 356.292 302.986 351.054 308.388C343.77 316 337.14 319.806 331.165 319.806C329.119 319.806 327.277 318.865 325.64 316.982C322.53 319.11 319.625 320.174 316.924 320.174C314.141 320.174 312.381 318.333 311.645 314.65C307.634 321.934 303.051 331.878 297.894 344.483C294.293 353.158 291.715 357.496 290.16 357.496C288.523 357.496 286.477 356.964 284.021 355.9L278.865 360.443C285.003 349.803 292.288 336.339 300.718 320.051C307.757 306.465 314.386 294.106 320.607 282.975C320.689 282.893 321.016 282.361 321.589 281.379C322.244 280.642 323.103 280.274 324.167 280.274C324.576 280.274 325.313 280.438 326.377 280.765C327.441 281.092 328.096 281.256 328.341 281.256C328.751 281.256 329.487 280.683 330.551 279.537C331.697 278.391 332.516 277.778 333.007 277.696L330.92 281.502C332.475 279.946 334.521 279.169 337.058 279.169C339.35 279.169 341.273 280.151 342.828 282.115C344.383 284.08 345.161 286.453 345.161 289.236C345.161 298.239 339.145 307.161 327.114 316C328.423 317.555 329.774 318.333 331.165 318.333C336.649 318.333 343.033 314.527 350.317 306.915C355.474 301.513 360.18 295.334 364.436 288.377L365.418 289.236ZM337.795 284.325C337.795 282.606 336.976 281.747 335.339 281.747C331.902 281.747 327.523 286.085 322.203 294.761C318.929 300.163 316.433 304.992 314.714 309.248C315.287 309.002 316.31 308.879 317.783 308.879C318.929 308.879 320.934 309.943 323.799 312.071C326.582 308.634 329.487 304.214 332.516 298.812C336.035 292.264 337.795 287.435 337.795 284.325ZM322.448 313.422C320.402 311.457 318.479 310.475 316.678 310.475C314.55 310.475 313.486 310.966 313.486 311.949C313.486 313.013 313.814 314.118 314.468 315.263C315.041 316.327 315.819 316.859 316.801 316.859C317.947 316.859 318.929 316.573 319.747 316C319.993 315.754 320.279 315.509 320.607 315.263C321.18 314.69 321.794 314.077 322.448 313.422ZM416.376 289.236C411.875 295.866 407.25 301.554 402.503 306.301C394.81 313.913 388.098 317.719 382.369 317.719C378.195 317.719 375.78 314.322 375.126 307.529C371.524 311.703 369.028 314.322 367.637 315.386C365.59 316.941 363.094 317.719 360.148 317.719C355.973 317.719 353.886 315.714 353.886 311.703C353.886 308.02 355.237 303.682 357.938 298.689L367.023 281.993C367.677 280.847 368.782 280.274 370.337 280.274C370.419 280.274 370.992 280.438 372.056 280.765C373.202 281.01 373.98 281.133 374.389 281.133C374.798 281.133 375.535 280.601 376.599 279.537C377.745 278.391 378.481 277.778 378.809 277.696L364.199 305.196C362.808 307.815 362.112 310.107 362.112 312.071C362.439 313.954 363.585 314.609 365.549 314.036C368.496 312.644 371.197 310.393 373.652 307.283C376.19 304.091 378.072 301.431 379.3 299.303L389.121 281.87C389.694 280.806 390.635 280.274 391.945 280.274C392.436 280.274 393.214 280.438 394.278 280.765C395.342 281.01 396.037 281.133 396.365 281.133C396.692 281.133 397.388 280.601 398.452 279.537C399.516 278.391 400.293 277.778 400.785 277.696L385.193 307.038C383.883 309.493 383.228 311.294 383.228 312.44C383.228 314.077 384.292 314.895 386.42 314.895C390.022 314.895 395.342 311.253 402.381 303.969C407.373 298.812 411.711 293.615 415.394 288.377L416.376 289.236ZM481.815 289.236L466.837 305.933C462.663 310.516 459.962 313.34 458.734 314.404C456.033 316.614 453.414 317.719 450.877 317.719C448.831 317.719 447.071 317.023 445.598 315.632C444.206 314.158 443.51 312.317 443.51 310.107C443.51 308.716 445.966 304.337 450.877 296.971C455.788 289.604 458.243 285.389 458.243 284.325C458.243 282.934 457.506 282.238 456.033 282.238C453.987 282.238 449.199 286.781 441.669 295.866C439.623 299.794 436.185 306.137 431.356 314.895C430.701 316.041 429.597 316.614 428.041 316.614C427.714 316.614 426.977 316.45 425.832 316.123C424.768 315.795 424.154 315.632 423.99 315.632C423.417 315.632 421.944 316.818 419.57 319.192C431.765 296.684 437.863 284.939 437.863 283.957C437.863 282.811 437.413 282.238 436.513 282.238C434.466 282.238 429.801 286.003 422.517 293.533C420.307 295.825 417.36 300.572 413.677 307.774C410.649 313.667 408.644 316.614 407.662 316.614C406.925 316.614 405.902 316.45 404.592 316.123C403.283 315.795 402.587 315.632 402.505 315.632C401.932 315.632 400.459 316.818 398.085 319.192L415.151 287.026C416.787 283.916 417.77 282.197 418.097 281.87C418.67 280.806 419.488 280.274 420.552 280.274C421.207 280.274 422.148 280.397 423.376 280.642C424.604 280.888 425.259 281.01 425.34 281.01C425.668 281.01 426.364 280.519 427.428 279.537C428.492 278.473 429.269 277.859 429.76 277.696L423.499 289.482C430.292 282.606 436.103 279.169 440.932 279.169C444.615 279.169 446.457 281.993 446.457 287.64C450.222 284.121 452.8 281.911 454.192 281.01C456.074 279.783 458.366 279.169 461.067 279.169C462.54 279.169 463.89 279.619 465.118 280.519C466.346 281.42 466.878 282.975 466.714 285.185C466.305 286.822 465.609 288.254 464.627 289.482L452.718 308.757C451.491 310.721 450.877 312.071 450.877 312.808C450.877 314.772 451.695 315.754 453.332 315.754C455.296 315.754 459.512 312.153 465.977 304.951L480.833 288.377L481.815 289.236Z" fill="black"/>
</svg>
